<svg width="20" height="20" viewBox="0 0 20 20" fill="none" xmlns="http://www.w3.org/2000/svg">
<path fill-rule="evenodd" clip-rule="evenodd" d="M14.4107 2.74408C14.7362 2.41864 15.2638 2.41864 15.5892 2.74408L18.0892 5.24408C18.4147 5.56951 18.4147 6.09715 18.0892 6.42259L15.5892 8.92259C15.2638 9.24803 14.7362 9.24803 14.4107 8.92259C14.0853 8.59715 14.0853 8.06951 14.4107 7.74408L15.4881 6.66667H12.1708C11.6345 6.66664 11.1061 6.79602 10.6305 7.0438C10.155 7.29155 9.74623 7.65035 9.43896 8.08976C9.4389 8.08984 9.43901 8.08968 9.43896 8.08976L9.01396 8.69809C8.65394 9.21302 8.20086 9.65441 7.67986 10C8.20086 10.3456 8.65377 10.7867 9.01379 11.3017L9.43879 11.91C9.43873 11.9099 9.43884 11.9101 9.43879 11.91C9.74606 12.3494 10.155 12.7085 10.6305 12.9562C11.1061 13.204 11.6345 13.3334 12.1708 13.3333H15.4881L14.4107 12.2559C14.0853 11.9305 14.0853 11.4028 14.4107 11.0774C14.7362 10.752 15.2638 10.752 15.5892 11.0774L18.0892 13.5774C18.4147 13.9028 18.4147 14.4305 18.0892 14.7559L15.5892 17.2559C15.2638 17.5814 14.7362 17.5814 14.4107 17.2559C14.0853 16.9305 14.0853 16.4028 14.4107 16.0774L15.4881 15H12.1709C12.1708 15 12.1709 15 12.1709 15C11.3664 15 10.5738 14.806 9.86043 14.4343C9.14701 14.0626 8.5338 13.5243 8.07286 12.865L7.64786 12.2567C7.6478 12.2566 7.64792 12.2567 7.64786 12.2567C7.34065 11.8173 6.93184 11.4584 6.45644 11.2106C5.98103 10.9629 5.45288 10.8335 4.91679 10.8333H2.49999C2.03975 10.8333 1.66666 10.4602 1.66666 10C1.66666 9.53976 2.03975 9.16667 2.49999 9.16667H4.91653C5.45262 9.16654 5.98103 9.03712 6.45644 8.78937C6.93184 8.54164 7.34048 8.18289 7.64769 7.74358C7.64763 7.74366 7.64775 7.74349 7.64769 7.74358L8.07269 7.13524C8.53363 6.47596 9.14701 5.93739 9.86043 5.56571C10.5738 5.19403 11.3664 4.99997 12.1708 5C12.1708 5 12.1708 5 12.1708 5H15.4881L14.4107 3.92259C14.0853 3.59715 14.0853 3.06951 14.4107 2.74408Z" fill="#242424"/>
</svg>
