<svg width="78" height="24" viewBox="0 0 78 24" fill="none" xmlns="http://www.w3.org/2000/svg">
<g clip-path="url(#clip0_2287_11735)">
<mask id="mask0_2287_11735" style="mask-type:luminance" maskUnits="userSpaceOnUse" x="0" y="0" width="78" height="24">
<path d="M0.45459 0H77.5455V23.9505H0.45459V0Z" fill="white"/>
</mask>
<g mask="url(#mask0_2287_11735)">
<path d="M32.4009 6.88867C33.5688 6.8887 34.6135 7.1616 35.5327 7.70703C36.4366 8.2367 37.1863 8.994 37.7065 9.90332C38.2519 10.8073 38.5239 11.8047 38.5239 12.8955C38.5239 14.0641 38.2666 15.1081 37.7524 16.0273C37.2483 16.9209 36.5144 17.6636 35.6265 18.1777C34.7225 18.7072 33.6858 18.9717 32.5171 18.9717C31.651 18.9774 30.7975 18.7599 30.0396 18.3408C29.5808 18.0786 29.1765 17.7702 28.8247 17.418V23.9502H26.2534V12.8955C26.2534 11.7581 26.5189 10.7363 27.0483 9.83301C27.5835 8.93939 28.3397 8.19844 29.2446 7.68262C30.1799 7.15316 31.2322 6.88867 32.4009 6.88867ZM18.9604 6.67969C22.7022 6.67969 25.056 9.53805 25.0562 12.8965C25.0562 16.255 22.7023 19.1143 18.9604 19.1143C17.7585 19.1142 16.7222 18.6345 15.8511 17.9961V23.7988H13.5356V16.4346C13.5359 14.8887 15.3843 14.3728 16.313 15.3262L16.4858 15.5C17.3504 16.3434 18.1621 16.7987 18.9604 16.7988C21.2783 16.7988 22.7407 15.1256 22.7407 12.8965C22.7406 10.6675 21.2789 8.99584 18.9604 8.99512C18.5205 8.9952 17.9897 9.18436 17.3833 9.59082C16.7855 9.99082 16.1981 10.5477 15.6694 11.1396C15.0691 11.8163 14.5234 12.5394 14.0366 13.3018L13.7671 13.7363C13.2131 14.6046 12.5915 15.428 11.9077 16.1982C11.3064 16.8708 10.5733 17.5794 9.75537 18.127C8.94664 18.6688 7.96407 19.1143 6.88916 19.1143C3.14751 19.1141 0.793457 16.2557 0.793457 12.8965C0.793578 9.53814 3.14761 6.67984 6.88916 6.67969C8.09134 6.67969 9.12799 7.16028 9.99854 7.79883V6.84082H12.314V9.3584C12.314 10.8566 10.5802 11.3876 9.62744 10.5527L9.5376 10.4678C8.60742 9.51359 7.74105 8.99512 6.89014 8.99512C4.57098 8.99514 3.109 10.6675 3.10889 12.8965C3.10889 15.1262 4.57079 16.7987 6.88916 16.7988C7.32916 16.7988 7.86074 16.6099 8.46729 16.2041C9.06506 15.8034 9.65148 15.2472 10.1802 14.6553C10.7807 13.9784 11.3272 13.255 11.814 12.4922L11.9731 12.2354C12.1391 11.9685 12.3116 11.7054 12.4907 11.4473C12.9369 10.8014 13.4222 10.1831 13.9429 9.5957C14.5443 8.92302 15.2771 8.21362 16.0952 7.66602C16.9031 7.12426 17.8849 6.67976 18.9604 6.67969ZM42.1597 7.19238H46.4829V9.38965H42.1597V14.3691C42.1597 15.0853 42.3621 15.6467 42.7671 16.0518C43.1721 16.4568 43.7016 16.6591 44.356 16.6592C44.7355 16.656 45.1134 16.6006 45.478 16.4951C45.8367 16.3857 46.1759 16.2202 46.4829 16.0049V18.3418C46.1869 18.5287 45.8206 18.6761 45.3843 18.7852C44.975 18.9083 44.5499 18.9714 44.1226 18.9727C43.141 18.9726 42.3147 18.7858 41.645 18.4121C40.9893 18.0377 40.46 17.4758 40.1255 16.7988C39.7829 16.113 39.6118 15.3262 39.6118 14.4375V4.22559H42.1597V7.19238ZM57.5913 6.88867C58.6367 6.8964 59.6645 7.16075 60.5835 7.65918C61.5027 8.14206 62.2269 8.91408 62.7563 9.97363L60.6294 11.1426C60.3021 10.5499 59.8729 10.0984 59.3442 9.78711C58.8295 9.47527 58.2466 9.31938 57.5923 9.31934C56.9523 9.31934 56.3678 9.48327 55.8384 9.81055C55.3217 10.1249 54.8951 10.5678 54.6001 11.0957C54.2882 11.6411 54.1323 12.2492 54.1323 12.9189C54.1324 13.5733 54.2882 14.1732 54.6001 14.7178C54.9114 15.2632 55.3242 15.7001 55.8384 16.0273C56.3678 16.3546 56.9528 16.5176 57.5913 16.5176C58.2458 16.5176 58.8301 16.3618 59.3442 16.0498C59.8743 15.7385 60.3022 15.2862 60.6294 14.6943L62.7563 15.8633C62.2269 16.9069 61.5027 17.6788 60.5835 18.1777C59.6645 18.6762 58.6368 18.9405 57.5913 18.9482C56.7888 18.9529 55.9935 18.7942 55.2544 18.4814C54.5333 18.1772 53.8751 17.7408 53.314 17.1953C52.7688 16.6344 52.3328 15.9766 52.0288 15.2559C51.7158 14.5168 51.5565 13.7216 51.561 12.9189C51.561 12.0775 51.7168 11.2981 52.0288 10.5811C52.3293 9.86535 52.7659 9.21475 53.314 8.66504C53.87 8.10733 54.5291 7.66227 55.2544 7.35547C55.9935 7.04269 56.7888 6.88393 57.5913 6.88867ZM67.5728 6.93555C68.3204 6.93555 68.9752 7.04452 69.5366 7.2627C70.1126 7.4656 70.6032 7.74595 71.0083 8.10449C71.3961 8.44139 71.7208 8.84463 71.9663 9.2959L70.0269 10.3945C69.8087 9.91177 69.4816 9.56914 69.0454 9.36621C68.625 9.16403 68.1498 9.0625 67.6196 9.0625C67.2925 9.0625 66.9884 9.12402 66.7085 9.24902C66.4468 9.34494 66.2137 9.50643 66.0308 9.7168C65.8592 9.90436 65.773 10.1374 65.7729 10.418C65.7729 10.7758 65.9295 11.0566 66.2407 11.2588C66.5679 11.4464 66.9728 11.6022 67.4556 11.7266C67.9545 11.8357 68.4772 11.9521 69.022 12.0771C69.5629 12.1952 70.0882 12.3758 70.5874 12.6152C71.0687 12.8349 71.4873 13.1724 71.8032 13.5967C72.116 14.0163 72.271 14.5938 72.271 15.3262C72.2709 16.0584 72.0604 16.6976 71.6401 17.2422C71.2191 17.7876 70.6585 18.2089 69.9575 18.5049C69.2565 18.8008 68.4926 18.9482 67.6665 18.9482C66.5611 18.9482 65.6026 18.7377 64.7925 18.3174C63.9977 17.8811 63.3665 17.2345 62.8989 16.3779L64.8384 15.3027C65.1344 15.8482 65.5007 16.2375 65.937 16.4717C66.3886 16.705 66.9265 16.8223 67.5503 16.8223C67.9303 16.8282 68.3089 16.7725 68.6714 16.6582C68.9986 16.5338 69.2557 16.3699 69.4419 16.167C69.6295 15.9488 69.7231 15.6841 69.7231 15.3721C69.7231 14.9832 69.5592 14.6954 69.2329 14.5078C68.921 14.321 68.5158 14.1735 68.0171 14.0645C67.5342 13.9554 67.0121 13.839 66.4507 13.7139C65.9138 13.592 65.3898 13.4194 64.8853 13.1992C64.4092 12.9711 63.9925 12.6353 63.6694 12.2178C63.3582 11.7814 63.2027 11.1972 63.2026 10.4648C63.2026 9.7952 63.3888 9.19512 63.7632 8.66504C64.1369 8.13569 64.6508 7.71458 65.3052 7.40332C65.9596 7.09136 66.7162 6.93559 67.5728 6.93555ZM50.4829 18.668H47.9116V7.62012C48.2924 7.87357 48.7403 8.00879 49.1978 8.00879C49.6551 8.00873 50.1022 7.87351 50.4829 7.62012V18.668ZM32.4009 9.31934C31.7151 9.31934 31.0987 9.48327 30.5532 9.81055C30.0286 10.1328 29.5943 10.583 29.2915 11.1191C28.9795 11.667 28.8185 12.2884 28.8247 12.9189C28.8248 13.5733 28.9803 14.1806 29.2915 14.7412C29.5944 15.2776 30.0291 15.7277 30.5542 16.0498C31.0997 16.3771 31.7151 16.541 32.4009 16.541C33.0859 16.541 33.6937 16.3771 34.2231 16.0498C34.7585 15.733 35.2021 15.2822 35.5093 14.7412C35.8196 14.1843 35.9804 13.5565 35.9761 12.9189C35.9825 12.2882 35.8215 11.6663 35.5093 11.1182C35.202 10.5773 34.7584 10.1264 34.2231 9.80957C33.6937 9.48234 33.0859 9.31936 32.4009 9.31934ZM49.1968 3.74219C49.5088 3.74219 49.7817 3.82068 50.0151 3.97559C50.2644 4.1166 50.4588 4.31104 50.5991 4.55957C50.7555 4.809 50.8335 5.09014 50.8335 5.40137C50.8335 5.69737 50.7555 5.97844 50.5991 6.24316C50.4595 6.49249 50.2645 6.69428 50.0151 6.85059C49.7669 6.99438 49.4836 7.06688 49.1968 7.06055C48.9009 7.0605 48.6206 6.99013 48.356 6.85059C48.1096 6.69737 47.9015 6.48972 47.7485 6.24316C47.6096 5.98447 47.5371 5.69499 47.5376 5.40137C47.5376 5.09014 47.6082 4.809 47.7485 4.55957C47.9041 4.31103 48.1074 4.11587 48.356 3.97559C48.6205 3.82017 48.9011 3.74224 49.1968 3.74219ZM74.5239 0.726562C75.9129 0.726707 76.9634 1.76611 76.9634 3.13184C76.9633 4.4982 75.9128 5.52525 74.5239 5.52539C73.1458 5.52539 72.0944 4.49833 72.0942 3.14355C72.0942 1.7661 73.1457 0.726562 74.5239 0.726562ZM74.5239 1.19336C73.4265 1.19336 72.6206 2.01119 72.6206 3.14355C72.6207 4.25251 73.4266 5.05859 74.5239 5.05859C75.6328 5.05845 76.4389 4.24074 76.439 3.13184C76.439 2.01121 75.6329 1.1935 74.5239 1.19336ZM74.6284 1.80078C75.2589 1.8008 75.6558 2.1398 75.6558 2.6416C75.6557 3.02699 75.422 3.30667 75.0366 3.41211L75.6675 4.46289H75.0952L74.5356 3.51758H74.1265V4.46289H73.6128V1.80078H74.6284ZM74.1265 3.08496H74.605C74.8966 3.08496 75.1186 2.92152 75.1187 2.6416C75.1187 2.37251 74.9083 2.23242 74.605 2.23242H74.1265V3.08496Z" fill="white"/>
</g>
</g>
<defs>
<clipPath id="clip0_2287_11735">
<rect width="77.0909" height="24" fill="white" transform="translate(0.45459)"/>
</clipPath>
</defs>
</svg>
