<svg width="62" height="51" viewBox="0 0 62 51" fill="none" xmlns="http://www.w3.org/2000/svg">
<g filter="url(#filter0_ddd_2287_11743)">
<g filter="url(#filter1_i_2287_11743)">
<path fill-rule="evenodd" clip-rule="evenodd" d="M31 10C24.9249 10 20 14.9249 20 21C20 27.0751 24.9249 32 31 32C37.0751 32 42 27.0751 42 21C42 14.9249 37.0751 10 31 10ZM36.2071 17.2929C36.5976 17.6834 36.5976 18.3166 36.2071 18.7071L30.2071 24.7071C29.8166 25.0976 29.1834 25.0976 28.7929 24.7071L26.2929 22.2071C25.9024 21.8166 25.9024 21.1834 26.2929 20.7929C26.6834 20.4024 27.3166 20.4024 27.7071 20.7929L29.5 22.5858L34.7929 17.2929C35.1834 16.9024 35.8166 16.9024 36.2071 17.2929Z" fill="url(#paint0_linear_2287_11743)"/>
</g>
</g>
<defs>
<filter id="filter0_ddd_2287_11743" x="-1" y="-1" width="64" height="64" filterUnits="userSpaceOnUse" color-interpolation-filters="sRGB">
<feFlood flood-opacity="0" result="BackgroundImageFix"/>
<feColorMatrix in="SourceAlpha" type="matrix" values="0 0 0 0 0 0 0 0 0 0 0 0 0 0 0 0 0 0 127 0" result="hardAlpha"/>
<feOffset dy="10"/>
<feGaussianBlur stdDeviation="10"/>
<feComposite in2="hardAlpha" operator="out"/>
<feColorMatrix type="matrix" values="0 0 0 0 0 0 0 0 0 0 0 0 0 0 0 0 0 0 0.08 0"/>
<feBlend mode="normal" in2="BackgroundImageFix" result="effect1_dropShadow_2287_11743"/>
<feColorMatrix in="SourceAlpha" type="matrix" values="0 0 0 0 0 0 0 0 0 0 0 0 0 0 0 0 0 0 127 0" result="hardAlpha"/>
<feOffset dy="5"/>
<feGaussianBlur stdDeviation="4"/>
<feComposite in2="hardAlpha" operator="out"/>
<feColorMatrix type="matrix" values="0 0 0 0 0 0 0 0 0 0 0 0 0 0 0 0 0 0 0.14 0"/>
<feBlend mode="normal" in2="effect1_dropShadow_2287_11743" result="effect2_dropShadow_2287_11743"/>
<feColorMatrix in="SourceAlpha" type="matrix" values="0 0 0 0 0 0 0 0 0 0 0 0 0 0 0 0 0 0 127 0" result="hardAlpha"/>
<feOffset dy="2"/>
<feGaussianBlur stdDeviation="1.5"/>
<feComposite in2="hardAlpha" operator="out"/>
<feColorMatrix type="matrix" values="0 0 0 0 0 0 0 0 0 0 0 0 0 0 0 0 0 0 0.12 0"/>
<feBlend mode="normal" in2="effect2_dropShadow_2287_11743" result="effect3_dropShadow_2287_11743"/>
<feBlend mode="normal" in="SourceGraphic" in2="effect3_dropShadow_2287_11743" result="shape"/>
</filter>
<filter id="filter1_i_2287_11743" x="20" y="10" width="22" height="23" filterUnits="userSpaceOnUse" color-interpolation-filters="sRGB">
<feFlood flood-opacity="0" result="BackgroundImageFix"/>
<feBlend mode="normal" in="SourceGraphic" in2="BackgroundImageFix" result="shape"/>
<feColorMatrix in="SourceAlpha" type="matrix" values="0 0 0 0 0 0 0 0 0 0 0 0 0 0 0 0 0 0 127 0" result="hardAlpha"/>
<feOffset dy="1"/>
<feGaussianBlur stdDeviation="1"/>
<feComposite in2="hardAlpha" operator="arithmetic" k2="-1" k3="1"/>
<feColorMatrix type="matrix" values="0 0 0 0 1 0 0 0 0 1 0 0 0 0 1 0 0 0 1 0"/>
<feBlend mode="normal" in2="shape" result="effect1_innerShadow_2287_11743"/>
</filter>
<linearGradient id="paint0_linear_2287_11743" x1="31" y1="14.8243" x2="31" y2="32" gradientUnits="userSpaceOnUse">
<stop stop-color="white"/>
<stop offset="1" stop-color="#96D5FA"/>
</linearGradient>
</defs>
</svg>
