<svg width="18" height="18" viewBox="0 0 18 18" fill="none" xmlns="http://www.w3.org/2000/svg">
<g clip-path="url(#clip0_2384_3667)">
<path fill-rule="evenodd" clip-rule="evenodd" d="M9 0.75C4.44365 0.75 0.75 4.44365 0.75 9C0.75 13.5563 4.44365 17.25 9 17.25C13.5563 17.25 17.25 13.5563 17.25 9C17.25 4.44365 13.5563 0.75 9 0.75ZM12.9053 6.21967C13.1982 6.51256 13.1982 6.98744 12.9053 7.28033L8.40533 11.7803C8.11244 12.0732 7.63756 12.0732 7.34467 11.7803L5.46967 9.90533C5.17678 9.61244 5.17678 9.13756 5.46967 8.84467C5.76256 8.55178 6.23744 8.55178 6.53033 8.84467L7.875 10.1893L11.8447 6.21967C12.1376 5.92678 12.6124 5.92678 12.9053 6.21967Z" fill="white"/>
</g>
<defs>
<clipPath id="clip0_2384_3667">
<rect width="18" height="18" fill="white"/>
</clipPath>
</defs>
</svg>
