<svg width="20" height="20" viewBox="0 0 20 20" fill="none" xmlns="http://www.w3.org/2000/svg">
<g clip-path="url(#clip0_2287_11695)">
<path fill-rule="evenodd" clip-rule="evenodd" d="M10 0.833496C4.9374 0.833496 0.833344 4.93755 0.833344 10.0002C0.833344 15.0628 4.9374 19.1668 10 19.1668C15.0626 19.1668 19.1667 15.0628 19.1667 10.0002C19.1667 4.93755 15.0626 0.833496 10 0.833496ZM10.8333 5.8335C10.8333 5.37326 10.4602 5.00016 10 5.00016C9.53977 5.00016 9.16668 5.37326 9.16668 5.8335V10.0002C9.16668 10.3075 9.33583 10.5899 9.60679 10.7349C9.87776 10.8799 10.2065 10.864 10.4623 10.6935L12.9623 9.02687C13.3452 8.77158 13.4487 8.25419 13.1934 7.87125C12.9381 7.4883 12.4207 7.38483 12.0378 7.64012L10.8333 8.44306V5.8335Z" fill="#242424"/>
</g>
<defs>
<clipPath id="clip0_2287_11695">
<rect width="20" height="20" fill="white"/>
</clipPath>
</defs>
</svg>
