<svg width="20" height="20" viewBox="0 0 20 20" fill="none" xmlns="http://www.w3.org/2000/svg">
<path d="M0.833344 5.8335C0.833344 4.45278 1.95263 3.3335 3.33334 3.3335H16.6667C18.0474 3.3335 19.1667 4.45278 19.1667 5.8335V7.50016H0.833344V5.8335Z" fill="#242424"/>
<path fill-rule="evenodd" clip-rule="evenodd" d="M0.833344 9.16683H19.1667V14.1668C19.1667 15.5475 18.0474 16.6668 16.6667 16.6668H3.33334C1.95263 16.6668 0.833344 15.5475 0.833344 14.1668V9.16683ZM5.00001 11.6668C4.53977 11.6668 4.16668 12.0399 4.16668 12.5002C4.16668 12.9604 4.53977 13.3335 5.00001 13.3335H7.50001C7.96025 13.3335 8.33334 12.9604 8.33334 12.5002C8.33334 12.0399 7.96025 11.6668 7.50001 11.6668H5.00001Z" fill="#242424"/>
</svg>
