<svg width="20" height="20" viewBox="0 0 20 20" fill="none" xmlns="http://www.w3.org/2000/svg">
<path fill-rule="evenodd" clip-rule="evenodd" d="M0.833344 10.0002C0.833344 4.93755 4.9374 0.833496 10 0.833496C15.0626 0.833496 19.1667 4.93755 19.1667 10.0002C19.1667 15.0628 15.0626 19.1668 10 19.1668C4.9374 19.1668 0.833344 15.0628 0.833344 10.0002ZM9.16668 7.91685C9.16669 7.17193 9.72871 6.66683 10.3965 6.66683C10.9068 6.66683 11.2108 6.83607 11.3714 7.10001C11.6107 7.49318 12.1234 7.61797 12.5165 7.37873C12.9097 7.13949 13.0345 6.62682 12.7952 6.23365C12.2364 5.31525 11.2767 5.00016 10.3965 5.00016C8.84946 5.00016 7.50005 6.21075 7.50001 7.91681C7.5 8.29999 7.57842 8.75341 7.65541 9.17596C7.66873 9.24908 7.68231 9.32267 7.69598 9.39681C7.71184 9.48277 7.72783 9.56947 7.74372 9.65703H6.66668C6.20644 9.65703 5.83334 10.0301 5.83334 10.4904C5.83334 10.9506 6.20644 11.3237 6.66668 11.3237H7.96516C8.01504 12.1775 7.93574 13.0318 7.57537 13.8205C7.45751 14.0785 7.47895 14.3787 7.63226 14.6173C7.78558 14.8559 8.04973 15.0002 8.33334 15.0002H13.3333C13.7936 15.0002 14.1667 14.6271 14.1667 14.1668C14.1667 13.7066 13.7936 13.3335 13.3333 13.3335H9.48374C9.63652 12.6422 9.66528 11.9594 9.63434 11.3237H11.0648C11.5251 11.3237 11.8982 10.9506 11.8982 10.4904C11.8982 10.0301 11.5251 9.65703 11.0648 9.65703H9.43636C9.40163 9.45504 9.36613 9.26284 9.3332 9.08451L9.333 9.08346C9.31988 9.01242 9.30717 8.94358 9.29508 8.8772C9.21281 8.42567 9.16667 8.12303 9.16668 7.91685Z" fill="#242424"/>
</svg>
