<svg width="20" height="20" viewBox="0 0 20 20" fill="none" xmlns="http://www.w3.org/2000/svg">
<g clip-path="url(#clip0_2287_11698)">
<path fill-rule="evenodd" clip-rule="evenodd" d="M11.518 1.32675C10.6129 0.669079 9.38715 0.669079 8.48197 1.32675L7.0652 2.35613C6.94825 2.44109 6.81286 2.49717 6.67009 2.51978L4.94039 2.79372C3.83529 2.96873 2.96858 3.83545 2.79356 4.94055L2.51963 6.67024C2.49702 6.81301 2.44094 6.9484 2.35597 7.06535L1.32659 8.48213C0.668926 9.3873 0.668926 10.613 1.3266 11.5182L2.35597 12.935C2.44094 13.0519 2.49702 13.1873 2.51963 13.3301L2.79356 15.0598C2.96858 16.1649 3.8353 17.0316 4.94039 17.2066L6.67009 17.4805C6.81286 17.5032 6.94825 17.5592 7.0652 17.6442L8.48197 18.6736C9.38715 19.3312 10.6129 19.3312 11.518 18.6736L12.9348 17.6442C13.0518 17.5592 13.1872 17.5032 13.3299 17.4805L15.0596 17.2066C16.1647 17.0316 17.0314 16.1649 17.2065 15.0598L17.4804 13.3301C17.503 13.1873 17.5591 13.0519 17.644 12.935L18.6734 11.5182C19.3311 10.613 19.3311 9.3873 18.6734 8.48212L17.644 7.06535C17.5591 6.94841 17.503 6.81301 17.4804 6.67024L17.2065 4.94055C17.0314 3.83545 16.1647 2.96873 15.0596 2.79372L13.3299 2.51978C13.1872 2.49717 13.0518 2.44109 12.9348 2.35613L11.518 1.32675ZM13.0893 8.92275C13.4147 8.59731 13.4147 8.06968 13.0893 7.74424C12.7638 7.4188 12.2362 7.4188 11.9108 7.74424L9.16668 10.4883L8.08927 9.41091C7.76383 9.08547 7.23619 9.08547 6.91075 9.41091C6.58532 9.73634 6.58532 10.264 6.91075 10.5894L8.57742 12.2561C8.90286 12.5815 9.4305 12.5815 9.75593 12.2561L13.0893 8.92275Z" fill="#242424"/>
</g>
<defs>
<clipPath id="clip0_2287_11698">
<rect width="20" height="20" fill="white"/>
</clipPath>
</defs>
</svg>
