<svg width="100" height="109" viewBox="0 0 100 109" fill="none" xmlns="http://www.w3.org/2000/svg">
<g filter="url(#filter0_dddd_2287_11662)">
<path d="M25.2315 25.6595C23.4468 17.0051 29.0158 8.54248 37.6703 6.75778L53.3406 3.5263C61.995 1.74161 70.4576 7.31065 72.2423 15.9651L75.4738 31.6354C77.2585 40.2898 71.6894 48.7524 63.035 50.5371L47.3647 53.7686C38.7103 55.5533 30.2477 49.9843 28.463 41.3298L25.2315 25.6595Z" fill="url(#paint0_linear_2287_11662)"/>
<g filter="url(#filter1_d_2287_11662)">
<path d="M49.1814 18.3242C48.96 17.9691 48.5409 17.7896 48.131 17.8741C47.7212 17.9586 47.4074 18.2893 47.3444 18.703L47.142 20.033C46.5711 23.7839 44.39 27.0983 41.1709 29.1065L40.0295 29.8186C39.6744 30.0401 39.4949 30.4592 39.5794 30.869C39.6639 31.2788 39.9946 31.5927 40.4083 31.6557L41.7383 31.8581C45.4892 32.429 48.8036 34.6101 50.8118 37.8292L51.5239 38.9706C51.7454 39.3256 52.1645 39.5052 52.5743 39.4207C52.9841 39.3362 53.298 39.0054 53.361 38.5918L53.5634 37.2618C54.1343 33.5108 56.3154 30.1965 59.5345 28.1882L60.6759 27.4761C61.0309 27.2547 61.2105 26.8356 61.126 26.4257C61.0415 26.0159 60.7108 25.7021 60.2971 25.6391L58.9671 25.4367C55.2161 24.8658 51.9018 22.6847 49.8935 19.4656L49.1814 18.3242Z" fill="white"/>
</g>
</g>
<defs>
<filter id="filter0_dddd_2287_11662" x="-2" y="-0.705078" width="104.705" height="111.705" filterUnits="userSpaceOnUse" color-interpolation-filters="sRGB">
<feFlood flood-opacity="0" result="BackgroundImageFix"/>
<feColorMatrix in="SourceAlpha" type="matrix" values="0 0 0 0 0 0 0 0 0 0 0 0 0 0 0 0 0 0 127 0" result="hardAlpha"/>
<feMorphology radius="6" operator="erode" in="SourceAlpha" result="effect1_dropShadow_2287_11662"/>
<feOffset dy="30"/>
<feGaussianBlur stdDeviation="15"/>
<feComposite in2="hardAlpha" operator="out"/>
<feColorMatrix type="matrix" values="0 0 0 0 0 0 0 0 0 0 0 0 0 0 0 0 0 0 0.08 0"/>
<feBlend mode="normal" in2="BackgroundImageFix" result="effect1_dropShadow_2287_11662"/>
<feColorMatrix in="SourceAlpha" type="matrix" values="0 0 0 0 0 0 0 0 0 0 0 0 0 0 0 0 0 0 127 0" result="hardAlpha"/>
<feMorphology radius="5" operator="erode" in="SourceAlpha" result="effect2_dropShadow_2287_11662"/>
<feOffset dy="14"/>
<feGaussianBlur stdDeviation="10"/>
<feComposite in2="hardAlpha" operator="out"/>
<feColorMatrix type="matrix" values="0 0 0 0 0 0 0 0 0 0 0 0 0 0 0 0 0 0 0.08 0"/>
<feBlend mode="normal" in2="effect1_dropShadow_2287_11662" result="effect2_dropShadow_2287_11662"/>
<feColorMatrix in="SourceAlpha" type="matrix" values="0 0 0 0 0 0 0 0 0 0 0 0 0 0 0 0 0 0 127 0" result="hardAlpha"/>
<feMorphology radius="1" operator="erode" in="SourceAlpha" result="effect3_dropShadow_2287_11662"/>
<feOffset dy="2"/>
<feGaussianBlur stdDeviation="2"/>
<feComposite in2="hardAlpha" operator="out"/>
<feColorMatrix type="matrix" values="0 0 0 0 0.0431373 0 0 0 0 0.12549 0 0 0 0 0.403922 0 0 0 0.14 0"/>
<feBlend mode="normal" in2="effect2_dropShadow_2287_11662" result="effect3_dropShadow_2287_11662"/>
<feColorMatrix in="SourceAlpha" type="matrix" values="0 0 0 0 0 0 0 0 0 0 0 0 0 0 0 0 0 0 127 0" result="hardAlpha"/>
<feMorphology radius="2" operator="erode" in="SourceAlpha" result="effect4_dropShadow_2287_11662"/>
<feOffset dy="8"/>
<feGaussianBlur stdDeviation="4"/>
<feComposite in2="hardAlpha" operator="out"/>
<feColorMatrix type="matrix" values="0 0 0 0 0.0431373 0 0 0 0 0.12549 0 0 0 0 0.403922 0 0 0 0.05 0"/>
<feBlend mode="normal" in2="effect3_dropShadow_2287_11662" result="effect4_dropShadow_2287_11662"/>
<feBlend mode="normal" in="SourceGraphic" in2="effect4_dropShadow_2287_11662" result="shape"/>
</filter>
<filter id="filter1_d_2287_11662" x="30.1764" y="14.4712" width="40.3526" height="40.3525" filterUnits="userSpaceOnUse" color-interpolation-filters="sRGB">
<feFlood flood-opacity="0" result="BackgroundImageFix"/>
<feColorMatrix in="SourceAlpha" type="matrix" values="0 0 0 0 0 0 0 0 0 0 0 0 0 0 0 0 0 0 127 0" result="hardAlpha"/>
<feOffset dy="6"/>
<feGaussianBlur stdDeviation="3"/>
<feComposite in2="hardAlpha" operator="out"/>
<feColorMatrix type="matrix" values="0 0 0 0 0 0 0 0 0 0 0 0 0 0 0 0 0 0 0.2 0"/>
<feBlend mode="normal" in2="BackgroundImageFix" result="effect1_dropShadow_2287_11662"/>
<feBlend mode="normal" in="SourceGraphic" in2="effect1_dropShadow_2287_11662" result="shape"/>
</filter>
<linearGradient id="paint0_linear_2287_11662" x1="49.9669" y1="22.6048" x2="38.9659" y2="56.536" gradientUnits="userSpaceOnUse">
<stop stop-color="#2FCDFE"/>
<stop offset="1" stop-color="#5350FA"/>
</linearGradient>
</defs>
</svg>
