<svg width="22" height="22" viewBox="0 0 22 22" fill="none" xmlns="http://www.w3.org/2000/svg">
<path d="M5.15656 16.8279C7.79536 19.4741 11.883 20.0171 15.1211 18.1514C18.3592 16.2858 19.9397 12.4772 18.9739 8.86707C18.0081 5.25693 14.7371 2.7462 11 2.74658" stroke="#E47819" stroke-width="1.5" stroke-linecap="round" stroke-linejoin="round"/>
<path d="M3.4169 14.0953C3.39157 14.0953 3.37105 14.1158 3.37105 14.1411C3.37105 14.1665 3.39157 14.187 3.4169 14.187C3.43328 14.187 3.44842 14.1783 3.45661 14.1641C3.4648 14.1499 3.4648 14.1324 3.45661 14.1182C3.44842 14.104 3.43328 14.0953 3.4169 14.0953" stroke="#E47819" stroke-width="1.5" stroke-linecap="round" stroke-linejoin="round"/>
<path d="M2.79239 10.9542C2.76706 10.9542 2.74653 10.9747 2.74653 11C2.74653 11.0254 2.76706 11.0459 2.79239 11.0459C2.81771 11.0459 2.83824 11.0254 2.83824 11C2.83824 10.9747 2.81771 10.9542 2.79239 10.9542" stroke="#E47819" stroke-width="1.5" stroke-linecap="round" stroke-linejoin="round"/>
<path d="M3.4169 7.81355C3.40474 7.81355 3.39307 7.81838 3.38448 7.82698C3.37588 7.83558 3.37105 7.84724 3.37105 7.8594C3.37105 7.88473 3.39157 7.90526 3.4169 7.90526C3.43328 7.90526 3.44842 7.89652 3.45661 7.88233C3.4648 7.86814 3.4648 7.85066 3.45661 7.83648C3.44842 7.82229 3.43328 7.81355 3.4169 7.81355" stroke="#E47819" stroke-width="1.5" stroke-linecap="round" stroke-linejoin="round"/>
<path d="M5.19601 5.15046C5.17089 5.15095 5.15065 5.1712 5.15016 5.19632C5.15016 5.22164 5.17069 5.24217 5.19601 5.24217C5.22134 5.24217 5.24186 5.22164 5.24186 5.19632C5.24186 5.17099 5.22134 5.15046 5.19601 5.15046" stroke="#E47819" stroke-width="1.5" stroke-linecap="round" stroke-linejoin="round"/>
<path d="M7.8591 3.37117C7.83377 3.37117 7.81325 3.3917 7.81325 3.41702C7.81325 3.44234 7.83377 3.46287 7.8591 3.46287C7.88442 3.46287 7.90495 3.44234 7.90495 3.41702C7.90495 3.3917 7.88442 3.37117 7.8591 3.37117" stroke="#E47819" stroke-width="1.5" stroke-linecap="round" stroke-linejoin="round"/>
<path fill-rule="evenodd" clip-rule="evenodd" d="M7.61334 12.3492V9.65404C7.61405 9.31005 7.79924 8.99288 8.09846 8.82319L10.5332 7.45496C10.823 7.29171 11.177 7.29171 11.4668 7.45496L13.9015 8.82319C14.2012 8.99246 14.3865 9.3099 14.3867 9.65404V12.3492C14.3846 12.6914 14.1995 13.0063 13.9015 13.1746L11.4659 14.5428C11.1759 14.7052 10.8223 14.7052 10.5323 14.5428L8.09754 13.1783C7.79854 13.0094 7.61356 12.6926 7.61334 12.3492V12.3492Z" stroke="#E47819" stroke-width="1.5" stroke-linecap="round" stroke-linejoin="round"/>
<path d="M11 11V14.6682" stroke="#E47819" stroke-width="1.5" stroke-linecap="round" stroke-linejoin="round"/>
<path d="M7.74353 9.1723L11 11L14.2564 9.17139" stroke="#E47819" stroke-width="1.5" stroke-linecap="round" stroke-linejoin="round"/>
</svg>
