<svg width="22" height="22" viewBox="0 0 22 22" fill="none" xmlns="http://www.w3.org/2000/svg">
<path d="M7.33331 14.6668L14.6666 7.3335" stroke="#E47819" stroke-width="1.5" stroke-linecap="round" stroke-linejoin="round"/>
<path fill-rule="evenodd" clip-rule="evenodd" d="M6.52758 18.4443L3.55483 15.4715C3.03967 14.9563 2.75 14.2569 2.75 13.5273V8.47275C2.75 7.74308 3.03967 7.04367 3.55575 6.5285L6.5285 3.55575C7.04367 3.03967 7.74308 2.75 8.47275 2.75H13.5273C14.2569 2.75 14.9563 3.03967 15.4715 3.55575L18.4452 6.52942C18.9603 7.04458 19.25 7.744 19.25 8.47367V13.5273C19.25 14.2569 18.9603 14.9554 18.4452 15.4715L15.4724 18.4452C14.9563 18.9603 14.2569 19.25 13.5273 19.25H8.47275C7.74308 19.25 7.04367 18.9603 6.52758 18.4443V18.4443Z" stroke="#E47819" stroke-width="1.5" stroke-linecap="round" stroke-linejoin="round"/>
</svg>
