<svg width="22" height="22" viewBox="0 0 22 22" fill="none" xmlns="http://www.w3.org/2000/svg">
<path d="M8.24999 2.75V6.41667C8.24999 6.92293 7.83958 7.33333 7.33332 7.33333H3.66666" stroke="#0063E4" stroke-width="1.5" stroke-linecap="round" stroke-linejoin="round"/>
<path d="M7.33332 19.25H5.49999C4.48747 19.25 3.66666 18.4292 3.66666 17.4167V7.17567C3.66676 6.68948 3.85998 6.22324 4.20382 5.8795L6.79616 3.28717C7.13989 2.94333 7.60613 2.7501 8.09232 2.75H15.5833C16.5958 2.75 17.4167 3.57081 17.4167 4.58333V9.16667" stroke="#0063E4" stroke-width="1.5" stroke-linecap="round" stroke-linejoin="round"/>
<path fill-rule="evenodd" clip-rule="evenodd" d="M10.0833 13.7498V17.4165C10.0833 18.429 10.9042 19.2498 11.9167 19.2498H17.4167C18.4292 19.2498 19.25 18.429 19.25 17.4165V13.7498C19.25 12.7373 18.4292 11.9165 17.4167 11.9165H11.9167C10.9042 11.9165 10.0833 12.7373 10.0833 13.7498Z" stroke="#0063E4" stroke-width="1.5" stroke-linecap="round" stroke-linejoin="round"/>
<path d="M19.25 14.6668H10.0833" stroke="#0063E4" stroke-width="1.5" stroke-linecap="round" stroke-linejoin="round"/>
</svg>
