<svg width="22" height="22" viewBox="0 0 22 22" fill="none" xmlns="http://www.w3.org/2000/svg">
<path fill-rule="evenodd" clip-rule="evenodd" d="M15.5962 15.8533L14.3931 18.6603C14.2378 19.0223 13.8807 19.2558 13.4869 19.253C13.0931 19.2502 12.7394 19.0116 12.5892 18.6475L9.24201 10.5197C9.09152 10.1544 9.17547 9.73445 9.45483 9.45508C9.7342 9.17571 10.1542 9.09176 10.5195 9.24226L18.6473 12.5895C19.0113 12.7396 19.25 13.0933 19.2528 13.4871C19.2556 13.8809 19.022 14.238 18.6601 14.3933L15.853 15.5965C15.7376 15.6458 15.6456 15.7378 15.5962 15.8533V15.8533Z" stroke="#25B2EF" stroke-width="1.5" stroke-linecap="round" stroke-linejoin="round"/>
<path d="M5.83059 14.0557L4.80258 15.0837" stroke="#25B2EF" stroke-width="1.5" stroke-linecap="round" stroke-linejoin="round"/>
<path d="M9.94357 2.74658V4.2001" stroke="#25B2EF" stroke-width="1.5" stroke-linecap="round" stroke-linejoin="round"/>
<path d="M4.80258 4.80273L5.83059 5.83075" stroke="#25B2EF" stroke-width="1.5" stroke-linecap="round" stroke-linejoin="round"/>
<path d="M2.74655 9.94388H4.20007" stroke="#25B2EF" stroke-width="1.5" stroke-linecap="round" stroke-linejoin="round"/>
<path d="M15.0836 4.80273L14.0556 5.83075" stroke="#25B2EF" stroke-width="1.5" stroke-linecap="round" stroke-linejoin="round"/>
</svg>
