<svg width="22" height="22" viewBox="0 0 22 22" fill="none" xmlns="http://www.w3.org/2000/svg">
<path d="M12.2733 9.72667C14.2422 11.6956 14.2422 14.8878 12.2733 16.8567C10.3045 18.8255 7.11224 18.8255 5.14335 16.8567C3.17446 14.8878 3.17446 11.6956 5.14335 9.72667C7.11224 7.75778 10.3045 7.75778 12.2733 9.72667" stroke="#D019E4" stroke-width="1.5" stroke-linecap="round" stroke-linejoin="round"/>
<path d="M16.8567 5.14317C18.8255 7.11206 18.8255 10.3043 16.8567 12.2732C14.8878 14.2421 11.6956 14.2421 9.72667 12.2732C7.75778 10.3043 7.75778 7.11206 9.72667 5.14317C11.6956 3.17428 14.8878 3.17428 16.8567 5.14317" stroke="#D019E4" stroke-width="1.5" stroke-linecap="round" stroke-linejoin="round"/>
<path d="M7.33331 3.6665H5.49998C3.47506 3.6665 1.83331 5.30825 1.83331 7.33317" stroke="#D019E4" stroke-width="1.5" stroke-linecap="round" stroke-linejoin="round"/>
<path d="M5.5 1.8335L7.33333 3.66683L5.5 5.50016" stroke="#D019E4" stroke-width="1.5" stroke-linecap="round" stroke-linejoin="round"/>
<path d="M14.6667 18.3332H16.5C18.5249 18.3332 20.1667 16.6914 20.1667 14.6665" stroke="#D019E4" stroke-width="1.5" stroke-linecap="round" stroke-linejoin="round"/>
<path d="M16.5 20.1667L14.6667 18.3333L16.5 16.5" stroke="#D019E4" stroke-width="1.5" stroke-linecap="round" stroke-linejoin="round"/>
</svg>
