<svg width="22" height="22" viewBox="0 0 22 22" fill="none" xmlns="http://www.w3.org/2000/svg">
<path fill-rule="evenodd" clip-rule="evenodd" d="M17.8283 18.6963L16.9208 19.1524C16.6637 19.2816 16.3608 19.2826 16.1028 19.155L14.6614 18.4422L13.2489 19.1518C12.991 19.2813 12.6872 19.2819 12.4289 19.1533L11 18.4419L9.57116 19.1533C9.31282 19.2819 9.00901 19.2813 8.75114 19.1518L7.33865 18.4422L5.89721 19.155C5.63927 19.2826 5.3364 19.2816 5.07929 19.1524L4.17179 18.6963C3.86213 18.5407 3.66669 18.2238 3.66669 17.8773V4.12272C3.66669 3.77618 3.86212 3.45926 4.17177 3.30366L5.07927 2.8476C5.33639 2.7184 5.63925 2.71742 5.89719 2.84497L7.33863 3.55776L8.75113 2.8482C9.00899 2.71866 9.3128 2.71811 9.57114 2.84672L11 3.55805L12.4289 2.84672C12.6872 2.71811 12.991 2.71866 13.2489 2.8482L14.6614 3.55776L16.1028 2.84497C16.3608 2.71742 16.6636 2.7184 16.9208 2.8476L17.8283 3.30366C18.1379 3.45926 18.3333 3.77618 18.3334 4.12272V17.8773C18.3333 18.2238 18.1379 18.5407 17.8283 18.6963Z" stroke="#0063E4" stroke-width="1.5" stroke-linecap="round" stroke-linejoin="round"/>
<path d="M14.6666 8.24984H7.33331" stroke="#0063E4" stroke-width="1.5" stroke-linecap="round" stroke-linejoin="round"/>
<path d="M14.6666 10.9998H7.33331" stroke="#0063E4" stroke-width="1.5" stroke-linecap="round" stroke-linejoin="round"/>
<path d="M11.9166 13.7498H7.33331" stroke="#0063E4" stroke-width="1.5" stroke-linecap="round" stroke-linejoin="round"/>
</svg>
