<svg width="22" height="22" viewBox="0 0 22 22" fill="none" xmlns="http://www.w3.org/2000/svg">
<path d="M16.8337 5.16637C20.0555 8.3882 20.0555 13.6118 16.8337 16.8336C13.6118 20.0554 8.38824 20.0554 5.16643 16.8336C1.9446 13.6118 1.9446 8.38818 5.16643 5.16637C8.38826 1.94454 13.6119 1.94454 16.8337 5.16637" stroke="#782EFA" stroke-width="1.5" stroke-linecap="round" stroke-linejoin="round"/>
<path d="M12.375 13.2917C10.6031 13.2917 9.16669 11.8553 9.16669 10.0833C9.16669 8.31142 10.6031 6.875 12.375 6.875C14.1479 6.875 15.5834 8.31142 15.5834 10.0833C15.5834 11.8553 14.1479 13.2917 12.375 13.2917" stroke="#782EFA" stroke-width="1.5" stroke-linecap="round" stroke-linejoin="round"/>
<path d="M9.46919 8.72461C7.77152 8.80711 6.41669 10.1986 6.41669 11.9164C6.41669 13.6884 7.8531 15.1248 9.62502 15.1248C10.9056 15.1248 12.0019 14.3694 12.5171 13.2841" stroke="#782EFA" stroke-width="1.5" stroke-linecap="round" stroke-linejoin="round"/>
</svg>
