<svg width="22" height="22" viewBox="0 0 22 22" fill="none" xmlns="http://www.w3.org/2000/svg">
<path fill-rule="evenodd" clip-rule="evenodd" d="M15.0874 19.645L13.2577 13.8003C13.0643 13.1834 13.6959 12.6316 14.2816 12.9048L19.7386 15.4513C20.3857 15.7528 20.2766 16.7043 19.5781 16.8519L17.3314 17.3277L16.4972 19.6716C16.258 20.3444 15.3001 20.3261 15.0874 19.645V19.645Z" stroke="#739D12" stroke-width="1.5" stroke-linecap="round" stroke-linejoin="round"/>
<path d="M18.3333 10.0834H14.509C13.0771 10.0834 11.9166 8.92287 11.9166 7.49104V7.49104C11.9166 6.80354 12.1898 6.14354 12.6756 5.6577L14.9251 3.4082" stroke="#739D12" stroke-width="1.5" stroke-linecap="round" stroke-linejoin="round"/>
<path d="M4.31566 15.985L5.94458 13.5421C6.23975 13.0993 6.73566 12.8335 7.26733 12.8335V12.8335C7.86958 12.8335 8.41958 12.4934 8.68908 11.9544L8.811 11.7106C9.03466 11.2632 9.03466 10.7362 8.811 10.2888L7.77241 8.21258C7.50383 7.67358 6.95291 7.3335 6.35066 7.3335H2.31" stroke="#739D12" stroke-width="1.5" stroke-linecap="round" stroke-linejoin="round"/>
<path d="M10.0833 1.8335C5.51648 1.8335 1.83331 5.51666 1.83331 10.0835C1.83331 14.6503 5.51648 18.3335 10.0833 18.3335" stroke="#739D12" stroke-width="1.5" stroke-linecap="round" stroke-linejoin="round"/>
<path d="M18.3333 10.0835C18.3333 5.51666 14.6501 1.8335 10.0833 1.8335" stroke="#739D12" stroke-width="1.5" stroke-linecap="round" stroke-linejoin="round"/>
</svg>
