<svg width="22" height="22" viewBox="0 0 22 22" fill="none" xmlns="http://www.w3.org/2000/svg">
<path fill-rule="evenodd" clip-rule="evenodd" d="M8.45624 5.91436V5.91436C8.45624 4.51002 9.59474 3.37061 11 3.37061V3.37061C12.4043 3.37061 13.5437 4.50911 13.5437 5.91436V5.91436C13.5437 7.31869 12.4052 8.45811 11 8.45811V8.45811C9.59474 8.45627 8.45624 7.31777 8.45624 5.91436Z" stroke="#FA2561" stroke-width="1.5" stroke-linecap="round" stroke-linejoin="round"/>
<path fill-rule="evenodd" clip-rule="evenodd" d="M2.29169 16.0857V16.0857C2.29169 14.6814 3.43019 13.542 4.83544 13.542V13.542C6.23977 13.542 7.37919 14.6805 7.37919 16.0857V16.0857C7.37827 17.4901 6.24069 18.6295 4.83544 18.6295V18.6295C3.43019 18.6295 2.29169 17.491 2.29169 16.0857Z" stroke="#FA2561" stroke-width="1.5" stroke-linecap="round" stroke-linejoin="round"/>
<path fill-rule="evenodd" clip-rule="evenodd" d="M14.6218 16.0857V16.0857C14.6218 14.6814 15.7603 13.542 17.1655 13.542V13.542C18.5698 13.542 19.7093 14.6805 19.7093 16.0857V16.0857C19.7093 17.4901 18.5708 18.6295 17.1655 18.6295V18.6295C15.7593 18.6295 14.6218 17.491 14.6218 16.0857H14.6218Z" stroke="#FA2561" stroke-width="1.5" stroke-linecap="round" stroke-linejoin="round"/>
<path d="M7.7825 10.9268L5.94 13.8051" stroke="#FA2561" stroke-width="1.5" stroke-linecap="round" stroke-linejoin="round"/>
<path d="M12.375 8.04834L14.2175 10.9267" stroke="#FA2561" stroke-width="1.5" stroke-linecap="round" stroke-linejoin="round"/>
<path d="M14.6208 16.0877H11" stroke="#FA2561" stroke-width="1.5" stroke-linecap="round" stroke-linejoin="round"/>
</svg>
