<svg width="22" height="22" viewBox="0 0 22 22" fill="none" xmlns="http://www.w3.org/2000/svg">
<path d="M2.75 7.33333H19.25" stroke="#782EFA" stroke-width="1.5" stroke-linecap="round" stroke-linejoin="round"/>
<path d="M8.70832 10.9998H6.41666" stroke="#782EFA" stroke-width="1.5" stroke-linecap="round" stroke-linejoin="round"/>
<path d="M8.25 16.4998H5.5C3.98108 16.4998 2.75 15.2688 2.75 13.7498V6.4165C2.75 4.89759 3.98108 3.6665 5.5 3.6665H16.5C18.0189 3.6665 19.25 4.89759 19.25 6.4165V10.0832" stroke="#782EFA" stroke-width="1.5" stroke-linecap="round" stroke-linejoin="round"/>
<path fill-rule="evenodd" clip-rule="evenodd" d="M11.9928 18.1197L11.8608 17.1251C11.8608 17.1251 11.8608 17.1251 11.8608 17.1242L11.2512 16.3267C10.9157 15.8876 10.9157 15.2781 11.2512 14.839L11.8608 14.0415C11.8608 14.0415 11.8608 14.0415 11.8608 14.0406L11.9937 13.0451C12.067 12.4969 12.4978 12.0661 13.046 11.9927L14.0406 11.8607C14.0406 11.8607 14.0406 11.8607 14.0415 11.8607L14.839 11.2511C15.2781 10.9156 15.8877 10.9156 16.3268 11.2511L17.1243 11.8607C17.1243 11.8607 17.1243 11.8607 17.1252 11.8607L18.1207 11.9936C18.6688 12.067 19.0997 12.4978 19.173 13.046L19.305 14.0406C19.305 14.0406 19.305 14.0406 19.305 14.0415L19.9146 14.839C20.2501 15.2781 20.2501 15.8876 19.9146 16.3267L19.305 17.1242C19.305 17.1242 19.305 17.1242 19.305 17.1251L19.1721 18.1206C19.0987 18.6688 18.6679 19.0996 18.1198 19.173L17.1252 19.305C17.1252 19.305 17.1252 19.305 17.1243 19.305L16.3268 19.9146C15.8877 20.2501 15.2781 20.2501 14.839 19.9146L14.0415 19.305C14.0415 19.305 14.0415 19.305 14.0406 19.305L13.0451 19.1721C12.4978 19.1006 12.0661 18.6679 11.9928 18.1197V18.1197Z" stroke="#782EFA" stroke-width="1.5" stroke-linecap="round" stroke-linejoin="round"/>
<path d="M17.0097 14.8701L15.2268 16.653L14.157 15.5833" stroke="#782EFA" stroke-width="1.5" stroke-linecap="round" stroke-linejoin="round"/>
</svg>
