<svg width="20" height="20" viewBox="0 0 20 20" fill="none" xmlns="http://www.w3.org/2000/svg">
<path fill-rule="evenodd" clip-rule="evenodd" d="M10 0.833496C4.9374 0.833496 0.833344 4.93755 0.833344 10.0002C0.833344 15.0628 4.9374 19.1668 10 19.1668C15.0626 19.1668 19.1667 15.0628 19.1667 10.0002C19.1667 4.93755 15.0626 0.833496 10 0.833496ZM10.2111 6.68879C9.8232 6.62225 9.42424 6.69515 9.0849 6.89458C8.74557 7.09401 8.48776 7.4071 8.35715 7.7784C8.20442 8.21255 7.72866 8.4407 7.2945 8.28797C6.86034 8.13524 6.6322 7.65948 6.78493 7.22532C7.04615 6.48273 7.56176 5.85655 8.24043 5.45769C8.9191 5.05883 9.71703 4.91303 10.4929 5.04611C11.2688 5.1792 11.9725 5.58257 12.4795 6.1848C12.9863 6.7869 13.2638 7.54892 13.2627 8.33595C13.2623 9.61125 12.3168 10.4534 11.6416 10.9036C11.2786 11.1456 10.9215 11.3235 10.6584 11.4405C10.5257 11.4994 10.414 11.5442 10.3335 11.5749C10.2931 11.5902 10.2604 11.6021 10.2366 11.6106L10.2077 11.6207L10.1985 11.6239L10.1952 11.625L10.1939 11.6254C10.1939 11.6254 10.1929 11.6258 9.92937 10.8352L10.1929 11.6258C9.75627 11.7713 9.28434 11.5353 9.1388 11.0987C8.99336 10.6624 9.22891 10.1908 9.66498 10.0449L9.67827 10.0402C9.69109 10.0357 9.7121 10.0281 9.74013 10.0174C9.79632 9.99598 9.87988 9.96262 9.98155 9.91743C10.1872 9.82601 10.4551 9.69147 10.7171 9.51682C11.2918 9.13371 11.596 8.72614 11.596 8.33519L11.596 8.33395C11.5966 7.94035 11.4579 7.55925 11.2044 7.25813C10.9509 6.95702 10.5991 6.75533 10.2111 6.68879ZM9.16273 14.1685C9.16273 13.7083 9.53583 13.3352 9.99607 13.3352H10.0044C10.4646 13.3352 10.8377 13.7083 10.8377 14.1685C10.8377 14.6287 10.4646 15.0018 10.0044 15.0018H9.99607C9.53583 15.0018 9.16273 14.6287 9.16273 14.1685Z" fill="#242424"/>
</svg>
