<svg width="20" height="20" viewBox="0 0 20 20" fill="none" xmlns="http://www.w3.org/2000/svg">
<path fill-rule="evenodd" clip-rule="evenodd" d="M5.00001 5.8335V8.09045C3.96274 9.26568 3.33334 10.8094 3.33334 12.5002C3.33334 16.1821 6.31811 19.1668 10 19.1668C13.6819 19.1668 16.6667 16.1821 16.6667 12.5002C16.6667 10.8094 16.0373 9.26568 15 8.09045V5.8335C15 4.50741 14.4732 3.23564 13.5355 2.29796C12.5979 1.36028 11.3261 0.833496 10 0.833496C8.67393 0.833496 7.40216 1.36028 6.46448 2.29796C5.52679 3.23564 5.00001 4.50741 5.00001 5.8335ZM10 2.50016C9.11596 2.50016 8.26811 2.85135 7.64299 3.47647C7.01787 4.10159 6.66668 4.94944 6.66668 5.8335V6.72538C7.64725 6.15814 8.78572 5.8335 10 5.8335C11.2143 5.8335 12.3528 6.15814 13.3333 6.72538V5.8335C13.3333 4.94944 12.9822 4.10159 12.357 3.47647C11.7319 2.85135 10.8841 2.50016 10 2.50016ZM10.8333 11.6668C10.8333 11.2066 10.4602 10.8335 10 10.8335C9.53977 10.8335 9.16668 11.2066 9.16668 11.6668V13.3335C9.16668 13.7937 9.53977 14.1668 10 14.1668C10.4602 14.1668 10.8333 13.7937 10.8333 13.3335V11.6668Z" fill="#242424"/>
</svg>
