<svg width="20" height="20" viewBox="0 0 20 20" fill="none" xmlns="http://www.w3.org/2000/svg">
<g clip-path="url(#clip0_2287_11677)">
<path fill-rule="evenodd" clip-rule="evenodd" d="M0.837373 9.08498C1.29429 4.45564 5.17759 0.833496 9.91001 0.833496C13.0165 0.833496 15.7571 2.39519 17.4022 4.77511V1.66683C17.4022 1.20659 17.7753 0.833496 18.2355 0.833496C18.6958 0.833496 19.0689 1.20659 19.0689 1.66683V6.66683C19.0689 7.12707 18.6958 7.50016 18.2355 7.50016H17.5189C17.5066 7.50043 17.4944 7.50043 17.4822 7.50016H13.265C12.8047 7.50016 12.4317 7.12707 12.4317 6.66683C12.4317 6.20659 12.8047 5.8335 13.265 5.8335H16.1064C14.7682 3.82114 12.4908 2.50016 9.91001 2.50016C6.0511 2.50016 2.87034 5.45581 2.49598 9.24868C2.45077 9.70669 2.04284 10.0413 1.58482 9.99613C1.12681 9.95093 0.792167 9.54299 0.837373 9.08498ZM18.4152 10.0042C18.8732 10.0494 19.2079 10.4573 19.1626 10.9153C18.7057 15.5447 14.8224 19.1668 10.09 19.1668C6.92114 19.1668 4.13298 17.5418 2.50001 15.0808V18.3335C2.50001 18.7937 2.12691 19.1668 1.66668 19.1668C1.20644 19.1668 0.833344 18.7937 0.833344 18.3335V13.3335C0.833344 12.8733 1.20644 12.5002 1.66668 12.5002H2.48115C2.49341 12.4999 2.50565 12.4999 2.51787 12.5002H6.63722C7.09746 12.5002 7.47055 12.8733 7.47055 13.3335C7.47055 13.7937 7.09746 14.1668 6.63722 14.1668H3.89362C5.2318 16.1792 7.50924 17.5002 10.09 17.5002C13.9489 17.5002 17.1297 14.5445 17.504 10.7516C17.5492 10.2936 17.9572 9.95899 18.4152 10.0042Z" fill="#242424"/>
</g>
<defs>
<clipPath id="clip0_2287_11677">
<rect width="20" height="20" fill="white"/>
</clipPath>
</defs>
</svg>
