<svg width="20" height="20" viewBox="0 0 20 20" fill="none" xmlns="http://www.w3.org/2000/svg">
<path fill-rule="evenodd" clip-rule="evenodd" d="M6.36576 1.6665C4.70548 1.6665 3.30609 2.89752 3.07908 4.54196L1.69864 14.542C1.42282 16.54 2.96575 18.3332 4.98532 18.3332H15.0148C17.0344 18.3332 18.5773 16.54 18.3015 14.542L16.9211 4.54196C16.6941 2.89752 15.2947 1.6665 13.6344 1.6665H6.36576ZM7.52034 6.6665C7.52034 6.20627 7.14724 5.83317 6.687 5.83317C6.22676 5.83317 5.85367 6.20627 5.85367 6.6665C5.85367 8.96289 7.70529 10.8332 10.0001 10.8332C12.2948 10.8332 14.1465 8.96289 14.1465 6.6665C14.1465 6.20627 13.7734 5.83317 13.3131 5.83317C12.8529 5.83317 12.4798 6.20627 12.4798 6.6665C12.4798 8.05202 11.3648 9.1665 10.0001 9.1665C8.63533 9.1665 7.52034 8.05202 7.52034 6.6665Z" fill="#242424"/>
</svg>
