<svg width="20" height="20" viewBox="0 0 20 20" fill="none" xmlns="http://www.w3.org/2000/svg">
<path fill-rule="evenodd" clip-rule="evenodd" d="M2.97912 2.50737C2.8914 2.50051 2.76953 2.49992 2.54336 2.49992H1.66668C1.20644 2.49992 0.833344 2.12683 0.833344 1.66659C0.833344 1.20635 1.20644 0.833256 1.66668 0.833256L2.5682 0.833254C2.7598 0.833231 2.94826 0.833207 3.109 0.845771C3.28695 0.859681 3.49495 0.892414 3.70777 0.992955C4.00551 1.13361 4.25492 1.35932 4.4245 1.64159C4.54572 1.84335 4.59899 2.04706 4.63054 2.22275C4.65681 2.36903 4.67477 2.53981 4.69234 2.71496L2.98849 2.50851L2.97912 2.50737ZM4.69234 2.71496L16.6729 4.16661C18.2717 4.1733 19.4546 5.65976 19.0999 7.22064L17.7741 13.054C17.5154 14.1922 16.5035 14.9999 15.3363 14.9999L6.8153 15C6.53099 15.0002 6.28515 15.0003 6.06104 14.9596C5.12565 14.7895 4.3677 14.1035 4.10537 13.1897C4.04252 12.9708 4.01824 12.7261 3.99015 12.4432L3.04088 2.95017C3.01837 2.72512 3.00566 2.60391 2.99011 2.51731L2.98849 2.50851L4.69234 2.71496ZM4.69234 2.71496L4.8375 4.16659H16.6621L4.69234 2.71496ZM7.08334 16.6666C6.39299 16.6666 5.83334 17.2262 5.83334 17.9166C5.83334 18.6069 6.39299 19.1666 7.08334 19.1666C7.7737 19.1666 8.33334 18.6069 8.33334 17.9166C8.33334 17.2262 7.7737 16.6666 7.08334 16.6666ZM13.75 16.6666C13.0597 16.6666 12.5 17.2262 12.5 17.9166C12.5 18.6069 13.0597 19.1666 13.75 19.1666C14.4404 19.1666 15 18.6069 15 17.9166C15 17.2262 14.4404 16.6666 13.75 16.6666Z" fill="#242424"/>
</svg>
