<svg width="20" height="20" viewBox="0 0 20 20" fill="none" xmlns="http://www.w3.org/2000/svg">
<g clip-path="url(#clip0_2287_11686)">
<path d="M4.11489 1.37763C3.99387 1.0506 3.68204 0.833496 3.33334 0.833496C2.98464 0.833496 2.67281 1.0506 2.5518 1.37763L2.23463 2.23478L1.37748 2.55195C1.05045 2.67296 0.833344 2.9848 0.833344 3.3335C0.833344 3.6822 1.05045 3.99403 1.37748 4.11504L2.23463 4.43221L2.5518 5.28936C2.67281 5.61639 2.98464 5.8335 3.33334 5.8335C3.68204 5.8335 3.99387 5.61639 4.11489 5.28936L4.43206 4.43221L5.28921 4.11504C5.61624 3.99403 5.83334 3.6822 5.83334 3.3335C5.83334 2.9848 5.61624 2.67296 5.28921 2.55195L4.43206 2.23478L4.11489 1.37763Z" fill="#242424"/>
<path d="M4.11489 14.711C3.99387 14.3839 3.68204 14.1668 3.33334 14.1668C2.98464 14.1668 2.67281 14.3839 2.5518 14.711L2.23463 15.5681L1.37748 15.8853C1.05045 16.0063 0.833344 16.3181 0.833344 16.6668C0.833344 17.0155 1.05045 17.3274 1.37748 17.4484L2.23463 17.7655L2.5518 18.6227C2.67281 18.9497 2.98464 19.1668 3.33334 19.1668C3.68204 19.1668 3.99387 18.9497 4.11489 18.6227L4.43206 17.7655L5.28921 17.4484C5.61624 17.3274 5.83334 17.0155 5.83334 16.6668C5.83334 16.3181 5.61624 16.0063 5.28921 15.8853L4.43206 15.5681L4.11489 14.711Z" fill="#242424"/>
<path d="M12.4482 3.0443C12.3272 2.71727 12.0154 2.50016 11.6667 2.50016C11.318 2.50016 11.0061 2.71727 10.8851 3.0443L10.6803 3.59795C9.75182 6.10704 7.77355 8.0853 5.26446 9.01375L4.71081 9.21862C4.38378 9.33963 4.16668 9.65146 4.16668 10.0002C4.16668 10.3489 4.38378 10.6607 4.71081 10.7817L5.26446 10.9866C7.77355 11.915 9.75182 13.8933 10.6803 16.4024L10.8851 16.956C11.0061 17.2831 11.318 17.5002 11.6667 17.5002C12.0154 17.5002 12.3272 17.2831 12.4482 16.956L12.6531 16.4024C13.5815 13.8933 15.5598 11.915 18.0689 10.9866L18.6225 10.7817C18.9496 10.6607 19.1667 10.3489 19.1667 10.0002C19.1667 9.65146 18.9496 9.33963 18.6225 9.21862L18.0689 9.01375C15.5598 8.0853 13.5815 6.10704 12.6531 3.59795L12.4482 3.0443Z" fill="#242424"/>
</g>
<defs>
<clipPath id="clip0_2287_11686">
<rect width="20" height="20" fill="white"/>
</clipPath>
</defs>
</svg>
