<svg width="31" height="35" viewBox="0 0 31 35" fill="none" xmlns="http://www.w3.org/2000/svg">
<g filter="url(#filter0_d_2480_607)">
<path fill-rule="evenodd" clip-rule="evenodd" d="M9.03931 1H16.0393V8C16.0393 8.55229 16.487 9 17.0393 9H24.0393V20C24.0393 20.7957 23.7232 21.5587 23.1606 22.1213C22.598 22.6839 21.835 23 21.0393 23H9.03931C8.24366 23 7.4806 22.6839 6.91799 22.1213C6.35538 21.5587 6.03931 20.7957 6.03931 20V4C6.03931 3.20435 6.35538 2.44129 6.91799 1.87868C7.4806 1.31607 8.24366 1 9.03931 1ZM11.0393 8C10.487 8 10.0393 8.44772 10.0393 9C10.0393 9.55229 10.487 10 11.0393 10H13.0393C13.5916 10 14.0393 9.55229 14.0393 9C14.0393 8.44772 13.5916 8 13.0393 8H11.0393ZM11.0393 12C10.487 12 10.0393 12.4477 10.0393 13C10.0393 13.5523 10.487 14 11.0393 14H19.0393C19.5916 14 20.0393 13.5523 20.0393 13C20.0393 12.4477 19.5916 12 19.0393 12H11.0393ZM11.0393 16C10.487 16 10.0393 16.4477 10.0393 17C10.0393 17.5523 10.487 18 11.0393 18H19.0393C19.5916 18 20.0393 17.5523 20.0393 17C20.0393 16.4477 19.5916 16 19.0393 16H11.0393Z" fill="white"/>
<path d="M18.0393 1.58579L23.4535 7H18.0393V1.58579Z" fill="white"/>
</g>
<defs>
<filter id="filter0_d_2480_607" x="-2.96069" y="0" width="36" height="36" filterUnits="userSpaceOnUse" color-interpolation-filters="sRGB">
<feFlood flood-opacity="0" result="BackgroundImageFix"/>
<feColorMatrix in="SourceAlpha" type="matrix" values="0 0 0 0 0 0 0 0 0 0 0 0 0 0 0 0 0 0 127 0" result="hardAlpha"/>
<feOffset dy="6"/>
<feGaussianBlur stdDeviation="3"/>
<feComposite in2="hardAlpha" operator="out"/>
<feColorMatrix type="matrix" values="0 0 0 0 0 0 0 0 0 0 0 0 0 0 0 0 0 0 0.2 0"/>
<feBlend mode="normal" in2="BackgroundImageFix" result="effect1_dropShadow_2480_607"/>
<feBlend mode="normal" in="SourceGraphic" in2="effect1_dropShadow_2480_607" result="shape"/>
</filter>
</defs>
</svg>
