<svg width="41" height="21" viewBox="0 0 41 21" fill="none" xmlns="http://www.w3.org/2000/svg">
<g clip-path="url(#clip0_2287_12211)">
<path d="M36.6826 10.3552C36.6826 11.8072 35.5621 13.0102 34.0476 13.0102C32.5326 13.0102 31.4336 11.8072 31.4336 10.3552C31.4336 8.90272 32.5331 7.69922 34.0476 7.69922C35.5621 7.69922 36.6826 8.90322 36.6826 10.3552Z" fill="#FFD43D"/>
<path d="M24.382 10.2717C24.382 11.7447 23.2205 12.8442 21.747 12.8442C20.295 12.8442 19.1335 11.7442 19.1335 10.2717C19.1335 8.79823 20.295 7.71973 21.7475 7.71973C23.2205 7.71973 24.382 8.79873 24.382 10.2717Z" fill="#FF0C81"/>
<path d="M10.0371 13.0102C11.5516 13.0102 12.6721 11.8072 12.6721 10.3552C12.6721 8.90272 11.5516 7.69922 10.0371 7.69922C8.5221 7.69922 7.4231 8.90272 7.4231 10.3547C7.4231 11.8072 8.5226 13.0102 10.0371 13.0102Z" fill="#11EEFC"/>
<path d="M34.0475 15.77C30.894 15.77 28.4875 13.3215 28.4875 10.334C28.4875 7.367 30.915 4.919 34.0475 4.919C37.222 4.919 39.6285 7.388 39.6285 10.334C39.6285 13.3215 37.201 15.7695 34.0475 15.7695V15.77ZM34.0475 13.01C35.5625 13.01 36.6825 11.807 36.6825 10.355C36.6825 8.9025 35.5625 7.699 34.0475 7.699C32.533 7.699 31.4335 8.9025 31.4335 10.3545C31.4335 11.807 32.533 13.01 34.0475 13.01ZM21.54 20.5C19.1335 20.5 17.287 19.442 16.3535 17.533L18.8015 16.2055C19.258 17.0975 20.1085 17.803 21.4985 17.803C23.2415 17.803 24.4235 16.579 24.4235 14.5665V14.3795C23.8635 15.085 22.868 15.6245 21.4155 15.6245C18.5315 15.6245 16.229 13.384 16.229 10.334C16.229 7.367 18.6355 4.94 21.789 4.94C25.0045 4.94 27.37 7.2425 27.37 10.334V14.4835C27.37 18.135 24.88 20.5 21.54 20.5ZM21.7475 12.8445C23.2205 12.8445 24.3825 11.7445 24.3825 10.272C24.3825 8.7985 23.2205 7.72 21.7475 7.72C20.295 7.72 19.1335 8.799 19.1335 10.272C19.1335 11.745 20.295 12.8445 21.7475 12.8445ZM10.037 15.77C6.8835 15.77 4.477 13.3215 4.477 10.334C4.477 7.367 6.904 4.919 10.037 4.919C13.211 4.919 15.618 7.388 15.618 10.334C15.618 13.3215 13.1905 15.7695 10.037 15.7695V15.77ZM10.037 13.01C11.5515 13.01 12.672 11.807 12.672 10.355C12.672 8.9025 11.5515 7.699 10.037 7.699C8.522 7.699 7.423 8.9025 7.423 10.3545C7.423 11.807 8.5225 13.01 10.037 13.01ZM0 0.5H2.946V15.5H0V0.5ZM41 3.75C41 4.08152 40.8683 4.39946 40.6339 4.63388C40.3995 4.8683 40.0815 5 39.75 5C39.4185 5 39.1005 4.8683 38.8661 4.63388C38.6317 4.39946 38.5 4.08152 38.5 3.75C38.5 3.41848 38.6317 3.10054 38.8661 2.86612C39.1005 2.6317 39.4185 2.5 39.75 2.5C40.0815 2.5 40.3995 2.6317 40.6339 2.86612C40.8683 3.10054 41 3.41848 41 3.75Z" fill="#171A26"/>
</g>
<defs>
<clipPath id="clip0_2287_12211">
<rect width="41" height="20" fill="white" transform="translate(0 0.5)"/>
</clipPath>
</defs>
</svg>
