<svg width="55" height="25" viewBox="0 0 55 25" fill="none" xmlns="http://www.w3.org/2000/svg">
<g clip-path="url(#clip0_2287_12183)">
<path d="M32.0906 4.80541C32.1856 4.9006 32.3084 4.96435 32.4478 4.93168C33.658 4.64775 34.8435 4.26116 35.9411 3.67011C36.0732 3.59902 36.1746 3.43696 36.2244 3.30193C36.2813 3.14756 36.3043 2.93563 36.2586 2.77476C36.2206 2.64136 36.1549 2.48511 36.0223 2.41973C35.8955 2.35716 35.7698 2.36147 35.6436 2.42943C35.2919 2.61889 34.93 2.78834 34.5602 2.93933C33.8585 3.21421 33.1331 3.41919 32.3999 3.5912C32.0819 3.66579 31.9137 4.06863 31.935 4.36779C31.9458 4.51884 31.9792 4.69373 32.0906 4.80541Z" fill="black"/>
<path d="M51.4573 5.16492C51.4074 5.05963 51.3276 4.93228 51.1972 4.92128C51.0594 4.90971 50.9703 4.98252 50.8743 5.07256C50.392 5.52542 50.0003 6.06353 49.5214 6.51906C49.3635 6.65966 49.1959 6.78794 49.0178 6.90233C49.0732 6.78573 49.1297 6.66984 49.1893 6.55541C49.3728 6.20246 49.5768 5.86061 49.7986 5.53046C49.8853 5.40597 49.9693 5.28333 50.0262 5.13883C50.1055 4.93793 50.1098 4.6658 50.0243 4.46606C49.9693 4.33754 49.8172 4.15564 49.6507 4.22916C49.559 4.26971 49.504 4.30631 49.4305 4.38252C49.4068 4.40695 49.3844 4.43253 49.3615 4.45773C49.3085 4.51688 49.2559 4.57638 49.2032 4.63615C49.0975 4.75665 48.993 4.87828 48.8893 5.00075C48.6919 5.23421 48.4979 5.47065 48.3044 5.70724C47.925 6.17029 47.5457 6.63349 47.1404 7.07408C47.0277 7.19644 46.9135 7.3173 46.7966 7.4361C46.8663 7.29759 46.9337 7.15785 46.9995 7.01745C47.2596 6.46084 47.4954 5.89301 47.7671 5.34175C47.8465 5.18071 47.9289 5.021 48.0152 4.86353C48.0566 4.78773 48.0992 4.71252 48.1426 4.63789C48.1658 4.59798 48.1906 4.55873 48.213 4.51843C48.2792 4.40068 48.311 4.2779 48.3431 4.14682C48.3764 4.00872 48.3597 3.78177 48.2978 3.65093C48.2413 3.53136 48.1704 3.44519 48.0377 3.40728C47.8337 3.34902 47.6537 3.61714 47.5317 3.74942C47.4512 3.83664 47.3707 3.92381 47.2902 4.01085C47.1125 4.20288 46.9341 4.39456 46.7556 4.58602C46.3735 4.99619 45.9903 5.4055 45.6075 5.81513C45.3071 6.13653 45.0063 6.45759 44.7063 6.77966C44.8085 6.47877 44.9088 6.17691 45.0075 5.87455C45.0961 5.60292 45.1867 5.33176 45.2715 5.05901C45.3667 4.75344 45.3946 4.35625 45.1735 4.09282C45.0276 3.91874 44.7853 3.87069 44.5952 4.00891C44.4152 4.13975 44.3115 4.36582 44.195 4.55153C44.1117 4.68438 44.0289 4.81727 43.9457 4.95024C43.7901 5.1991 43.6344 5.448 43.4781 5.69648C43.197 6.1435 42.9141 6.58963 42.6172 7.02662C42.3396 7.4313 42.0474 7.83678 41.692 8.17642C41.5763 8.27772 41.452 8.36911 41.3161 8.44135C41.2186 8.48207 41.1172 8.51052 41.0123 8.5245C41.0134 8.51931 41.0142 8.51412 41.0154 8.50897C41.0188 8.49508 41.0227 8.48114 41.0266 8.46732C41.0707 8.31314 41.1245 8.16175 41.183 8.01241C41.212 7.93731 41.2434 7.86299 41.2747 7.78878L41.2755 7.78715C41.2944 7.74484 41.3134 7.70273 41.3328 7.66069C41.6061 7.06955 41.9227 6.49808 42.2564 5.93939C42.3288 5.8185 42.4015 5.6978 42.477 5.57884C42.5548 5.45644 42.5835 5.2975 42.5939 5.15668C42.604 5.02526 42.5997 4.87328 42.5421 4.75158C42.5053 4.67416 42.4581 4.60042 42.3876 4.5494C42.2901 4.47864 42.1515 4.50442 42.0594 4.56705C41.2406 5.12288 40.4301 5.69191 39.64 6.28797V6.28599C39.6419 6.26745 39.6435 6.24887 39.6454 6.23033C39.6524 6.16115 39.6609 6.09206 39.671 6.02315C39.681 5.95464 39.6926 5.88631 39.7054 5.8183C39.7116 5.78621 39.7283 5.71859 39.7379 5.67666C39.765 5.57997 39.7933 5.48385 39.8277 5.38936C39.8394 5.35789 39.8521 5.32711 39.8645 5.29607C39.8804 5.26061 39.9086 5.19728 39.923 5.16914C39.945 5.12602 39.969 5.0841 39.993 5.04202C40.1142 4.88799 40.2334 4.73238 40.3492 4.57386C40.451 4.43397 40.5179 4.28911 40.5454 4.11622C40.569 3.96611 40.5671 3.76213 40.5001 3.62034C40.4502 3.51503 40.3704 3.38769 40.24 3.37668C40.1061 3.36542 40.0074 3.43425 39.9175 3.52798C39.7445 3.70837 39.5955 3.90529 39.4662 4.11396C39.05 4.62813 38.6008 5.11313 38.121 5.57161C38.0644 5.62576 38.0073 5.67961 37.9502 5.73341C37.9329 5.489 37.8738 5.23626 37.7599 5.02375C37.6282 4.77806 37.4427 4.57646 37.1592 4.51781C36.9131 4.46695 36.6736 4.55679 36.455 4.65767C36.2349 4.75932 36.0363 4.90305 35.8498 5.05673C35.392 5.43388 34.9832 5.8641 34.5995 6.31537C34.65 6.21914 34.7009 6.12291 34.749 6.02548C34.8534 5.81416 34.9153 5.55581 34.8561 5.32011C34.8148 5.1561 34.7403 4.99588 34.5746 4.93328C34.3124 4.83422 34.084 5.10043 33.9239 5.27323C33.7299 5.48269 33.5318 5.68696 33.3458 5.90385C33.1057 6.18361 32.8749 6.47114 32.6466 6.76053C32.382 7.09595 32.1212 7.43435 31.8603 7.77264C32.0346 7.40389 32.1921 7.02221 32.2636 6.62312C32.3166 6.32745 32.3114 5.95766 32.1166 5.70961C31.9728 5.52647 31.7642 5.48269 31.5445 5.52779C31.4263 5.55206 31.3148 5.60675 31.2059 5.65611C31.0972 5.7055 30.9924 5.76299 30.8899 5.82426C30.7149 5.92886 30.5458 6.04332 30.3798 6.16208C30.3587 6.1077 30.3297 6.05741 30.2899 6.01564C30.2053 5.92708 30.0796 5.84915 29.9506 5.89228C28.9895 6.21353 28.0883 6.70607 27.3078 7.35283C26.8938 7.69584 26.5058 8.06389 26.1591 8.47557C25.7737 8.93327 25.4118 9.42384 25.1769 9.97712C25.0799 10.2055 25.0142 10.4577 24.9889 10.7101C24.5914 11.0147 24.1923 11.3172 23.7919 11.6182C24.3471 10.7676 24.8939 9.91146 25.4241 9.0451C25.5842 8.78342 25.745 8.52155 25.8923 8.25225C25.9706 8.10895 26.0516 7.96185 26.1051 7.80755C26.1954 7.54723 26.2132 7.19319 26.0186 6.97003C25.9224 6.85971 25.8046 6.82084 25.6656 6.84066C25.5568 6.85619 25.4725 6.93527 25.3938 7.00266C25.2635 7.11422 25.155 7.25486 25.0459 7.38655C24.9634 7.4863 24.8824 7.58722 24.8017 7.68848C24.7474 7.54204 24.6764 7.40528 24.584 7.27344C24.4884 7.13691 24.3514 7.00913 24.2003 6.93709C23.634 6.66705 23.0243 6.97259 22.5591 7.30909C22.1101 7.63382 21.7072 8.01751 21.3198 8.41363C21.301 8.42784 21.2826 8.44297 21.2651 8.45985C21.1928 8.5298 21.1175 8.59595 21.0396 8.6594C20.9238 8.74235 20.8013 8.81447 20.6706 8.87141C20.5644 8.90555 20.4556 8.92766 20.3444 8.93691C20.2824 8.93521 20.2206 8.93079 20.1597 8.92131C20.1612 8.87389 20.162 8.82639 20.1616 8.77878C20.1574 8.31004 20.038 7.78808 19.7346 7.41914C19.5547 7.20055 19.2915 7.09096 19.0115 7.11674C18.8624 7.13044 18.73 7.20028 18.6193 7.29906C18.5611 7.3027 18.5038 7.31896 18.4526 7.35326C17.6225 7.90959 16.8659 8.55748 16.187 9.28193C16.1714 9.29501 16.1566 9.30895 16.1432 9.32455C16.1282 9.34204 16.1131 9.35946 16.098 9.37696C15.9269 9.56312 15.7612 9.75465 15.6004 9.95056C14.8522 10.806 14.0825 11.6434 13.2428 12.4105C12.943 12.6844 12.6341 12.9483 12.3144 13.1988C11.9383 13.4861 11.5468 13.7535 11.1338 13.9852C10.9993 14.0607 10.8976 14.2119 10.845 14.3525C10.7874 14.5067 10.7648 14.7193 10.8121 14.8799C10.8519 15.015 10.9209 15.1706 11.0555 15.2361C11.183 15.298 11.3171 15.2988 11.4435 15.2279C12.2979 14.7484 13.0726 14.1245 13.7938 13.4648C13.9942 13.2815 14.1904 13.0936 14.3838 12.903C14.3925 12.9393 14.402 12.9754 14.4134 13.0109C14.5453 13.4254 14.827 13.7949 15.2323 13.9744C15.6339 14.1522 16.0784 14.1636 16.5009 14.053C17.6663 13.7478 18.5157 12.8634 19.128 11.8613C19.0543 12.2062 19.024 12.5574 19.1115 12.9076C19.2078 13.2937 19.4464 13.6694 19.8647 13.7467C20.1701 13.8031 20.4731 13.6681 20.7383 13.533C21.1269 13.335 21.4782 13.0584 21.8058 12.7658C21.6499 12.9991 21.4933 13.2319 21.3369 13.4648C20.7715 13.8946 20.2091 14.3284 19.6525 14.7698C18.9642 14.9542 18.2778 15.1457 17.5938 15.3462C16.8498 15.5644 16.1085 15.7923 15.3707 16.0312C14.6635 16.2602 13.9594 16.4992 13.2594 16.7493C12.5535 17.0015 11.8518 17.2655 11.1544 17.5402C10.5246 17.7883 9.89896 18.0467 9.27845 18.3168C8.687 18.5743 8.10028 18.8426 7.5194 19.1231C6.97329 19.3869 6.43236 19.6615 5.89824 19.9488C5.39575 20.2191 4.89926 20.5006 4.41063 20.7953C4.17842 20.9353 3.94804 21.0784 3.71971 21.2247C3.72328 21.2198 3.72684 21.215 3.73041 21.21C4.3893 20.3009 5.04078 19.3865 5.69056 18.471C6.17993 17.7814 6.6688 17.0915 7.15886 16.4024C7.18178 16.3861 7.20473 16.3699 7.22757 16.3536C7.86287 15.8993 8.48482 15.4268 9.09969 14.9453C9.74893 14.4369 10.388 13.9156 11.0184 13.3841C11.6885 12.8192 12.3489 12.2427 12.9992 11.6552C13.6622 11.0563 14.3149 10.4461 14.9554 9.82336C15.5834 9.21287 16.1999 8.59046 16.8006 7.95314C17.3661 7.35333 17.918 6.74044 18.4483 6.10928C18.9546 5.50669 19.4448 4.88869 19.9001 4.2465C20.0893 3.9795 20.2722 3.708 20.4458 3.43049C20.6628 3.08334 20.9078 2.71448 21.0169 2.31839C21.1021 2.00935 21.1663 1.66664 21.0612 1.3529C21.0127 1.20824 20.9535 1.06783 20.8414 0.959014C20.7279 0.848886 20.6289 0.800518 20.4807 0.753651C20.307 0.698713 20.1048 0.716922 19.9285 0.751587C19.7097 0.794636 19.4957 0.880298 19.2947 0.975032C18.7902 1.21281 18.3351 1.55276 17.9044 1.90317C17.4777 2.2505 17.0722 2.62681 16.6785 3.01113C15.8793 3.79134 15.1048 4.59678 14.353 5.42273C13.613 6.23571 12.895 7.06855 12.1954 7.91656C11.4737 8.79144 10.7706 9.68184 10.0813 10.5825C9.41927 11.4475 8.77062 12.3228 8.12982 13.2036C7.61544 13.9107 7.1068 14.6219 6.59966 15.334C6.09783 15.6857 5.5876 16.0265 5.06033 16.3387C4.70134 16.5513 4.33279 16.7559 3.9449 16.9117C3.81895 16.9576 3.68824 16.9973 3.55527 17.0116C3.54344 17.0107 3.53174 17.0093 3.52004 17.0075C3.47574 16.9906 3.42962 16.9848 3.3815 16.9917C3.31192 16.9859 3.24685 17.003 3.18634 17.0428C3.05594 17.1154 2.94369 17.2711 2.89695 17.4101C2.84119 17.5759 2.81366 17.7666 2.86416 17.9374C2.90145 18.0636 2.97335 18.2443 3.10838 18.2937C3.18784 18.3228 3.26162 18.3551 3.34559 18.3609C3.43757 18.3674 3.53249 18.3633 3.62416 18.3515C3.75738 18.3345 3.88753 18.294 4.01342 18.2483C4.27153 18.1547 4.52068 18.0423 4.76416 17.918C4.6096 18.1356 4.4553 18.3535 4.30044 18.5708C3.65119 19.482 2.99825 20.3904 2.33636 21.2924C2.0011 21.7493 1.66352 22.2044 1.32307 22.6574C1.11721 22.9312 0.857093 23.2081 0.815419 23.5637C0.78964 23.7837 0.815169 24.0339 0.971974 24.2053C1.07384 24.3166 1.22471 24.368 1.37331 24.3389C1.53131 24.3081 1.66302 24.1955 1.78228 24.097C1.95874 23.9513 2.13644 23.8074 2.31678 23.6665C2.77637 23.3139 3.24967 22.9792 3.73341 22.6606C4.28173 22.2994 4.84294 21.9579 5.41321 21.6325C6.02606 21.2829 6.6494 20.9518 7.28045 20.6362C7.95961 20.2966 8.64764 19.9748 9.34224 19.6681C10.0796 19.3425 10.8245 19.034 11.575 18.74C11.6436 18.7131 11.7122 18.6865 11.7809 18.6599C12.6787 18.3144 13.584 17.9886 14.4953 17.6806C15.3885 17.3788 16.2877 17.0945 17.191 16.8243C16.7511 17.215 16.3192 17.6147 15.8985 18.0259C15.3173 18.5941 14.7371 19.1748 14.2477 19.8253C13.6948 20.5602 13.253 21.3815 13.0611 22.2873C12.9659 22.7367 12.9639 23.2493 13.1693 23.6704C13.2653 23.8672 13.4087 24.0606 13.6098 24.1583C13.7568 24.2299 13.9127 24.2755 14.0762 24.2729C14.2499 24.2702 14.4105 24.2496 14.573 24.1871C14.7464 24.1204 14.9121 24.0428 15.0683 23.9424C15.3629 23.7531 15.6328 23.5169 15.8778 23.2673C16.4411 22.6934 16.8723 22.0083 17.3068 21.3365C18.2155 19.9313 19.1481 18.5418 20.0842 17.1548C20.3958 16.6932 20.7077 16.2318 21.0195 15.7704C21.9862 15.5258 22.9565 15.2947 23.9298 15.0779C25.0975 14.8177 26.2696 14.5766 27.4448 14.3531C28.2907 14.1921 29.1385 14.0409 29.9877 13.8977C29.8172 14.3522 29.6839 14.8236 29.6632 15.3084C29.6578 15.4344 29.6692 15.564 29.6946 15.6871C29.7338 15.8777 29.8623 16.0883 30.0799 16.0781C30.2951 16.068 30.4634 15.8452 30.5204 15.6528C30.7151 14.9958 30.9334 14.3464 31.17 13.7037C36.812 12.8064 42.5115 11.9064 48.2196 11.6822C48.544 11.6695 48.7418 11.4626 48.7271 11.2733C48.7058 10.9965 48.5591 10.8132 48.1979 10.8132C42.7097 11.0291 37.2511 11.6302 31.7892 12.2569C31.8592 12.1288 31.9299 12.001 32.0016 11.8739C32.3126 11.3225 32.6398 10.7801 32.9802 10.2463C33.0254 10.3886 33.0838 10.5261 33.1612 10.6547C33.2547 10.81 33.3765 10.9607 33.5466 11.0359C33.7276 11.116 33.9066 11.1345 34.1017 11.088C34.4935 10.9947 34.825 10.71 35.1139 10.446C35.4403 10.1478 35.7294 9.80884 36.0035 9.46282C36.2855 9.10684 36.5542 8.73968 36.8123 8.36517C37.0945 8.02979 37.396 7.71101 37.7142 7.4061C38.0735 7.06201 38.4405 6.72678 38.795 6.37859C38.7814 6.57213 38.7765 6.76514 38.7789 6.95617C38.2485 7.38086 37.7307 7.82389 37.2511 8.30462C36.9314 8.62499 36.6049 8.97902 36.3984 9.38594C36.2703 9.63829 36.1905 9.90152 36.1827 10.1857C36.1768 10.3987 36.2267 10.6354 36.3612 10.8064C36.5482 11.0441 36.8418 11.0572 37.1172 11.0288C37.372 11.0026 37.6212 10.9161 37.8544 10.8132C38.1659 10.6757 38.4663 10.512 38.7362 10.3034C39.0415 10.0675 39.3059 9.7917 39.5053 9.46038C39.7523 9.04909 39.8486 8.55291 39.7763 8.07968C39.7538 7.93274 39.7286 7.78657 39.7058 7.64002C40.0391 7.38717 40.3766 7.13997 40.7161 6.89644C40.7072 6.91568 40.6979 6.93473 40.689 6.95404C40.5234 7.32078 40.3604 7.69491 40.2605 8.08591C40.1502 8.51768 40.06 9.00504 40.2388 9.43286C40.3008 9.58135 40.4068 9.73363 40.5563 9.80459C40.7285 9.88638 40.8857 9.88646 41.0726 9.85398C41.3541 9.80517 41.6231 9.65304 41.8434 9.4754C42.1488 9.22893 42.4104 8.93335 42.6497 8.62348C42.981 8.19368 43.281 7.73908 43.5764 7.28381C43.6112 7.22993 43.6457 7.1757 43.6801 7.1217C43.5965 7.35504 43.511 7.5878 43.4219 7.81924C43.3619 7.97497 43.3008 8.13016 43.2381 8.28477C43.2086 8.35653 43.1792 8.42819 43.149 8.49964C43.1335 8.53711 43.1177 8.57455 43.1018 8.6119C43.0801 8.66284 43.0085 8.8267 43.1049 8.60528C43.0317 8.77367 42.9787 8.9311 42.981 9.11822C42.983 9.25108 43.0139 9.44505 43.1068 9.55119C43.1831 9.6386 43.2907 9.70924 43.4134 9.66945C43.5346 9.63031 43.6426 9.52928 43.6999 9.4159C43.8102 9.27148 43.9383 9.1375 44.0587 9.00329C44.3281 8.70252 44.6022 8.40566 44.8766 8.10933C45.2935 7.65906 45.7124 7.21053 46.1312 6.76228C46.0728 6.87639 46.0124 6.98997 45.9501 7.10203C45.8634 7.25629 45.7627 7.40462 45.6892 7.56558C45.5448 7.88157 45.4619 8.22782 45.5301 8.57517C45.5726 8.79198 45.6861 9.03326 45.8893 9.14284C46.1003 9.25677 46.3089 9.21817 46.5137 9.11455C46.6832 9.02877 46.8156 8.88535 46.9515 8.7554C47.3328 8.39021 47.6889 8.00033 48.0326 7.59961C48.0938 7.83364 48.2452 8.0522 48.4635 8.16302C48.5637 8.214 48.6795 8.26119 48.7941 8.26657C48.9652 8.27462 49.0859 8.23777 49.2303 8.14673C49.6314 7.89453 49.979 7.56244 50.2964 7.21309C50.6305 6.84519 50.9432 6.45922 51.3063 6.11842C51.4151 6.01634 51.4805 5.79999 51.5026 5.66083C51.5262 5.51072 51.5243 5.30672 51.4573 5.16492ZM11.5392 10.4702C11.5985 10.3946 11.658 10.3193 11.7175 10.2439C12.5286 9.2205 13.362 8.21462 14.2255 7.235C15.1122 6.22909 16.0304 5.25066 16.9842 4.30794C17.4984 3.79967 18.0247 3.29683 18.5944 2.85038C18.9468 2.58333 19.3248 2.33072 19.7347 2.1624C19.8275 2.13018 19.9225 2.10365 20.0193 2.08732C19.8667 2.3712 19.6913 2.64521 19.5148 2.91358C19.2971 3.24434 19.0676 3.56727 18.8305 3.88433C18.7076 4.0487 18.5821 4.21127 18.4553 4.37269C17.9284 5.0352 17.3745 5.67597 16.8039 6.30113C16.1711 6.9945 15.518 7.66932 14.8511 8.32982C14.1628 9.0115 13.4594 9.67797 12.7438 10.331C12.0386 10.9744 11.3215 11.605 10.5929 12.2218C10.249 12.5128 9.9026 12.8009 9.55333 13.0856C10.2036 12.205 10.8637 11.3315 11.5392 10.4702ZM26.3617 9.89528C26.726 9.41052 27.1426 8.96737 27.6035 8.57342C28.1483 8.12633 28.7489 7.75065 29.3912 7.46075C29.3937 7.48936 29.3977 7.51704 29.4034 7.54379C29.3306 7.7479 29.2494 7.949 29.1606 8.14692C28.9481 8.5922 28.6962 9.0175 28.4071 9.41741C28.0643 9.86997 27.6745 10.2853 27.2412 10.6524C27.0329 10.8234 26.8146 10.9886 26.5715 11.1048C26.4879 11.1355 26.4025 11.1571 26.314 11.1675C26.2617 11.1646 26.2104 11.1561 26.1595 11.1428C26.1219 11.1244 26.0862 11.103 26.0522 11.0785C26.0249 11.05 25.9998 11.0199 25.9763 10.9882C25.9607 10.9586 25.9467 10.9283 25.9337 10.8976C25.9257 10.8671 25.9185 10.8365 25.9126 10.8056C25.912 10.7912 25.9116 10.7768 25.9114 10.7625C25.9161 10.7271 25.9219 10.6919 25.929 10.657C25.9474 10.5992 25.9683 10.5424 25.9915 10.4864C26.0966 10.2786 26.2254 10.0839 26.3617 9.89528ZM18.0228 11.5847C17.8199 11.8327 17.5948 12.0614 17.3436 12.2608C17.1297 12.4151 16.9003 12.5453 16.6561 12.6455C16.4677 12.7116 16.2736 12.7584 16.0745 12.7733C15.9528 12.7709 15.8327 12.7548 15.7158 12.7212C15.6382 12.6878 15.565 12.6466 15.496 12.5977C15.4626 12.5662 15.4314 12.5327 15.4021 12.4973C15.388 12.473 15.3745 12.4483 15.3624 12.4229C15.3587 12.4094 15.3546 12.3957 15.3513 12.382C15.3504 12.3664 15.3498 12.3505 15.3494 12.3348C15.3534 12.3055 15.3582 12.2764 15.3638 12.2474C15.3877 12.1733 15.4158 12.1009 15.4473 12.0298C15.6271 11.688 15.8631 11.3733 16.1024 11.0698C16.1493 11.0113 16.1973 10.9538 16.2452 10.8962C16.3633 10.7604 16.4807 10.624 16.5981 10.4877C17.0818 9.95296 17.6109 9.46034 18.1799 9.01642C18.2375 8.97275 18.2956 8.92982 18.354 8.88724C18.3906 8.98855 18.4342 9.08695 18.4843 9.18039C18.6108 9.4161 18.7784 9.62745 18.978 9.80377C18.8893 10.0558 18.7836 10.3022 18.6685 10.5429C18.4841 10.9083 18.2715 11.2593 18.0228 11.5847ZM21.1689 11.819C20.9109 12.0259 20.6356 12.2177 20.3328 12.3521C20.2682 12.3761 20.2026 12.3949 20.1343 12.4047C20.111 12.4029 20.088 12.3996 20.0652 12.3948C20.0548 12.3892 20.0443 12.3835 20.0343 12.3771C20.032 12.3744 20.0298 12.3715 20.0275 12.3689C20.0251 12.3642 20.0225 12.3597 20.0203 12.355C20.0171 12.3422 20.0136 12.3295 20.0109 12.3166C20.0092 12.2876 20.0085 12.2585 20.0085 12.2294C20.0164 12.1713 20.0276 12.1138 20.0403 12.0565C20.0944 11.8623 20.1631 11.6731 20.2451 11.489C20.3829 11.2138 20.548 10.954 20.7291 10.7052C20.9841 10.3715 21.2617 10.0596 21.5502 9.75546C21.6408 9.68226 21.7285 9.60539 21.8121 9.52444C21.8602 9.47791 21.9009 9.42059 21.9345 9.35853C22.1692 9.12237 22.4112 8.89324 22.6672 8.68042C22.8751 8.51555 23.0954 8.36191 23.3367 8.25113C23.4291 8.21722 23.5241 8.19237 23.6219 8.1818C23.6655 8.18435 23.7085 8.19055 23.7508 8.201C23.782 8.21633 23.8119 8.2339 23.8404 8.25376C23.8638 8.27776 23.8855 8.30311 23.9059 8.32971C23.9208 8.35781 23.9343 8.38657 23.9469 8.41576C23.9596 8.46155 23.9702 8.50785 23.9786 8.55465C23.981 8.59301 23.9822 8.63141 23.982 8.66985C23.9802 8.68568 23.9789 8.70159 23.9767 8.71727C23.2755 9.59648 22.5707 10.4778 21.7702 11.2692C21.577 11.4602 21.3775 11.6448 21.1689 11.819ZM17.0538 19.8544C16.7412 20.3324 16.4426 20.8213 16.118 21.2912C16.0454 21.3964 15.9708 21.5 15.8947 21.6028C15.6364 21.9387 15.3539 22.2553 15.0298 22.5292C14.8703 22.6539 14.7008 22.7669 14.5172 22.8527C14.4221 22.8878 14.3243 22.913 14.2236 22.9235C14.1737 22.9209 14.1246 22.914 14.0762 22.902C14.0523 22.8908 14.0289 22.8785 14.0062 22.865C13.9998 22.8574 13.9938 22.8496 13.9876 22.8418C13.9792 22.8256 13.9712 22.809 13.9638 22.7922C13.96 22.7768 13.9567 22.7613 13.9536 22.7458C13.952 22.7154 13.9514 22.6849 13.9516 22.6545C13.9608 22.576 13.9739 22.4981 13.9906 22.4208C14.0531 22.1956 14.1338 21.9744 14.2295 21.7612C14.4017 21.4128 14.609 21.0833 14.8382 20.7696C15.3034 20.1623 15.8564 19.6172 16.4023 19.0834C16.9699 18.5286 17.5577 17.9945 18.1583 17.4756C18.4826 17.1954 18.8112 16.9199 19.1423 16.6476C19.1772 16.619 19.2126 16.5908 19.2477 16.5623C18.8364 17.1721 18.4258 17.7824 18.018 18.3947C17.6947 18.88 17.373 19.3664 17.0538 19.8544ZM24.9016 13.5128C24.0908 13.6855 23.2818 13.8673 22.475 14.0584C23.0525 13.6243 23.6308 13.1915 24.208 12.7571C24.5586 12.4933 24.9078 12.228 25.2561 11.9613C25.4241 12.2179 25.6388 12.4089 25.9454 12.4925C26.2617 12.5788 26.5948 12.4685 26.8764 12.3283C27.1039 12.2149 27.3076 12.057 27.5045 11.8979C27.7207 11.7232 27.9311 11.5415 28.1301 11.3474C28.5093 10.9773 28.8436 10.5665 29.1484 10.1335C29.6884 9.3667 30.1058 8.49697 30.3681 7.5943C30.5286 7.4738 30.6913 7.35608 30.8577 7.24402C30.9611 7.17438 31.0663 7.10625 31.1741 7.04277C30.9679 7.48897 30.7374 7.92399 30.5058 8.35735C30.2289 8.87551 29.947 9.39101 29.6771 9.91278C29.5359 10.1857 29.3979 10.4604 29.2681 10.739C29.2041 10.8765 29.1588 11.0072 29.148 11.1607C29.1388 11.293 29.1457 11.4458 29.2072 11.5669C29.2473 11.646 29.2991 11.7197 29.373 11.7709C29.4772 11.8431 29.6208 11.818 29.7211 11.7564C29.8855 11.6551 30.0321 11.5225 30.1737 11.3927C30.3211 11.2577 30.4596 11.1131 30.5944 10.9656C30.9319 10.596 31.247 10.2062 31.5578 9.81419C31.7731 9.54248 31.9852 9.26822 32.1967 8.99358C31.7225 9.98099 31.2689 10.9795 30.8551 11.9939C30.7784 12.1421 30.7033 12.2911 30.6298 12.4409C30.5014 12.4618 30.373 12.4824 30.2446 12.5037C29.3375 12.6543 28.4318 12.8148 27.5282 12.9856C26.6507 13.1515 25.7751 13.3269 24.9016 13.5128ZM34.8833 9.16336C34.7907 9.25866 34.6946 9.35052 34.5952 9.43874C34.4683 9.54372 34.3335 9.64123 34.1866 9.71544C34.1309 9.73669 34.0735 9.75291 34.0146 9.76181C33.9904 9.76011 33.9666 9.75678 33.943 9.75155C33.9301 9.74447 33.9175 9.73684 33.9054 9.72864C33.8884 9.70959 33.8723 9.68989 33.8575 9.66906C33.8395 9.6326 33.8236 9.59505 33.8092 9.55692C33.7751 9.43336 33.7519 9.30709 33.7351 9.18001C33.7333 9.16003 33.7315 9.14009 33.7299 9.12012C33.8099 9.0048 33.8899 8.88949 33.9715 8.7753C34.2403 8.4031 34.5172 8.03668 34.8068 7.68039C35.0781 7.34656 35.36 7.02043 35.661 6.71284C35.7966 6.57419 35.9368 6.44002 36.0824 6.31193C36.2621 6.16108 36.4538 6.01924 36.6644 5.91604C36.7334 5.88906 36.8047 5.86862 36.878 5.85856C36.9021 5.86011 36.9259 5.86344 36.9494 5.86843C36.9615 5.87501 36.9734 5.88182 36.9849 5.88953C36.993 5.89901 37.001 5.90853 37.0086 5.91856C37.0173 5.93683 37.0253 5.9553 37.0328 5.97407C37.0403 6.00364 37.0468 6.03345 37.0523 6.06345C37.053 6.08191 37.0534 6.10046 37.0534 6.11892C37.0511 6.13479 37.0484 6.1507 37.0457 6.16653C37.0374 6.19201 37.0281 6.21721 37.0185 6.24217C36.9208 6.42964 36.7946 6.60728 36.6814 6.78368C36.5371 7.00855 36.3897 7.23151 36.2388 7.45208C36.1512 7.58017 36.0621 7.70718 35.9719 7.83353C35.6362 8.29746 35.2827 8.75249 34.8833 9.16336ZM38.9747 8.52887C38.9719 8.53475 38.9691 8.54064 38.9663 8.54644C38.9671 8.54296 38.968 8.53952 38.9688 8.53619C39.0139 8.42865 38.9948 8.48644 38.9747 8.52887ZM38.9469 8.5836C38.93 8.61635 38.9119 8.64841 38.8927 8.67972C38.8235 8.77259 38.7463 8.85918 38.6635 8.94016C38.4739 9.10793 38.2644 9.2529 38.0433 9.37572C37.9862 9.40746 37.928 9.43692 37.8694 9.46572C37.7213 9.53284 37.5682 9.59153 37.4111 9.63422C37.5188 9.51558 37.6311 9.40108 37.7445 9.28924C37.8287 9.20633 37.9149 9.12543 38.0014 9.04502C38.292 8.77986 38.5914 8.52419 38.8967 8.27532C38.9137 8.37802 38.9311 8.48068 38.9469 8.5836ZM48.7871 7.42746C48.7821 7.44113 48.7774 7.45495 48.7716 7.46846C48.7225 7.57982 48.7503 7.51344 48.7871 7.42746Z" fill="black"/>
<path d="M52.713 3.35132C52.7494 3.31442 52.79 3.26727 52.8399 3.21193C52.8903 3.15658 52.9402 3.09919 52.9948 3.03769C53.047 2.97619 53.097 2.91675 53.1426 2.8614C53.1879 2.80606 53.2266 2.75686 53.2584 2.71586C53.2901 2.67691 53.306 2.65027 53.3106 2.63592C53.3153 2.62157 53.3176 2.60927 53.3176 2.59902C53.3176 2.56007 53.2878 2.53958 53.229 2.53958C53.1469 2.53958 53.0424 2.56212 52.9174 2.60722L52.9197 2.62567C52.9197 2.63592 52.9127 2.66052 52.8968 2.70151C52.8833 2.74456 52.8651 2.79786 52.8423 2.8614C52.7857 3.03154 52.7424 3.19553 52.713 3.35132ZM52.531 4.00727C52.6355 4.00727 52.7401 3.97242 52.8446 3.90273C52.9491 3.83303 53.0494 3.73669 53.1446 3.6137C52.9406 3.68501 52.7931 3.84815 52.6673 3.90478L52.6355 3.90888C52.5515 3.90888 52.4923 3.85763 52.4606 3.75719C52.4354 3.68544 52.4219 3.5973 52.4219 3.49276C52.4219 3.30007 52.447 3.10739 52.4993 2.91675C52.5264 2.79991 52.5581 2.70151 52.5968 2.61952C52.6356 2.53958 52.6696 2.49243 52.7037 2.47808L52.7014 2.46168C52.7014 2.44938 52.7083 2.43913 52.7242 2.42889C52.7447 2.41454 52.797 2.39813 52.8763 2.37969C52.9514 2.36944 53.0176 2.36534 53.0741 2.36534C53.1628 2.36534 53.2448 2.37559 53.3176 2.39404C53.3993 2.41864 53.4585 2.45963 53.4992 2.51703C53.522 2.55393 53.5336 2.59287 53.5336 2.62977C53.5336 2.75071 53.4403 2.92085 53.2537 3.13813C53.1786 3.22217 53.0923 3.31647 52.9925 3.42101L53.1492 3.37797C53.2061 3.36362 53.263 3.35747 53.3176 3.35747C53.3722 3.26522 53.4198 3.17093 53.4651 3.07664C53.5495 2.89215 53.6106 2.72611 53.6447 2.58057C53.6563 2.52113 53.6629 2.46783 53.6629 2.42478C53.654 2.31614 53.6153 2.24235 53.5472 2.1993C53.5038 2.1747 53.4492 2.1624 53.3834 2.1624C53.3083 2.1624 53.2266 2.1788 53.1334 2.2116C53.0219 2.25055 52.9108 2.30384 52.797 2.37559C52.6832 2.44733 52.5856 2.52318 52.5059 2.60517C52.4149 2.69536 52.3514 2.77736 52.3197 2.85115C52.2264 3.12378 52.1741 3.35747 52.1672 3.5481C52.1672 3.6219 52.1718 3.68339 52.183 3.73464C52.2059 3.84533 52.2605 3.92323 52.3514 3.96832C52.4014 3.99497 52.4606 4.00727 52.531 4.00727ZM52.6673 4.24095C52.5786 4.24095 52.4946 4.22865 52.4126 4.20611C52.2833 4.17126 52.1718 4.10976 52.0739 4.02162C51.9717 3.92937 51.8989 3.81048 51.8559 3.66494C51.8238 3.57065 51.8103 3.46816 51.8103 3.35952C51.8103 3.28982 51.8149 3.21398 51.8285 3.13608C51.8149 3.13198 51.8014 3.12788 51.7897 3.12173C51.7557 3.10329 51.7375 3.06844 51.7375 3.02129C51.7375 2.9434 51.7808 2.8409 51.8672 2.71176C51.933 2.61337 52.0174 2.51498 52.1219 2.41454C52.2241 2.31409 52.3402 2.22595 52.4695 2.146C52.6855 2.01481 52.9015 1.94922 53.1175 1.94922C53.2108 1.94922 53.2971 1.95537 53.3811 1.97177C53.6223 2.01686 53.7926 2.09886 53.8905 2.2198C53.9358 2.27515 53.9586 2.34279 53.9586 2.42273V2.46168C53.9269 2.77736 53.8495 3.07664 53.7291 3.36156C53.6586 3.52965 53.5719 3.67724 53.4697 3.80843C53.2448 4.09746 52.9766 4.24095 52.6673 4.24095Z" fill="black"/>
<path d="M50.5887 10.7083C50.2623 10.6798 49.9283 10.6823 49.6062 10.7247C49.4823 10.7411 49.3763 10.8042 49.3058 10.8797C49.2268 10.965 49.1746 11.0929 49.1827 11.1983C49.1901 11.2956 49.2187 11.4071 49.3139 11.4805C49.3968 11.5446 49.5059 11.5894 49.6287 11.5733C49.8071 11.5498 49.9879 11.5391 50.1694 11.5398C50.2395 11.5424 50.3092 11.5463 50.3788 11.5523C50.505 11.5634 50.6134 11.5378 50.7083 11.4748C50.8081 11.4082 50.8859 11.2948 50.9057 11.1955C50.9266 11.0918 50.9266 10.9736 50.8561 10.878C50.8008 10.8023 50.7121 10.719 50.5887 10.7083Z" fill="black"/>
</g>
<defs>
<clipPath id="clip0_2287_12183">
<rect width="53.8064" height="24" fill="white" transform="translate(0.526855 0.5)"/>
</clipPath>
</defs>
</svg>
