<svg width="118" height="19" viewBox="0 0 118 19" fill="none" xmlns="http://www.w3.org/2000/svg">
<g clip-path="url(#clip0_2287_12147)">
<path d="M15.8425 16.9614C17.6508 15.153 18.6668 12.7003 18.6668 10.1429C18.6668 7.58543 17.6508 5.13271 15.8425 3.32433C14.0341 1.51594 11.5814 0.5 9.02393 0.5C6.4665 0.5 4.0138 1.51594 2.20541 3.32433L5.3874 6.50629C5.88951 7.0084 6.70031 6.98333 7.33909 6.67315C7.85929 6.42056 8.43466 6.2857 9.02393 6.2857C10.0469 6.2857 11.028 6.69209 11.7513 7.41546C12.4747 8.13879 12.8811 9.11989 12.8811 10.1429C12.8811 10.7321 12.7462 11.3075 12.4937 11.8277C12.1835 12.4665 12.1584 13.2773 12.6605 13.7794L15.8425 16.9614Z" fill="#297AFF"/>
<path d="M14.1667 18.5H9.44607C8.76409 18.5 8.11002 18.2291 7.6278 17.7468L1.41981 11.5389C0.937574 11.0566 0.666656 10.4026 0.666656 9.72059V5L14.1667 18.5Z" fill="#34C2FF"/>
<path d="M5.48809 18.4997H2.59523C1.53011 18.4997 0.666656 17.6362 0.666656 16.5711V13.6782L5.48809 18.4997Z" fill="#34C2FF"/>
<path d="M110.528 3.61816C114.326 3.61816 117.418 6.71034 117.418 10.5083V15.3819H114.057V10.5083C114.057 9.11352 113.217 7.90351 112.041 7.33215V15.3819H108.68V10.5083C108.68 9.11352 107.839 7.90351 106.663 7.33215V15.3819H103.302V3.61816H105.15C106.428 3.61816 107.638 3.98788 108.68 4.60968V3.61816H110.528Z" fill="#0F2D5E"/>
<path d="M101.967 10.5083C101.967 13.1972 99.7653 15.3819 97.0932 15.3819C94.4044 15.3819 92.2197 13.1972 92.2197 10.5083V3.61816H95.5807V10.5083C95.5807 11.3486 96.253 12.0208 97.0932 12.0208C97.9167 12.0208 98.6061 11.3486 98.6061 10.5083V3.61816H101.967V10.5083Z" fill="#0F2D5E"/>
<path d="M91.1949 11.6007C91.1949 13.6677 89.5141 15.3483 87.4473 15.3483H82.4559V11.9872H87.4473C87.6489 11.9872 87.8338 11.8191 87.8338 11.6007C87.8338 11.399 87.6489 11.231 87.4473 11.231H86.086C83.9854 11.231 82.288 9.53364 82.288 7.43299C82.288 5.3323 83.9854 3.61816 86.086 3.61816H91.0266V6.97921H86.086C85.834 6.97921 85.6491 7.1809 85.6491 7.43299C85.6491 7.66825 85.834 7.8699 86.086 7.8699H87.4473C89.5141 7.8699 91.1949 9.55042 91.1949 11.6007Z" fill="#0F2D5E"/>
<path d="M77.3651 3.61816C79.7181 3.61816 81.6504 5.55078 81.6504 7.90351C81.6504 10.2731 79.7181 12.1889 77.3651 12.1889H76.1046V15.3819H72.7436V3.61816H77.3651ZM77.3651 8.82781C77.8695 8.82781 78.2894 8.42448 78.2894 7.90351C78.2894 7.39938 77.8695 6.97921 77.3651 6.97921H76.1046V8.82781H77.3651Z" fill="#0F2D5E"/>
<path d="M71.2306 15.3819H67.8696V3.61816H71.2306V15.3819Z" fill="#0F2D5E"/>
<path d="M66.8375 9.50002C66.8375 12.7434 64.182 15.3819 60.9555 15.3819C57.7119 15.3819 55.0736 12.7434 55.0736 9.50002C55.0736 6.27339 57.7119 3.61816 60.9555 3.61816C64.182 3.61816 66.8375 6.27339 66.8375 9.50002ZM63.4764 9.50002C63.4764 8.12199 62.3334 6.97921 60.9555 6.97921C59.5605 6.97921 58.4346 8.12199 58.4346 9.50002C58.4346 10.8949 59.5605 12.0208 60.9555 12.0208C62.3334 12.0208 63.4764 10.8949 63.4764 9.50002Z" fill="#0F2D5E"/>
<path d="M54.0955 8.7438V15.3819H49.8938C46.6507 15.3819 44.0121 12.7434 44.0121 9.50002C44.0121 6.27339 46.6507 3.61816 49.8938 3.61816H54.0955V6.97921H49.8938C48.4993 6.97921 47.3734 8.12199 47.3734 9.50002C47.3734 10.8949 48.4993 12.0208 49.8938 12.0208H50.7344V8.7438H54.0955Z" fill="#0F2D5E"/>
<path d="M43.4674 9.50002C43.4674 12.7434 40.8122 15.3819 37.5856 15.3819C34.3421 15.3819 31.7037 12.7434 31.7037 9.50002C31.7037 6.27339 34.3421 3.61816 37.5856 3.61816C40.8122 3.61816 43.4674 6.27339 43.4674 9.50002ZM40.1063 9.50002C40.1063 8.12199 38.9636 6.97921 37.5856 6.97921C36.1907 6.97921 35.0648 8.12199 35.0648 9.50002C35.0648 10.8949 36.1907 12.0208 37.5856 12.0208C38.9636 12.0208 40.1063 10.8949 40.1063 9.50002Z" fill="#0F2D5E"/>
<path d="M31.3573 12.0208V15.3819H27.156C25.4755 15.3819 24.131 14.0375 24.131 12.3569V3.61816H27.4921V12.0208H31.3573Z" fill="#0F2D5E"/>
</g>
<defs>
<clipPath id="clip0_2287_12147">
<rect width="117" height="18" fill="white" transform="translate(0.666656 0.5)"/>
</clipPath>
</defs>
</svg>
