<svg width="20" height="21" viewBox="0 0 20 21" fill="none" xmlns="http://www.w3.org/2000/svg">
<path fill-rule="evenodd" clip-rule="evenodd" d="M9.99998 1.36237C4.93737 1.36237 0.833313 5.46642 0.833313 10.529C0.833313 15.5916 4.93737 19.6957 9.99998 19.6957C15.0626 19.6957 19.1666 15.5916 19.1666 10.529C19.1666 5.46642 15.0626 1.36237 9.99998 1.36237ZM10.8333 5.52903C10.8333 5.06879 10.4602 4.6957 9.99998 4.6957C9.53974 4.6957 9.16665 5.06879 9.16665 5.52903V6.3626C8.51232 6.37144 7.88349 6.62978 7.41515 7.08856C6.93796 7.55601 6.66665 8.19371 6.66665 8.86237C6.66665 9.53102 6.93796 10.1687 7.41515 10.6362C7.89176 11.1031 8.5346 11.3624 9.20137 11.3624H10.7986C11.0343 11.3624 11.257 11.4542 11.4185 11.6125C11.5795 11.7702 11.6666 11.9803 11.6666 12.1957C11.6666 12.4111 11.5795 12.6212 11.4185 12.7789C11.257 12.9371 11.0343 13.029 10.7986 13.029H7.49998C7.03974 13.029 6.66665 13.4021 6.66665 13.8624C6.66665 14.3226 7.03974 14.6957 7.49998 14.6957H9.16665V15.529C9.16665 15.9893 9.53974 16.3624 9.99998 16.3624C10.4602 16.3624 10.8333 15.9893 10.8333 15.529V14.6955C11.4876 14.6866 12.1165 14.4283 12.5848 13.9695C13.062 13.5021 13.3333 12.8643 13.3333 12.1957C13.3333 11.527 13.062 10.8893 12.5848 10.4219C12.1082 9.955 11.4654 9.6957 10.7986 9.6957H9.20137C8.96566 9.6957 8.74299 9.60381 8.58145 9.44558C8.4205 9.28791 8.33331 9.07777 8.33331 8.86237C8.33331 8.64696 8.4205 8.43682 8.58145 8.27915C8.74299 8.12092 8.96566 8.02903 9.20137 8.02903H12.5C12.9602 8.02903 13.3333 7.65594 13.3333 7.1957C13.3333 6.73546 12.9602 6.36237 12.5 6.36237H10.8333V5.52903Z" fill="#12B76A"/>
</svg>
