<svg width="24" height="25" viewBox="0 0 24 25" fill="none" xmlns="http://www.w3.org/2000/svg">
<path fill-rule="evenodd" clip-rule="evenodd" d="M13.8216 2.12095C12.7354 1.33175 11.2646 1.33175 10.1784 2.12095L8.47822 3.35621C8.33789 3.45817 8.17542 3.52547 8.00409 3.5526L5.92846 3.88132C4.60234 4.09134 3.56228 5.1314 3.35227 6.45751L3.02355 8.53315C2.99641 8.70447 2.92911 8.86694 2.82715 9.00727L1.5919 10.7074C0.802699 11.7936 0.802699 13.2645 1.5919 14.3507L2.82716 16.0508C2.92911 16.1912 2.99641 16.3536 3.02355 16.525L3.35227 18.6006C3.56228 19.9267 4.60234 20.9668 5.92846 21.1768L8.00409 21.5055C8.17542 21.5326 8.33789 21.5999 8.47822 21.7019L10.1784 22.9372C11.2646 23.7264 12.7354 23.7264 13.8216 22.9372L15.5218 21.7019C15.6621 21.5999 15.8246 21.5326 15.9959 21.5055L18.0715 21.1768C19.3977 20.9668 20.4377 19.9267 20.6477 18.6006L20.9765 16.525C21.0036 16.3536 21.0709 16.1912 21.1728 16.0508L22.4081 14.3507C23.1973 13.2645 23.1973 11.7936 22.4081 10.7074L21.1728 9.00727C21.0709 8.86695 21.0036 8.70447 20.9765 8.53315L20.6477 6.45751C20.4377 5.13139 19.3977 4.09134 18.0715 3.88132L15.9959 3.5526C15.8246 3.52547 15.6621 3.45817 15.5218 3.35621L13.8216 2.12095ZM15.7071 11.2362C16.0976 10.8456 16.0976 10.2125 15.7071 9.82195C15.3166 9.43142 14.6834 9.43142 14.2929 9.82195L11 13.1148L9.70711 11.8219C9.31658 11.4314 8.68342 11.4314 8.29289 11.8219C7.90237 12.2125 7.90237 12.8456 8.29289 13.2362L10.2929 15.2362C10.6834 15.6267 11.3166 15.6267 11.7071 15.2362L15.7071 11.2362Z" fill="url(#paint0_linear_1_110)"/>
<defs>
<linearGradient id="paint0_linear_1_110" x1="1" y1="12.5291" x2="23" y2="12.5291" gradientUnits="userSpaceOnUse">
<stop stop-color="#12B2F9"/>
<stop offset="1" stop-color="#514DFA"/>
</linearGradient>
</defs>
</svg>
