<svg width="20" height="21" viewBox="0 0 20 21" fill="none" xmlns="http://www.w3.org/2000/svg">
<path fill-rule="evenodd" clip-rule="evenodd" d="M2.97909 3.03648C2.89137 3.02963 2.7695 3.02904 2.54333 3.02904H1.66665C1.20641 3.02904 0.833313 2.65594 0.833313 2.1957C0.833313 1.73547 1.20641 1.36237 1.66665 1.36237L2.56816 1.36237C2.75977 1.36234 2.94823 1.36232 3.10897 1.37488C3.28692 1.38879 3.49492 1.42153 3.70774 1.52207C4.00548 1.66273 4.25489 1.88843 4.42447 2.1707C4.54569 2.37247 4.59896 2.57617 4.63051 2.75186C4.65677 2.89814 4.67474 3.06892 4.69231 3.24407L2.98845 3.03762L2.97909 3.03648ZM4.69231 3.24407L16.6729 4.69573C18.2717 4.70241 19.4546 6.18887 19.0999 7.74976L17.7741 13.5831C17.5154 14.7213 16.5035 15.529 15.3363 15.529L6.81527 15.5291C6.53096 15.5293 6.28512 15.5295 6.06101 15.4887C5.12562 15.3186 4.36767 14.6327 4.10534 13.7188C4.04249 13.4999 4.01821 13.2553 3.99012 12.9723L3.04085 3.47929C3.01834 3.25424 3.00563 3.13303 2.99008 3.04642L2.98845 3.03762L4.69231 3.24407ZM4.69231 3.24407L4.83747 4.6957H16.662L4.69231 3.24407ZM7.08331 17.1957C6.39296 17.1957 5.83331 17.7553 5.83331 18.4457C5.83331 19.1361 6.39296 19.6957 7.08331 19.6957C7.77367 19.6957 8.33331 19.1361 8.33331 18.4457C8.33331 17.7553 7.77367 17.1957 7.08331 17.1957ZM13.75 17.1957C13.0596 17.1957 12.5 17.7553 12.5 18.4457C12.5 19.1361 13.0596 19.6957 13.75 19.6957C14.4403 19.6957 15 19.1361 15 18.4457C15 17.7553 14.4403 17.1957 13.75 17.1957Z" fill="#1F80FF"/>
</svg>
