<svg width="24" height="25" viewBox="0 0 24 25" fill="none" xmlns="http://www.w3.org/2000/svg">
<g clip-path="url(#clip0_1_83)">
<path d="M2.75 0.529053C1.231 0.529053 0 1.76005 0 3.27905V12.0291H11.5V0.529053H2.75ZM7.25 7.27905H6.25V8.27905C6.25 8.69305 5.914 9.02905 5.5 9.02905C5.086 9.02905 4.75 8.69305 4.75 8.27905V7.27905H3.75C3.336 7.27905 3 6.94305 3 6.52905C3 6.11505 3.336 5.77905 3.75 5.77905H4.75V4.77905C4.75 4.36505 5.086 4.02905 5.5 4.02905C5.914 4.02905 6.25 4.36505 6.25 4.77905V5.77905H7.25C7.664 5.77905 8 6.11505 8 6.52905C8 6.94305 7.664 7.27905 7.25 7.27905Z" fill="#3AA2FF"/>
<path d="M0 13.0291V21.7791C0 23.2981 1.231 24.5291 2.75 24.5291H11.5V13.0291H0ZM7.53 19.4991C7.823 19.7921 7.823 20.2671 7.53 20.5601C7.384 20.7061 7.192 20.7791 7 20.7791C6.808 20.7791 6.616 20.7061 6.47 20.5591L5.75 19.8391L5.03 20.5591C4.884 20.7051 4.692 20.7791 4.5 20.7791C4.308 20.7791 4.116 20.7061 3.97 20.5591C3.677 20.2661 3.677 19.7911 3.97 19.4981L4.69 18.7781L3.97 18.0581C3.677 17.7651 3.677 17.2901 3.97 16.9971C4.263 16.7041 4.738 16.7041 5.031 16.9971L5.751 17.7171L6.471 16.9971C6.764 16.7041 7.239 16.7041 7.532 16.9971C7.825 17.2901 7.825 17.7651 7.532 18.0581L6.812 18.7781L7.53 19.4991Z" fill="#3AA2FF"/>
<path d="M21.25 0.529053H12.5V12.0291H24V3.27905C24 1.76005 22.769 0.529053 21.25 0.529053ZM20.75 7.02905H16.25C15.836 7.02905 15.5 6.69305 15.5 6.27905C15.5 5.86505 15.836 5.52905 16.25 5.52905H20.75C21.164 5.52905 21.5 5.86505 21.5 6.27905C21.5 6.69305 21.164 7.02905 20.75 7.02905Z" fill="#3AA2FF"/>
<path d="M12.5 13.0291V24.5291H21.25C22.769 24.5291 24 23.2981 24 21.7791V13.0291H12.5ZM20.5 21.0291H16C15.586 21.0291 15.25 20.6931 15.25 20.2791C15.25 19.8651 15.586 19.5291 16 19.5291H20.5C20.914 19.5291 21.25 19.8651 21.25 20.2791C21.25 20.6931 20.914 21.0291 20.5 21.0291ZM20.5 18.0291H16C15.586 18.0291 15.25 17.6931 15.25 17.2791C15.25 16.8651 15.586 16.5291 16 16.5291H20.5C20.914 16.5291 21.25 16.8651 21.25 17.2791C21.25 17.6931 20.914 18.0291 20.5 18.0291Z" fill="#3AA2FF"/>
</g>
<defs>
<clipPath id="clip0_1_83">
<rect width="24" height="24" fill="white" transform="translate(0 0.529053)"/>
</clipPath>
</defs>
</svg>
