<svg width="16" height="17" viewBox="0 0 16 17" fill="none" xmlns="http://www.w3.org/2000/svg">
<path fill-rule="evenodd" clip-rule="evenodd" d="M5.99998 1.80101C5.99998 1.43282 5.7015 1.13434 5.33331 1.13434C4.96512 1.13434 4.66665 1.43282 4.66665 1.80101V2.46767H3.99998C2.52722 2.46767 1.33331 3.66158 1.33331 5.13434V13.1343C1.33331 14.6071 2.52722 15.801 3.99998 15.801H12C13.4727 15.801 14.6666 14.6071 14.6666 13.1343V5.13434C14.6666 3.66158 13.4727 2.46767 12 2.46767H11.3333V1.80101C11.3333 1.43282 11.0348 1.13434 10.6666 1.13434C10.2985 1.13434 9.99998 1.43282 9.99998 1.80101V2.46767H5.99998V1.80101ZM3.99998 3.80101H4.66665V4.46767C4.66665 4.83586 4.96512 5.13434 5.33331 5.13434C5.7015 5.13434 5.99998 4.83586 5.99998 4.46767V3.80101H9.99998V4.46767C9.99998 4.83586 10.2985 5.13434 10.6666 5.13434C11.0348 5.13434 11.3333 4.83586 11.3333 4.46767V3.80101H12C12.7364 3.80101 13.3333 4.39796 13.3333 5.13434V6.46767H2.66665V5.13434C2.66665 4.39796 3.2636 3.80101 3.99998 3.80101Z" fill="#615DFF"/>
</svg>
