<svg width="20" height="21" viewBox="0 0 20 21" fill="none" xmlns="http://www.w3.org/2000/svg">
<path fill-rule="evenodd" clip-rule="evenodd" d="M9.99998 1.36237C4.93737 1.36237 0.833313 5.46642 0.833313 10.529C0.833313 15.5916 4.93737 19.6957 9.99998 19.6957C15.0626 19.6957 19.1666 15.5916 19.1666 10.529C19.1666 5.46642 15.0626 1.36237 9.99998 1.36237ZM13.9226 6.60644C13.5971 6.28101 13.0695 6.28101 12.7441 6.60644L6.07739 13.2731C5.75195 13.5985 5.75195 14.1262 6.07739 14.4516C6.40283 14.7771 6.93046 14.7771 7.2559 14.4516L13.9226 7.78495C14.248 7.45952 14.248 6.93188 13.9226 6.60644ZM7.49998 6.77903C6.80962 6.77903 6.24998 7.33868 6.24998 8.02903C6.24998 8.71939 6.80962 9.27903 7.49998 9.27903C8.19034 9.27903 8.74998 8.71939 8.74998 8.02903C8.74998 7.33868 8.19034 6.77903 7.49998 6.77903ZM12.5 11.779C11.8096 11.779 11.25 12.3387 11.25 13.029C11.25 13.7194 11.8096 14.279 12.5 14.279C13.1903 14.279 13.75 13.7194 13.75 13.029C13.75 12.3387 13.1903 11.779 12.5 11.779Z" fill="#FF7520"/>
</svg>
