<svg width="100" height="109" viewBox="0 0 100 109" fill="none" xmlns="http://www.w3.org/2000/svg">
<g filter="url(#filter0_dddd_2287_12238)">
<path d="M28.2461 16.6352C29.9056 7.9559 38.287 2.26527 46.9663 3.92483L62.6816 6.92974C71.3609 8.5893 77.0515 16.9706 75.392 25.6499L72.387 41.3652C70.7275 50.0446 62.3462 55.7352 53.6668 54.0756L37.9515 51.0707C29.2722 49.4112 23.5816 41.0298 25.2412 32.3505L28.2461 16.6352Z" fill="url(#paint0_linear_2287_12238)"/>
<g filter="url(#filter1_d_2287_12238)">
<path fill-rule="evenodd" clip-rule="evenodd" d="M44.7256 18.0985C45.3043 17.979 45.9009 17.9745 46.4813 18.0855C47.0618 18.1965 47.6147 18.4207 48.1084 18.7454C48.6022 19.07 49.0272 19.4888 49.3592 19.9777C49.6911 20.4666 49.9235 21.0161 50.0431 21.5948C50.1627 22.1735 50.1671 22.7701 50.0561 23.3506C49.9452 23.931 49.7209 24.4839 49.3963 24.9777C49.0716 25.4715 48.6529 25.8965 48.164 26.2284C47.6751 26.5604 47.1256 26.7928 46.5468 26.9123C45.9681 27.0319 45.3715 27.0364 44.7911 26.9254C44.2106 26.8144 43.6578 26.5902 43.164 26.2655C42.6702 25.9408 42.2452 25.5221 41.9133 25.0332C41.5813 24.5443 41.3489 23.9948 41.2293 23.4161C41.1097 22.8374 41.1053 22.2407 41.2163 21.6603C41.3273 21.0799 41.5515 20.527 41.8761 20.0332C42.2008 19.5394 42.6195 19.1144 43.1084 18.7825C43.5974 18.4505 44.1469 18.2181 44.7256 18.0985ZM53.0984 19.649C53.5553 19.3387 54.1772 19.4576 54.4874 19.9146L56.7061 23.1823L59.9738 20.9636C60.4307 20.6534 61.0526 20.7723 61.3628 21.2292C61.6731 21.6861 61.5542 22.308 61.0972 22.6182L57.8295 24.8369L60.0482 28.1046C60.3584 28.5616 60.2395 29.1835 59.7826 29.4937C59.3257 29.8039 58.7038 29.685 58.3936 29.2281L56.1749 25.9604L52.9072 28.179C52.4502 28.4893 51.8283 28.3704 51.5181 27.9134C51.2079 27.4565 51.3268 26.8346 51.7837 26.5244L55.0514 24.3057L52.8328 21.038C52.5225 20.5811 52.6414 19.9592 53.0984 19.649ZM44.4155 28.8898C44.7679 28.9572 45.0573 29.2083 45.1736 29.5477L47.7878 37.1744C47.9034 37.5116 47.8307 37.8849 47.5971 38.1541C47.3635 38.4233 47.0042 38.5478 46.654 38.4809L38.7964 36.9784C38.4463 36.9115 38.1582 36.6632 38.0404 36.3268C37.9226 35.9903 37.9927 35.6166 38.2246 35.3458L43.468 29.2216C43.7014 28.949 44.063 28.8224 44.4155 28.8898ZM50.612 31.0927C50.7157 30.5503 51.2396 30.1946 51.782 30.2983L58.6575 31.613C59.1999 31.7167 59.5556 32.2405 59.4519 32.783L58.1372 39.6584C58.0335 40.2009 57.5097 40.5566 56.9672 40.4528L50.0918 39.1382C49.5493 39.0345 49.1936 38.5106 49.2974 37.9682L50.612 31.0927Z" fill="white"/>
</g>
</g>
<defs>
<filter id="filter0_dddd_2287_12238" x="-1.76373" y="-0.0800781" width="104.161" height="111.16" filterUnits="userSpaceOnUse" color-interpolation-filters="sRGB">
<feFlood flood-opacity="0" result="BackgroundImageFix"/>
<feColorMatrix in="SourceAlpha" type="matrix" values="0 0 0 0 0 0 0 0 0 0 0 0 0 0 0 0 0 0 127 0" result="hardAlpha"/>
<feMorphology radius="6" operator="erode" in="SourceAlpha" result="effect1_dropShadow_2287_12238"/>
<feOffset dy="30"/>
<feGaussianBlur stdDeviation="15"/>
<feComposite in2="hardAlpha" operator="out"/>
<feColorMatrix type="matrix" values="0 0 0 0 0 0 0 0 0 0 0 0 0 0 0 0 0 0 0.08 0"/>
<feBlend mode="normal" in2="BackgroundImageFix" result="effect1_dropShadow_2287_12238"/>
<feColorMatrix in="SourceAlpha" type="matrix" values="0 0 0 0 0 0 0 0 0 0 0 0 0 0 0 0 0 0 127 0" result="hardAlpha"/>
<feMorphology radius="5" operator="erode" in="SourceAlpha" result="effect2_dropShadow_2287_12238"/>
<feOffset dy="14"/>
<feGaussianBlur stdDeviation="10"/>
<feComposite in2="hardAlpha" operator="out"/>
<feColorMatrix type="matrix" values="0 0 0 0 0 0 0 0 0 0 0 0 0 0 0 0 0 0 0.08 0"/>
<feBlend mode="normal" in2="effect1_dropShadow_2287_12238" result="effect2_dropShadow_2287_12238"/>
<feColorMatrix in="SourceAlpha" type="matrix" values="0 0 0 0 0 0 0 0 0 0 0 0 0 0 0 0 0 0 127 0" result="hardAlpha"/>
<feMorphology radius="1" operator="erode" in="SourceAlpha" result="effect3_dropShadow_2287_12238"/>
<feOffset dy="2"/>
<feGaussianBlur stdDeviation="2"/>
<feComposite in2="hardAlpha" operator="out"/>
<feColorMatrix type="matrix" values="0 0 0 0 0.0431373 0 0 0 0 0.12549 0 0 0 0 0.403922 0 0 0 0.14 0"/>
<feBlend mode="normal" in2="effect2_dropShadow_2287_12238" result="effect3_dropShadow_2287_12238"/>
<feColorMatrix in="SourceAlpha" type="matrix" values="0 0 0 0 0 0 0 0 0 0 0 0 0 0 0 0 0 0 127 0" result="hardAlpha"/>
<feMorphology radius="2" operator="erode" in="SourceAlpha" result="effect4_dropShadow_2287_12238"/>
<feOffset dy="8"/>
<feGaussianBlur stdDeviation="4"/>
<feComposite in2="hardAlpha" operator="out"/>
<feColorMatrix type="matrix" values="0 0 0 0 0.0431373 0 0 0 0 0.12549 0 0 0 0 0.403922 0 0 0 0.05 0"/>
<feBlend mode="normal" in2="effect3_dropShadow_2287_12238" result="effect4_dropShadow_2287_12238"/>
<feBlend mode="normal" in="SourceGraphic" in2="effect4_dropShadow_2287_12238" result="shape"/>
</filter>
<filter id="filter1_d_2287_12238" x="29.9652" y="14.9004" width="40.0803" height="40.0801" filterUnits="userSpaceOnUse" color-interpolation-filters="sRGB">
<feFlood flood-opacity="0" result="BackgroundImageFix"/>
<feColorMatrix in="SourceAlpha" type="matrix" values="0 0 0 0 0 0 0 0 0 0 0 0 0 0 0 0 0 0 127 0" result="hardAlpha"/>
<feOffset dy="6"/>
<feGaussianBlur stdDeviation="3"/>
<feComposite in2="hardAlpha" operator="out"/>
<feColorMatrix type="matrix" values="0 0 0 0 0 0 0 0 0 0 0 0 0 0 0 0 0 0 0.2 0"/>
<feBlend mode="normal" in2="BackgroundImageFix" result="effect1_dropShadow_2287_12238"/>
<feBlend mode="normal" in="SourceGraphic" in2="effect1_dropShadow_2287_12238" result="shape"/>
</filter>
<linearGradient id="paint0_linear_2287_12238" x1="45.1144" y1="14.5331" x2="10.4449" y2="61.9507" gradientUnits="userSpaceOnUse">
<stop stop-color="#12B2F9"/>
<stop offset="1" stop-color="#514DFA"/>
</linearGradient>
</defs>
</svg>
