<svg width="21" height="22" viewBox="0 0 21 22" fill="none" xmlns="http://www.w3.org/2000/svg">
<g filter="url(#filter0_d_2287_12375)">
<path fill-rule="evenodd" clip-rule="evenodd" d="M14.3232 1.93092C14.2688 1.00281 15.5131 0.646536 15.958 1.46379L15.9805 1.50528L16.025 1.58624C16.2919 2.06992 16.6951 2.4644 17.1846 2.72051C17.674 2.97662 18.228 3.08304 18.7775 3.02651C19.7335 2.92843 20.1016 4.23789 19.2345 4.65227C18.7332 4.89164 18.3139 5.27401 18.0295 5.75121C17.7451 6.22841 17.6083 6.7791 17.6363 7.33391L17.6421 7.4551C17.6881 8.38447 16.4414 8.72837 16.0033 7.90813L15.9556 7.81609C15.6936 7.32561 15.2917 6.9241 14.801 6.66261C14.3102 6.40111 13.7528 6.29142 13.1996 6.34748C12.2443 6.44428 11.8773 5.13885 12.7432 4.72375C13.2427 4.48416 13.66 4.10199 13.9425 3.62547C14.225 3.14894 14.3601 2.59942 14.3306 2.04622L14.3266 1.97018L14.3232 1.93092Z" fill="white"/>
<path fill-rule="evenodd" clip-rule="evenodd" d="M5.45767 7.41584C5.36575 5.84696 7.46912 5.24472 8.2212 6.6262L8.25929 6.69633L8.3345 6.83319C8.78554 7.65081 9.46721 8.31762 10.2946 8.75054C11.1219 9.18347 12.0584 9.36336 12.9872 9.26782C14.6033 9.10201 15.2255 11.3155 13.7597 12.016C12.9123 12.4206 12.2036 13.067 11.7228 13.8736C11.2421 14.6803 11.0108 15.6111 11.0581 16.549L11.0679 16.7539C11.1457 18.3249 9.03831 18.9062 8.29767 17.5197L8.21719 17.3641C7.7743 16.535 7.0949 15.8563 6.26534 15.4142C5.43579 14.9722 4.49353 14.7868 3.55835 14.8816C1.94349 15.0452 1.32322 12.8385 2.78684 12.1368C3.63118 11.7318 4.33663 11.0858 4.81419 10.2803C5.29175 9.47477 5.52002 8.54585 5.47019 7.61074L5.46345 7.48219L5.45767 7.41584Z" fill="white"/>
</g>
<defs>
<filter id="filter0_d_2287_12375" x="0.960632" y="1.00781" width="19.7631" height="20.2939" filterUnits="userSpaceOnUse" color-interpolation-filters="sRGB">
<feFlood flood-opacity="0" result="BackgroundImageFix"/>
<feColorMatrix in="SourceAlpha" type="matrix" values="0 0 0 0 0 0 0 0 0 0 0 0 0 0 0 0 0 0 127 0" result="hardAlpha"/>
<feOffset dy="2"/>
<feGaussianBlur stdDeviation="0.5"/>
<feComposite in2="hardAlpha" operator="out"/>
<feColorMatrix type="matrix" values="0 0 0 0 0 0 0 0 0 0 0 0 0 0 0 0 0 0 0.25 0"/>
<feBlend mode="normal" in2="BackgroundImageFix" result="effect1_dropShadow_2287_12375"/>
<feBlend mode="normal" in="SourceGraphic" in2="effect1_dropShadow_2287_12375" result="shape"/>
</filter>
</defs>
</svg>
