<svg width="16" height="17" viewBox="0 0 16 17" fill="none" xmlns="http://www.w3.org/2000/svg">
<path d="M2.4926 3.14181C1.52692 3.22508 0.757425 3.99457 0.674159 4.96025C0.868576 5.07104 1.09357 5.13434 1.33335 5.13434C2.06973 5.13434 2.66669 4.53738 2.66669 3.80101C2.66669 3.56122 2.60339 3.33623 2.4926 3.14181Z" fill="#0070E0"/>
<path fill-rule="evenodd" clip-rule="evenodd" d="M3.91601 3.13434C3.97085 3.34742 4.00002 3.57081 4.00002 3.80101C4.00002 5.27376 2.80611 6.46767 1.33335 6.46767C1.10315 6.46767 0.879767 6.4385 0.666687 6.38366V10.5517C0.879767 10.4968 1.10315 10.4677 1.33335 10.4677C2.80611 10.4677 4.00002 11.6616 4.00002 13.1343C4.00002 13.3645 3.97085 13.5879 3.91601 13.801H12.084C12.0292 13.5879 12 13.3645 12 13.1343C12 11.6616 13.1939 10.4677 14.6667 10.4677C14.8969 10.4677 15.1203 10.4968 15.3334 10.5517V6.38366C15.1203 6.4385 14.8969 6.46767 14.6667 6.46767C13.1939 6.46767 12 5.27376 12 3.80101C12 3.57081 12.0292 3.34742 12.084 3.13434H3.91601ZM8.00002 5.13434C8.36821 5.13434 8.66669 5.43282 8.66669 5.80101H9.33335C9.70154 5.80101 10 6.09948 10 6.46767C10 6.83586 9.70154 7.13434 9.33335 7.13434H7.66669C7.48259 7.13434 7.33335 7.28358 7.33335 7.46767C7.33335 7.65177 7.48259 7.80101 7.66669 7.80101H8.33335C9.25383 7.80101 10 8.5472 10 9.46767C10 10.274 9.42743 10.9466 8.66669 11.101V11.1343C8.66669 11.5025 8.36821 11.801 8.00002 11.801C7.63183 11.801 7.33335 11.5025 7.33335 11.1343L6.66669 11.1343C6.2985 11.1343 6.00002 10.8359 6.00002 10.4677C6.00002 10.0995 6.2985 9.80101 6.66669 9.80101H8.33335C8.51745 9.80101 8.66669 9.65177 8.66669 9.46767C8.66669 9.28358 8.51745 9.13434 8.33335 9.13434H7.66669C6.74621 9.13434 6.00002 8.38815 6.00002 7.46767C6.00002 6.66135 6.57261 5.98877 7.33335 5.83434V5.80101C7.33335 5.43282 7.63183 5.13434 8.00002 5.13434Z" fill="#0070E0"/>
<path d="M13.5074 3.14181C13.3966 3.33623 13.3334 3.56122 13.3334 3.80101C13.3334 4.53738 13.9303 5.13434 14.6667 5.13434C14.9065 5.13434 15.1315 5.07104 15.3259 4.96025C15.2426 3.99457 14.4731 3.22508 13.5074 3.14181Z" fill="#0070E0"/>
<path d="M15.3259 11.9751C15.1315 11.8643 14.9065 11.801 14.6667 11.801C13.9303 11.801 13.3334 12.398 13.3334 13.1343C13.3334 13.3741 13.3966 13.5991 13.5074 13.7935C14.4731 13.7103 15.2426 12.9408 15.3259 11.9751Z" fill="#0070E0"/>
<path d="M2.4926 13.7935C2.60339 13.5991 2.66669 13.3741 2.66669 13.1343C2.66669 12.398 2.06973 11.801 1.33335 11.801C1.09357 11.801 0.868576 11.8643 0.674159 11.9751C0.757425 12.9408 1.52692 13.7103 2.4926 13.7935Z" fill="#0070E0"/>
</svg>
