<svg width="129" height="41" viewBox="0 0 129 41" fill="none" xmlns="http://www.w3.org/2000/svg">
<g clip-path="url(#clip0_2287_11029)">
<mask id="mask0_2287_11029" style="mask-type:luminance" maskUnits="userSpaceOnUse" x="0" y="0" width="129" height="41">
<path d="M0.000961304 0.5H128.486V40.4176H0.000961304V0.5Z" fill="white"/>
</mask>
<g mask="url(#mask0_2287_11029)">
<path d="M10.725 32.357C4.48864 32.357 0.565002 27.5934 0.565002 21.9946C0.565002 16.397 4.48864 11.6334 10.725 11.6334C12.7286 11.6334 14.4559 12.4334 15.9068 13.4976V11.9012H19.7662V16.0976C19.7662 18.5946 16.8765 19.4794 15.2886 18.0879L15.1383 17.9461C13.588 16.3558 12.1444 15.4915 10.7262 15.4915C6.86076 15.4915 4.4244 18.2794 4.4244 21.9946C4.4244 25.7109 6.86076 28.4976 10.725 28.4976C11.4583 28.4976 12.3432 28.1825 13.3541 27.5061C14.3505 26.8382 15.3286 25.9121 16.2099 24.9255C17.2107 23.7973 18.121 22.592 18.9323 21.3206L19.1977 20.8915C19.4743 20.4468 19.7621 20.0091 20.0608 19.5788C20.8044 18.5024 21.6123 17.4718 22.4802 16.4928C23.4826 15.3715 24.7044 14.1897 26.068 13.277C27.4147 12.374 29.0511 11.6334 30.8438 11.6334C37.0802 11.6334 41.0026 16.397 41.0026 21.9946C41.0026 27.5921 37.0802 32.357 30.8438 32.357C28.8402 32.357 27.1129 31.557 25.6608 30.4928V40.1655H21.8014V27.8915C21.8014 25.3146 24.8826 24.454 26.4305 26.0431L26.7189 26.3328C28.1602 27.7388 29.5129 28.4976 30.8438 28.4976C34.7068 28.4976 37.1444 25.7097 37.1444 21.9946C37.1444 18.2794 34.708 15.4928 30.8438 15.4915C30.1105 15.4915 29.2256 15.8067 28.2147 16.4843C27.2183 17.1509 26.2402 18.0794 25.3589 19.0661C24.3583 20.194 23.448 21.3989 22.6365 22.6697L22.188 23.3934C21.2647 24.8406 20.2284 26.2126 19.0886 27.4964C18.0862 28.6176 16.8644 29.7994 15.5008 30.7121C14.1529 31.6152 12.5165 32.357 10.725 32.357ZM47.2838 40.4164H42.9989V21.9921C42.9989 20.0964 43.4402 18.3946 44.3226 16.8891C45.2146 15.3993 46.4758 14.1647 47.9844 13.3049C49.5432 12.4225 51.2959 11.9812 53.2438 11.9812C55.1905 11.9812 56.9311 12.4358 58.4632 13.3449C59.9699 14.2277 61.219 15.4898 62.0862 17.0055C62.9953 18.5121 63.4486 20.174 63.4486 21.9921C63.4486 23.94 63.0208 25.6794 62.1638 27.2115C61.3234 28.7012 60.0997 29.9388 58.6195 30.7958C57.1129 31.6782 55.3856 32.1194 53.4377 32.1194C51.9942 32.1289 50.5725 31.767 49.3092 31.0685C48.0365 30.3412 47.0111 29.4055 46.2317 28.2637C45.4789 27.1206 45.102 25.8879 45.102 24.5631L47.2838 25.42V40.4164ZM53.2438 28.0685C54.3856 28.0685 55.3989 27.7958 56.2814 27.2503C57.1737 26.7223 57.9125 25.9702 58.4244 25.0685C58.9418 24.1402 59.2099 23.0937 59.2026 22.0309C59.2133 20.9797 58.9447 19.9444 58.4244 19.0309C57.9123 18.1294 57.1736 17.3773 56.2814 16.8491C55.3989 16.3037 54.3856 16.0322 53.2438 16.0322C52.1008 16.0322 51.0741 16.3049 50.165 16.8503C49.2903 17.3875 48.5667 18.1383 48.062 19.0321C47.5419 19.9453 47.2734 20.9801 47.2838 22.0309C47.2838 23.1218 47.5432 24.134 48.062 25.0685C48.5668 25.9626 49.291 26.7135 50.1662 27.2503C51.0753 27.7958 52.1008 28.0685 53.2438 28.0685ZM72.7808 32.1206C71.1444 32.1206 69.7674 31.8091 68.6511 31.1861C67.5582 30.562 66.6765 29.6259 66.1189 28.4976C65.548 27.3546 65.262 26.0443 65.262 24.5631V7.54245H69.508V24.4479C69.508 25.6418 69.8462 26.5776 70.5214 27.2528C71.1965 27.9279 72.0789 28.2649 73.1699 28.2649C73.8024 28.2597 74.4313 28.1679 75.0389 27.9921C75.6369 27.8099 76.2023 27.5341 76.7141 27.1752V31.0697C76.2208 31.3812 75.6111 31.6273 74.8838 31.8091C74.2016 32.0144 73.4932 32.1186 72.7808 32.1206ZM76.7141 16.1497H66.0353V12.4879H76.7141V16.1485V16.1497ZM79.0959 13.2006C79.7306 13.6231 80.4759 13.8484 81.2383 13.8484C82.0007 13.8484 82.7461 13.6231 83.3808 13.2006V31.614H79.0959V13.2006ZM81.2377 12.2673C80.7444 12.2673 80.2765 12.1509 79.8353 11.9182C79.4245 11.6628 79.0781 11.316 78.8232 10.9049C78.5917 10.4737 78.4709 9.99182 78.4717 9.50245C78.4717 8.98366 78.5892 8.51579 78.8232 8.10003C79.0826 7.68548 79.4208 7.36063 79.8353 7.12669C80.2765 6.8673 80.7444 6.7376 81.2377 6.7376C81.7577 6.7376 82.2123 6.8673 82.6014 7.12548C83.0171 7.36063 83.3407 7.68548 83.5747 8.10003C83.8353 8.51579 83.965 8.98366 83.965 9.50245C83.965 9.99579 83.8353 10.4637 83.5747 10.9049C83.342 11.3206 83.0171 11.6576 82.6014 11.9182C82.1876 12.1579 81.7158 12.2779 81.2377 12.2673ZM95.228 32.0806C93.8905 32.0885 92.5653 31.8237 91.3335 31.3025C90.1316 30.7954 89.0349 30.0687 88.0995 29.1594C87.1908 28.2244 86.4644 27.1281 85.9577 25.9267C85.4359 24.6946 85.1707 23.369 85.1783 22.0309C85.1783 20.6285 85.4377 19.3303 85.9577 18.1352C86.4586 16.9422 87.186 15.8575 88.0995 14.9412C89.0263 14.0117 90.1246 13.2708 91.3335 12.7594C92.5653 12.2381 93.8905 11.9733 95.228 11.9812C96.9705 11.9941 98.683 12.4354 100.215 13.2661C101.747 14.0709 102.954 15.357 103.837 17.1231L100.292 19.0709C99.7468 18.0831 99.0317 17.3303 98.1505 16.8115C97.2923 16.2915 96.3202 16.0322 95.2292 16.0322C94.1626 16.0322 93.1892 16.3049 92.3068 16.8503C91.4455 17.3743 90.7344 18.1121 90.2426 18.9921C89.7226 19.9012 89.4632 20.9146 89.4632 22.0309C89.4632 23.1218 89.7226 24.1218 90.2426 25.0297C90.7614 25.9388 91.4498 26.6661 92.3068 27.2115C93.1892 27.757 94.1638 28.0297 95.228 28.0297C96.3189 28.0297 97.2923 27.7703 98.1492 27.2503C99.0329 26.7315 99.7468 25.9776 100.292 24.9909L103.837 26.9388C102.954 28.6782 101.747 29.9643 100.215 30.7958C98.683 31.6266 96.9705 32.0678 95.228 32.0806ZM112.02 32.0806C110.177 32.0806 108.58 31.7303 107.229 31.0297C105.904 30.3025 104.853 29.2237 104.074 27.7958L107.307 26.0043C107.8 26.9134 108.41 27.5618 109.137 27.9521C109.89 28.3412 110.786 28.5364 111.826 28.5364C112.459 28.5464 113.09 28.4543 113.695 28.2637C114.24 28.0564 114.669 27.7837 114.98 27.4455C115.292 27.0818 115.447 26.6406 115.447 26.1206C115.447 25.4721 115.175 24.9921 114.63 24.6794C114.11 24.3679 113.435 24.1218 112.604 23.94C111.799 23.7582 110.93 23.5643 109.994 23.3558C109.099 23.1527 108.225 22.8658 107.384 22.4988C106.591 22.1186 105.897 21.5583 105.359 20.8625C104.84 20.1352 104.58 19.1618 104.58 17.9412C104.58 16.8249 104.891 15.8249 105.515 14.9412C106.138 14.0588 106.994 13.357 108.085 12.8382C109.176 12.3182 110.437 12.0588 111.864 12.0588C113.11 12.0588 114.201 12.2406 115.137 12.6043C116.097 12.9425 116.915 13.4091 117.59 14.0067C118.237 14.5683 118.778 15.2411 119.187 15.9934L115.954 17.8237C115.59 17.0188 115.045 16.4479 114.318 16.1097C113.617 15.7728 112.826 15.6043 111.942 15.6043C111.397 15.6043 110.89 15.7073 110.423 15.9158C109.987 16.0756 109.598 16.3434 109.293 16.694C109.007 17.0067 108.864 17.3958 108.864 17.8637C108.864 18.46 109.125 18.9279 109.644 19.2649C110.189 19.5776 110.864 19.837 111.669 20.0443C112.501 20.2261 113.371 20.42 114.279 20.6285C115.181 20.8253 116.056 21.1263 116.889 21.5255C117.691 21.8917 118.387 22.4545 118.914 23.1618C119.435 23.8612 119.693 24.8225 119.693 26.0431C119.693 27.2637 119.343 28.3291 118.643 29.237C117.941 30.1461 117.006 30.8479 115.838 31.3412C114.669 31.8346 113.397 32.0806 112.02 32.0806ZM119.4 5.73882C119.4 3.44306 121.152 1.71094 123.449 1.71094C125.764 1.71094 127.515 3.44306 127.515 5.71942C127.515 7.997 125.764 9.70851 123.449 9.70851C121.152 9.70851 119.4 7.997 119.4 5.73882ZM126.64 5.71942C126.64 3.85154 125.297 2.48912 123.449 2.48912C121.62 2.48912 120.277 3.85154 120.277 5.73882C120.277 7.5873 121.62 8.93033 123.449 8.93033C125.297 8.93033 126.64 7.56791 126.64 5.71942ZM121.93 7.9376V3.50124H123.623C124.674 3.50124 125.336 4.06609 125.336 4.90245C125.336 5.54488 124.947 6.01154 124.304 6.1873L125.355 7.9376H124.401L123.468 6.36185H122.787V7.9376H121.93ZM123.584 4.22124H122.787V5.64185H123.584C124.07 5.64185 124.44 5.36912 124.44 4.90245C124.44 4.45397 124.09 4.22124 123.584 4.22124Z" fill="#242424"/>
</g>
</g>
<defs>
<clipPath id="clip0_2287_11029">
<rect width="128.485" height="40" fill="white" transform="translate(0 0.5)"/>
</clipPath>
</defs>
</svg>
