<svg width="277" height="70" viewBox="0 0 277 70" fill="none" xmlns="http://www.w3.org/2000/svg">
<path d="M92.4411 27.1284C95.7155 27.1284 97.9133 28.6067 99.259 30.4433V4.28217C99.259 3.78941 98.6759 3.47583 98.2722 3.78941L65.9319 27.3972H66.7841C70.1482 27.3972 71.8527 29.5474 71.8527 31.8768C71.8527 33.7135 70.9107 35.0574 69.61 35.6397C69.3857 35.7293 69.3857 36.0429 69.61 36.1325C71.0902 36.7597 72.1667 38.3275 72.1667 40.209C72.1667 42.8968 70.4173 45.0022 67.0532 45.0022H57.858C57.6786 45.0022 57.4992 44.8678 57.4992 44.6438V33.5343L33.4121 51.1393C33.0084 51.4977 33.1879 52.1249 33.7261 52.1249H98.6759C98.9899 52.1249 99.2141 51.9009 99.2141 51.5873V42.6728C97.4648 44.2855 95.1772 45.3158 92.3962 45.3158C87.193 45.3158 82.9767 41.7321 82.9767 36.2221C83.0215 30.6673 87.2828 27.1284 92.4411 27.1284ZM79.5677 44.6886C79.5677 44.8678 79.4332 45.0022 79.2537 45.0022H76.1588C75.9793 45.0022 75.8448 44.8678 75.8448 44.6886V27.7108C75.8448 27.5316 75.9793 27.3972 76.1588 27.3972H79.2537C79.4332 27.3972 79.5677 27.5316 79.5677 27.7108V44.6886Z" fill="#34313F"/>
<path d="M61.6253 34.3852H65.9762C67.2322 34.3852 68.0396 33.6685 68.0396 32.5486C68.0396 31.4735 67.2322 30.7119 65.9762 30.7119H61.4459C61.3562 30.7119 61.2665 30.8015 61.2665 30.8911V34.0717C61.2665 34.2509 61.4459 34.3852 61.6253 34.3852Z" fill="#34313F"/>
<path d="M61.6253 41.7323H66.1557C67.5461 41.7323 68.3984 40.9708 68.3984 39.7165C68.3984 38.5965 67.591 37.7006 66.1557 37.7006H61.6253C61.4459 37.7006 61.2665 37.835 61.2665 38.059V41.3739C61.2665 41.5531 61.4459 41.7323 61.6253 41.7323Z" fill="#34313F"/>
<path d="M96.4325 32.459C95.5803 31.3391 94.1449 30.4431 92.4404 30.4431C89.2109 30.4431 86.8784 32.9069 86.8784 36.2219C86.8784 39.5368 89.2109 42.0006 92.4404 42.0006C93.9206 42.0006 95.3111 41.3735 96.0737 40.7463C96.1185 40.7015 96.1634 40.6119 96.1634 40.5224V38.8201C96.1634 38.6857 96.0288 38.5513 95.8942 38.5513H91.9022C91.6779 38.5513 91.5433 38.3721 91.5433 38.1929V35.6843C91.5433 35.4603 91.7227 35.326 91.9022 35.326H99.3032V31.3391L96.9259 32.6382C96.7465 32.683 96.5222 32.5934 96.4325 32.459Z" fill="#34313F"/>
<path d="M102.04 36.2221C102.04 30.8017 105.942 27.1284 110.966 27.1284C114.24 27.1284 116.349 28.7859 117.605 30.8017C117.694 30.9361 117.649 31.1601 117.47 31.2049L115.452 32.28C115.317 32.3696 115.138 32.3248 115.093 32.1904C114.24 30.8465 112.671 29.861 110.966 29.861C107.602 29.861 105.09 32.504 105.09 36.2221C105.09 39.8954 107.602 42.5832 110.966 42.5832C112.671 42.5832 114.24 41.5977 115.093 40.2538C115.182 40.1194 115.317 40.0746 115.452 40.1642L117.47 41.1945C117.649 41.2841 117.694 41.4633 117.605 41.6425C116.304 43.6583 114.196 45.3606 110.966 45.3606C105.942 45.3158 102.04 41.5977 102.04 36.2221Z" fill="#34313F"/>
<path d="M119.353 36.2219C119.353 31.8318 121.865 28.4273 125.633 27.4418C132.047 25.7395 137.923 31.7422 136.533 38.4169C135.681 42.5382 132.406 45.3604 128.055 45.3604C122.942 45.3156 119.353 41.4631 119.353 36.2219ZM133.662 36.2219C133.662 32.5934 131.419 29.8608 128.01 29.8608C124.557 29.8608 122.359 32.5934 122.359 36.2219C122.359 39.8504 124.557 42.583 128.01 42.583C131.464 42.583 133.662 39.8056 133.662 36.2219Z" fill="#34313F"/>
<path d="M155.014 44.7782V31.384L149.676 44.8678C149.676 44.9126 149.586 44.9574 149.541 44.9574H148.42C148.375 44.9574 148.285 44.9126 148.285 44.8678L142.903 31.384V44.7782C142.903 44.9126 142.813 45.0022 142.679 45.0022H139.987C139.853 45.0022 139.763 44.9126 139.763 44.7782V27.5763C139.763 27.4419 139.853 27.3524 139.987 27.3524H143.845C144.024 27.3524 144.159 27.442 144.248 27.6211L148.958 39.7162L153.623 27.6211C153.668 27.442 153.847 27.3524 154.027 27.3524H157.884C158.019 27.3524 158.109 27.4419 158.109 27.5763V44.7782C158.109 44.9126 158.019 45.0022 157.884 45.0022H155.193C155.148 45.0022 155.014 44.9126 155.014 44.7782Z" fill="#34313F"/>
<path d="M185.515 44.6883V27.7104C185.515 27.5313 185.65 27.3969 185.829 27.3969H197.267C197.447 27.3969 197.581 27.5313 197.581 27.7104V29.7711C197.581 29.9503 197.447 30.0847 197.267 30.0847H188.924C188.745 30.0847 188.61 30.219 188.61 30.3982V34.2955C188.61 34.4747 188.745 34.6091 188.924 34.6091H197.088C197.267 34.6091 197.402 34.7435 197.402 34.9227V36.9833C197.402 37.1625 197.267 37.2969 197.088 37.2969H188.924C188.745 37.2969 188.61 37.4313 188.61 37.6105V41.8661C188.61 42.0453 188.745 42.1797 188.924 42.1797H197.267C197.447 42.1797 197.581 42.3141 197.581 42.4933V44.5539C197.581 44.7331 197.447 44.8675 197.267 44.8675H185.829C185.65 45.0019 185.515 44.8675 185.515 44.6883Z" fill="#34313F"/>
<path d="M211.935 44.8227L208.212 38.5512C208.167 38.4616 208.032 38.4168 207.943 38.4168H205.341C205.162 38.4168 205.027 38.5512 205.027 38.7304V44.6883C205.027 44.8675 204.893 45.0019 204.713 45.0019H202.291C202.112 45.0019 201.977 44.8675 201.977 44.6883V27.7104C201.977 27.5313 202.112 27.3969 202.291 27.3969H209.737C213.236 27.3969 215.523 29.6367 215.523 32.9068C215.523 35.8186 213.729 37.4761 211.755 37.9688C211.531 38.0136 211.441 38.2376 211.531 38.4616C212.249 39.6263 214.492 43.21 215.344 44.5091C215.478 44.7331 215.344 45.0019 215.075 45.0019H212.249C212.114 45.0019 212.025 44.9571 211.935 44.8227ZM212.339 32.862C212.339 31.1598 211.083 30.0847 209.333 30.0847H205.386C205.207 30.0847 205.072 30.219 205.072 30.3982V35.3706C205.072 35.5498 205.207 35.6842 205.386 35.6842H209.333C211.083 35.6842 212.339 34.6091 212.339 32.862Z" fill="#34313F"/>
<path d="M236.425 44.6883V27.7104C236.425 27.5313 236.559 27.3969 236.739 27.3969H248.221C248.401 27.3969 248.535 27.5313 248.535 27.7104V29.8159C248.535 29.9951 248.401 30.1295 248.221 30.1295H239.834C239.654 30.1295 239.52 30.2638 239.52 30.443V34.3851C239.52 34.5643 239.654 34.6987 239.834 34.6987H247.997C248.177 34.6987 248.311 34.8331 248.311 35.0123V37.1177C248.311 37.2969 248.177 37.4313 247.997 37.4313H239.834C239.654 37.4313 239.52 37.5657 239.52 37.7449V42.0453C239.52 42.2245 239.654 42.3589 239.834 42.3589H248.221C248.401 42.3589 248.535 42.4933 248.535 42.6725V44.7779C248.535 44.9571 248.401 45.0915 248.221 45.0915H236.739C236.559 45.0019 236.425 44.8675 236.425 44.6883Z" fill="#34313F"/>
<path d="M217.765 36.1324C217.765 30.712 221.668 27.0387 226.691 27.0387C229.966 27.0387 232.074 28.6962 233.33 30.712C233.42 30.8464 233.375 31.0704 233.195 31.1152L231.177 32.1903C231.042 32.2799 230.863 32.2351 230.818 32.1007C229.966 30.7568 228.396 29.7713 226.691 29.7713C223.327 29.7713 220.815 32.4143 220.815 36.1324C220.815 39.8057 223.327 42.4935 226.691 42.4935C228.396 42.4935 229.966 41.508 230.818 40.1641C230.908 40.0297 231.042 39.9849 231.177 40.0745L233.195 41.1048C233.375 41.1944 233.42 41.3736 233.33 41.5528C232.029 43.5686 229.921 45.2709 226.691 45.2709C221.668 45.2261 217.765 41.5528 217.765 36.1324Z" fill="#34313F"/>
<path d="M177.89 44.7782V31.384L172.552 44.8678C172.552 44.9126 172.462 44.9574 172.418 44.9574H171.296C171.251 44.9574 171.162 44.9126 171.162 44.8678L165.779 31.384V44.7782C165.779 44.9126 165.689 45.0022 165.555 45.0022H162.863C162.729 45.0022 162.639 44.9126 162.639 44.7782V27.5763C162.639 27.4419 162.729 27.3524 162.863 27.3524H166.721C166.9 27.3524 167.035 27.442 167.125 27.6211L171.834 39.7162L176.499 27.6211C176.544 27.442 176.724 27.3524 176.903 27.3524H180.76C180.895 27.3524 180.985 27.4419 180.985 27.5763V44.7782C180.985 44.9126 180.895 45.0022 180.76 45.0022H178.069C177.98 45.0022 177.89 44.9126 177.89 44.7782Z" fill="#34313F"/>
</svg>
