<svg width="26" height="26" viewBox="0 0 26 26" fill="none" xmlns="http://www.w3.org/2000/svg">
<g filter="url(#filter0_d_2394_3392)">
<path fill-rule="evenodd" clip-rule="evenodd" d="M17.7874 2.31748C17.7222 1.20374 19.2153 0.77621 19.7492 1.75691L19.7763 1.8067L19.8296 1.90386C20.1498 2.48428 20.6338 2.95764 21.2211 3.26497C21.8084 3.57231 22.4732 3.70001 23.1326 3.63218C24.2798 3.51448 24.7215 5.08584 23.681 5.58308C23.0794 5.87033 22.5763 6.32918 22.235 6.90181C21.8937 7.47445 21.7295 8.13528 21.7631 8.80106L21.7701 8.94648C21.8253 10.0617 20.3293 10.4744 19.8035 9.49012L19.7464 9.37967C19.432 8.7911 18.9497 8.30929 18.3608 7.99549C17.7719 7.68169 17.103 7.55007 16.4391 7.61735C15.2927 7.7335 14.8524 6.16698 15.8914 5.66886C16.4908 5.38136 16.9916 4.92276 17.3306 4.35093C17.6696 3.7791 17.8317 3.11966 17.7963 2.45583L17.7915 2.36458L17.7874 2.31748Z" fill="white"/>
<path fill-rule="evenodd" clip-rule="evenodd" d="M7.14886 8.89978C7.03856 7.01713 9.5626 6.29444 10.4651 7.95221L10.5108 8.03637L10.6011 8.2006C11.1423 9.18174 11.9603 9.98191 12.9531 10.5014C13.946 11.0209 15.0697 11.2368 16.1843 11.1221C18.1236 10.9232 18.8703 13.5794 17.1113 14.4199C16.0944 14.9055 15.244 15.6811 14.6671 16.6491C14.0902 17.6171 13.8126 18.7341 13.8694 19.8596L13.8811 20.1054C13.9745 21.9906 11.4456 22.6882 10.5569 21.0244L10.4603 20.8376C9.92882 19.8427 9.11354 19.0283 8.11807 18.4978C7.1226 17.9674 5.9919 17.7449 4.86967 17.8586C2.93184 18.055 2.18753 15.407 3.94387 14.5649C4.95707 14.0789 5.80361 13.3037 6.37669 12.3371C6.94976 11.3705 7.22368 10.2558 7.16389 9.13366L7.1558 8.9794L7.14886 8.89978Z" fill="white"/>
</g>
<defs>
<filter id="filter0_d_2394_3392" x="1.75245" y="1.20917" width="23.7157" height="24.354" filterUnits="userSpaceOnUse" color-interpolation-filters="sRGB">
<feFlood flood-opacity="0" result="BackgroundImageFix"/>
<feColorMatrix in="SourceAlpha" type="matrix" values="0 0 0 0 0 0 0 0 0 0 0 0 0 0 0 0 0 0 127 0" result="hardAlpha"/>
<feOffset dy="2.4"/>
<feGaussianBlur stdDeviation="0.6"/>
<feComposite in2="hardAlpha" operator="out"/>
<feColorMatrix type="matrix" values="0 0 0 0 0 0 0 0 0 0 0 0 0 0 0 0 0 0 0.25 0"/>
<feBlend mode="normal" in2="BackgroundImageFix" result="effect1_dropShadow_2394_3392"/>
<feBlend mode="normal" in="SourceGraphic" in2="effect1_dropShadow_2394_3392" result="shape"/>
</filter>
</defs>
</svg>
