<svg width="278" height="36" viewBox="0 0 278 36" fill="none" xmlns="http://www.w3.org/2000/svg">
<path d="M205.991 28.3502C207.497 28.3502 208.701 27.1502 208.701 25.5002C208.701 24.0002 207.497 22.6502 205.991 22.6502C204.486 22.6502 203.282 23.8502 203.282 25.5002C203.132 27.1502 204.486 28.3502 205.991 28.3502Z" fill="#0C1142"/>
<path d="M47.9647 27.6001C46.7606 27.1501 45.7071 26.4001 44.8041 25.3501C43.9011 24.4501 43.2991 23.2501 42.8476 22.0501C42.3961 20.8501 42.0951 19.3501 42.0951 18.0001C42.0951 16.6501 42.2456 15.1501 42.6971 13.9501C43.1486 12.7501 43.7506 11.5501 44.6536 10.6501C45.5566 9.7501 46.4596 9.0001 47.6637 8.4001C48.8677 7.9501 50.2222 7.6501 51.7272 7.6501C53.0817 7.6501 54.1352 7.8001 55.1887 8.1001C56.2422 8.4001 56.9948 9.0001 57.8978 9.6001C58.6503 10.2001 59.2523 10.9501 59.7038 11.8501C60.1553 12.7501 60.4563 13.8001 60.6068 14.8501H55.4897C55.3392 13.9501 54.8877 13.2001 54.2857 12.6001C53.6837 12.0001 52.7807 11.7001 51.8777 11.7001C50.2222 11.7001 49.1687 12.3001 48.2657 13.3501C47.5132 14.4001 47.0616 16.0501 47.0616 17.8501C47.0616 19.6501 47.3627 21.1501 48.2657 22.3501C49.0182 23.5501 50.2222 24.0001 51.8777 24.0001C52.9312 24.0001 53.8342 23.7001 54.4362 23.2501C55.0382 22.6501 55.4897 21.9001 55.7907 20.7001H60.9078C60.9078 21.7501 60.6068 22.8001 60.1553 23.7001C59.7038 24.6001 59.1018 25.3501 58.3493 26.1001C57.5968 26.7001 56.6938 27.3001 55.6402 27.7501C54.5867 28.0501 53.3827 28.3501 52.0282 28.3501C50.5232 28.5001 49.1687 28.2001 47.9647 27.6001Z" fill="#0C1142"/>
<path d="M69.0346 10.6502C69.7871 9.60019 70.5396 8.85019 71.4426 8.25019C72.1951 7.80019 73.2486 7.50019 74.6032 7.50019C75.6567 7.50019 76.5597 7.65019 77.3122 8.10019C78.0647 8.40019 78.8172 9.00019 79.4192 9.60019C80.0212 10.2002 80.4727 11.1002 80.7737 12.0002C81.0747 12.9002 81.2252 13.9502 81.2252 15.0002V27.9002H75.9577V15.7502C75.9577 14.7002 75.6567 13.8002 75.0547 13.0502C74.4527 12.4502 73.5496 12.0002 72.4961 12.0002C71.2921 12.0002 70.3891 12.4502 69.6366 13.2002C68.8841 13.9502 68.4326 15.1502 68.4326 16.5002V27.7502H63.165V0.150192H68.4326L69.0346 10.6502Z" fill="#0C1142"/>
<path d="M89.954 27.6002C88.75 27.1502 87.6965 26.4002 86.7935 25.3502C85.8905 24.4502 85.2885 23.2502 84.837 22.0502C84.3855 20.7002 84.235 19.3502 84.235 18.0002C84.235 16.6502 84.3855 15.1502 84.9875 13.9502C85.439 12.7502 86.1915 11.5502 86.944 10.6502C87.847 9.75017 88.75 9.00017 89.954 8.40017C91.0076 7.80017 92.3621 7.50017 93.7166 7.50017C95.3721 7.50017 96.7266 7.80017 97.7801 8.40017C98.9841 9.00017 99.8872 9.75017 100.79 10.8002C101.543 11.8502 102.295 13.2002 102.596 14.5502C103.048 16.0502 103.198 17.7002 103.198 19.3502H89.051C89.2015 20.8502 89.8035 22.2002 90.5561 22.9502C91.3086 23.8502 92.5126 24.3002 94.0176 24.3002C95.0711 24.3002 95.8236 24.1502 96.4256 23.7002C97.0276 23.2502 97.4791 22.6502 97.7801 21.9002H103.198C103.048 22.8002 102.747 23.5502 102.295 24.4502C101.844 25.2002 101.242 25.9502 100.489 26.5502C99.7367 27.1502 98.8336 27.6002 97.7801 27.9002C96.7266 28.2002 95.6731 28.3502 94.3186 28.3502C92.6631 28.5002 91.1581 28.2002 89.954 27.6002ZM90.7066 12.7502C89.954 13.5002 89.5025 14.5502 89.2015 15.9002H97.9306C97.9306 14.7002 97.4791 13.6502 96.7266 12.7502C95.9741 12.0002 94.9206 11.5502 93.8671 11.5502C92.5126 11.5502 91.4591 12.0002 90.7066 12.7502Z" fill="#0C1142"/>
<path d="M111.176 27.6001C109.972 27.1501 108.918 26.4001 108.015 25.3501C107.112 24.4501 106.51 23.2501 106.059 22.0501C105.607 20.8501 105.306 19.3501 105.306 18.0001C105.306 16.6501 105.457 15.1501 105.908 13.9501C106.36 12.7501 106.962 11.5501 107.865 10.6501C108.768 9.7501 109.671 9.0001 110.875 8.4001C112.079 7.9501 113.433 7.6501 114.938 7.6501C116.293 7.6501 117.346 7.8001 118.4 8.1001C119.453 8.4001 120.206 9.0001 121.109 9.6001C121.861 10.2001 122.463 10.9501 122.915 11.8501C123.366 12.7501 123.667 13.8001 123.818 14.8501H118.701C118.55 13.9501 118.099 13.2001 117.497 12.6001C116.895 12.0001 115.992 11.7001 115.089 11.7001C113.433 11.7001 112.38 12.3001 111.477 13.3501C110.724 14.4001 110.273 16.0501 110.273 17.8501C110.273 19.6501 110.574 21.1501 111.477 22.3501C112.229 23.5501 113.433 24.0001 115.089 24.0001C116.142 24.0001 117.045 23.7001 117.647 23.2501C118.249 22.6501 118.701 21.9001 119.002 20.7001H123.968C123.968 21.7501 123.667 22.8001 123.216 23.7001C122.764 24.6001 122.162 25.3501 121.41 26.1001C120.657 26.7001 119.754 27.3001 118.701 27.7501C117.647 28.0501 116.443 28.3501 115.089 28.3501C113.734 28.5001 112.38 28.2001 111.176 27.6001Z" fill="#0C1142"/>
<path d="M132.095 21.1502V27.7502H126.978V0.150192H132.095V15.4502L139.018 7.95019H145.188L137.964 15.4502L146.091 27.7502H139.77L134.202 18.7502L132.095 21.1502Z" fill="#0C1142"/>
<path d="M151.81 27.6001C150.606 27.1501 149.553 26.4001 148.499 25.3501C147.596 24.4501 146.844 23.2501 146.392 22.0501C145.941 20.8501 145.64 19.3501 145.64 18.0001C145.64 16.6501 145.79 15.1501 146.392 13.9501C146.844 12.7501 147.596 11.5501 148.499 10.6501C149.402 9.7501 150.456 9.0001 151.81 8.4001C153.014 7.9501 154.369 7.6501 155.874 7.6501C157.379 7.6501 158.733 7.9501 159.937 8.4001C161.141 8.8501 162.195 9.6001 163.248 10.6501C164.151 11.5501 164.904 12.7501 165.355 13.9501C165.807 15.1501 166.108 16.6501 166.108 18.0001C166.108 19.3501 165.957 20.8501 165.355 22.0501C164.904 23.2501 164.151 24.4501 163.248 25.3501C162.345 26.2501 161.292 27.0001 159.937 27.6001C158.884 28.2001 157.379 28.5001 155.874 28.5001C154.369 28.5001 153.014 28.2001 151.81 27.6001ZM159.636 22.6501C160.539 21.4501 160.991 19.9501 160.991 18.0001C160.991 16.0501 160.539 14.5501 159.636 13.3501C158.733 12.1501 157.529 11.5501 156.024 11.5501C154.519 11.5501 153.165 12.1501 152.412 13.3501C151.509 14.5501 151.058 16.2001 151.058 18.0001C151.058 19.8001 151.509 21.4501 152.412 22.6501C153.315 23.8501 154.519 24.4501 156.024 24.4501C157.529 24.4501 158.733 23.8501 159.636 22.6501Z" fill="#0C1142"/>
<path d="M181.308 25.4999C180.555 26.3999 179.652 27.1499 178.9 27.5999C177.997 28.0499 176.943 28.3499 175.589 28.3499C173.482 28.3499 171.826 27.7499 170.472 26.3999C169.268 25.0499 168.666 23.3999 168.666 21.1499V8.0999H173.783V20.3999C173.783 21.5999 174.084 22.4999 174.535 23.0999C174.987 23.6999 175.89 23.9999 176.943 23.9999C178.147 23.9999 179.05 23.5499 179.803 22.7999C180.555 22.0499 180.856 20.8499 180.856 19.4999V8.0999H186.124V27.8999H181.157L181.308 25.4999Z" fill="#0C1142"/>
<path d="M191.392 8.1002V1.8002H196.509V8.1002H199.82V11.5502H196.509V22.0502C196.509 22.8002 196.659 23.2502 196.96 23.5502C197.261 23.8502 197.713 24.0002 198.465 24.0002H199.519C199.669 24.0002 199.82 24.0002 199.97 24.0002V27.9002C199.669 27.9002 199.519 27.9002 199.067 27.9002C198.766 27.9002 198.465 27.9002 198.014 27.9002H196.659C196.057 27.9002 195.455 27.9002 194.853 27.7502C194.251 27.6002 193.649 27.4502 193.198 27.0002C192.746 26.7002 192.295 26.1002 191.994 25.5002C191.693 24.9002 191.542 24.1502 191.542 23.1002V11.5502H188.833V8.1002H191.392Z" fill="#0C1142"/>
<path d="M216.225 27.6C215.172 27.15 214.269 26.4 213.366 25.35C212.613 24.45 212.011 23.25 211.56 22.05C211.259 20.85 210.958 19.35 210.958 17.85C210.958 16.35 211.108 15 211.56 13.65C212.011 12.45 212.613 11.25 213.366 10.35C214.118 9.44998 215.172 8.69998 216.225 8.09998C217.279 7.64998 218.633 7.34998 219.988 7.34998C222.095 7.34998 223.901 7.94998 225.406 8.99998C226.76 10.05 227.663 11.7 227.964 13.8H225.707C225.406 12.3 224.804 11.1 223.901 10.5C222.998 9.74998 221.794 9.44998 220.289 9.44998C219.085 9.44998 218.182 9.59998 217.279 10.05C216.526 10.5 215.774 11.1 215.322 11.85C214.871 12.6 214.419 13.5 214.118 14.55C213.817 15.6 213.817 16.65 213.817 17.85C213.817 19.05 213.968 20.1 214.269 21.15C214.57 22.2 214.871 23.1 215.473 23.85C215.924 24.6 216.677 25.2 217.429 25.65C218.182 26.1 219.235 26.25 220.289 26.25C221.944 26.25 223.299 25.8 224.352 24.75C225.406 23.85 226.008 22.5 226.158 20.85H228.416C228.265 23.1 227.362 24.9 226.008 26.25C224.653 27.6 222.697 28.2 220.439 28.2C218.633 28.35 217.279 28.05 216.225 27.6Z" fill="#0C1142"/>
<path d="M235.49 27.6C234.286 27.15 233.383 26.4 232.63 25.35C231.878 24.45 231.276 23.25 230.824 22.05C230.373 20.85 230.222 19.35 230.222 17.85C230.222 16.35 230.373 15 230.824 13.65C231.276 12.45 231.878 11.25 232.63 10.35C233.383 9.44998 234.436 8.69998 235.49 8.09998C236.694 7.64998 237.898 7.34998 239.253 7.34998C240.758 7.34998 241.962 7.64998 243.015 8.09998C244.069 8.54998 245.122 9.29998 245.875 10.35C246.627 11.25 247.229 12.45 247.681 13.65C248.132 14.85 248.283 16.35 248.283 17.85C248.283 19.35 248.132 20.7 247.681 22.05C247.229 23.25 246.627 24.45 245.875 25.35C245.122 26.25 244.069 27 243.015 27.6C241.962 28.05 240.607 28.35 239.253 28.35C237.898 28.35 236.694 28.05 235.49 27.6ZM242.263 25.8C243.166 25.35 243.768 24.75 244.37 24C244.972 23.25 245.423 22.35 245.574 21.3C245.875 20.25 246.025 19.2 246.025 18C246.025 16.8 245.875 15.75 245.574 14.7C245.273 13.65 244.821 12.75 244.37 12C243.768 11.25 243.166 10.65 242.263 10.2C241.36 9.74998 240.457 9.59998 239.403 9.59998C238.35 9.59998 237.296 9.74998 236.544 10.2C235.791 10.65 235.038 11.25 234.436 12C233.834 12.75 233.383 13.65 233.082 14.7C232.781 15.75 232.63 16.8 232.63 18C232.63 19.2 232.781 20.25 233.082 21.3C233.383 22.35 233.834 23.25 234.436 24C235.038 24.75 235.791 25.35 236.544 25.8C237.296 26.25 238.35 26.4 239.403 26.4C240.457 26.4 241.51 26.25 242.263 25.8Z" fill="#0C1142"/>
<path d="M254.151 7.79998V10.8C254.753 9.74997 255.656 8.99998 256.559 8.24998C257.462 7.64998 258.666 7.34998 260.171 7.34998C261.375 7.34998 262.429 7.64998 263.482 8.24998C264.385 8.84998 265.138 9.74998 265.439 10.95C266.041 9.74998 266.944 8.84998 267.997 8.24998C269.051 7.64998 270.255 7.34998 271.609 7.34998C272.512 7.34998 273.265 7.49998 273.867 7.79998C274.469 8.09998 275.221 8.39998 275.673 8.99998C276.124 9.44998 276.576 10.2 276.877 10.95C277.178 11.7 277.78 12.6 277.78 13.5V27.75H275.522V13.8C275.522 12.3 275.221 11.25 274.318 10.5C273.415 9.74998 272.512 9.44998 271.308 9.44998C270.556 9.44998 269.803 9.59998 269.352 9.74998C268.75 10.05 268.148 10.35 267.696 10.8C267.245 11.25 266.793 11.85 266.492 12.6C266.191 13.35 266.041 14.1 266.041 15V27.75H263.633V13.8C263.633 12.3 263.332 11.25 262.429 10.5C261.676 9.74998 260.773 9.44998 259.569 9.44998C258.817 9.44998 258.215 9.59998 257.613 9.89998C257.011 10.2 256.409 10.5 255.807 11.1C255.355 11.55 254.904 12.15 254.603 12.9C254.302 13.5 254.151 14.4 254.151 15.15V27.75H251.743V7.79998H254.151Z" fill="#0C1142"/>
<path d="M22.5296 18L31.7102 1.65C31.8607 1.35 31.8607 0.9 31.7102 0.6C31.5597 0.15 31.2587 0 30.8072 0H11.844C11.3925 0 11.0915 0.15 10.7905 0.45L1.0079 17.4C0.857394 17.7 0.857394 18.15 1.0079 18.45L10.7905 35.4C11.0915 35.85 11.3925 36 11.844 36H30.9577C31.2587 36 31.7102 35.85 31.8607 35.55C32.0112 35.25 32.0112 34.8 31.8607 34.5L22.5296 18ZM21.3256 15.9L13.65 2.25H29.0012L21.3256 15.9ZM11.6935 3.3L19.9711 18L11.6935 32.7L3.11492 18L11.6935 3.3ZM13.65 33.75L21.3256 20.1L29.0012 33.75H13.65Z" fill="#0C1142"/>
</svg>
