<svg width="21" height="23" viewBox="0 0 21 23" fill="none" xmlns="http://www.w3.org/2000/svg">
<g clip-path="url(#clip0_2287_10916)">
<path fill-rule="evenodd" clip-rule="evenodd" d="M17.797 4.73609C17.7809 4.62509 17.6842 4.56422 17.6036 4.55705C17.5231 4.54989 15.9583 4.52662 15.9583 4.52662C15.9583 4.52662 14.6477 3.25546 14.5188 3.12476C14.3899 2.99586 14.1375 3.03524 14.039 3.06389C14.0372 3.06389 13.7937 3.14088 13.3802 3.26799C13.3121 3.0442 13.2101 2.77027 13.0651 2.49455C12.5996 1.60474 11.9157 1.13388 11.0903 1.13209C11.0885 1.13209 11.0885 1.13209 11.0867 1.13209C11.0294 1.13209 10.9721 1.13746 10.9148 1.14283C10.8898 1.11418 10.8665 1.08554 10.8396 1.05689C10.4798 0.671963 10.0197 0.485765 9.46643 0.501878C8.40116 0.532314 7.33948 1.30217 6.47831 2.67001C5.87317 3.63144 5.41126 4.83993 5.28056 5.77629C4.05774 6.15585 3.20195 6.42082 3.18225 6.42619C2.56458 6.61955 2.54488 6.63925 2.46431 7.22112C2.40881 7.65976 0.792114 20.1583 0.792114 20.1583L14.3362 22.5001L20.2068 21.0409C20.2068 21.0409 17.8113 4.84709 17.797 4.73609ZM12.7016 3.47746C12.3901 3.57414 12.0356 3.68336 11.6507 3.80331C11.6435 3.26441 11.5791 2.51246 11.3266 1.86435C12.1359 2.01653 12.5333 2.9314 12.7016 3.47746ZM10.9417 4.02353C10.2327 4.24374 9.45748 4.48365 8.68046 4.72356C8.89889 3.88746 9.31425 3.05315 9.82271 2.50709C10.0125 2.30299 10.2775 2.0774 10.5908 1.94849C10.8862 2.56259 10.9489 3.4345 10.9417 4.02353ZM9.48971 1.21086C9.74036 1.20549 9.94983 1.26099 10.1307 1.37916C9.84241 1.52776 9.5649 1.7426 9.30351 2.0219C8.62675 2.74879 8.10754 3.87493 7.90165 4.96347C7.25712 5.1622 6.62512 5.35914 6.04504 5.53817C6.41028 3.82659 7.84615 1.25741 9.48971 1.21086Z" fill="#95BF47"/>
<path fill-rule="evenodd" clip-rule="evenodd" d="M17.603 4.55681C17.5225 4.54965 15.9577 4.52638 15.9577 4.52638C15.9577 4.52638 14.6472 3.25522 14.5182 3.12452C14.4699 3.07618 14.4055 3.05112 14.3356 3.04037V22.4981L20.2044 21.0389C20.2044 21.0389 17.8089 4.84685 17.7946 4.73585C17.7821 4.62485 17.6836 4.56398 17.603 4.55681Z" fill="#5E8E3E"/>
<path fill-rule="evenodd" clip-rule="evenodd" d="M11.0825 7.57517L10.4004 10.1264C10.4004 10.1264 9.63951 9.7809 8.73895 9.8364C7.41766 9.92054 7.40334 10.7531 7.41587 10.9625C7.48749 12.103 10.4881 12.3519 10.6582 15.0249C10.7907 17.1268 9.54283 18.5644 7.7453 18.679C5.58791 18.8151 4.39911 17.5421 4.39911 17.5421L4.85565 15.5978C4.85565 15.5978 6.05162 16.5001 7.00767 16.4393C7.63251 16.3999 7.8563 15.8914 7.83303 15.5315C7.73993 14.0438 5.29429 14.1315 5.14032 11.6858C5.00962 9.62871 6.36135 7.54294 9.3441 7.35495C10.4953 7.28155 11.0825 7.57517 11.0825 7.57517Z" fill="white"/>
</g>
<defs>
<clipPath id="clip0_2287_10916">
<rect width="19.4147" height="22" fill="white" transform="translate(0.792664 0.5)"/>
</clipPath>
</defs>
</svg>
