<svg width="172" height="50" viewBox="0 0 172 50" fill="none" xmlns="http://www.w3.org/2000/svg">
<g clip-path="url(#clip0_2788_579)">
<path d="M37.5629 9.91731C37.5298 9.6761 37.3191 9.54228 37.1442 9.52772C36.9707 9.51315 33.5703 9.46148 33.5703 9.46148C33.5703 9.46148 30.7266 6.69989 30.4456 6.41896C30.1648 6.13804 29.6161 6.22284 29.4028 6.28645C29.4001 6.28778 28.8688 6.45209 27.9743 6.72904C27.8246 6.24405 27.6045 5.64773 27.2905 5.04877C26.2781 3.11673 24.7953 2.09505 23.0037 2.09241C23.0011 2.09241 22.9997 2.09241 22.9971 2.09241C22.8725 2.09241 22.7493 2.10433 22.6248 2.11493C22.5717 2.05132 22.5187 1.98905 22.4631 1.92808C21.6825 1.09325 20.6821 0.686439 19.4828 0.722217C17.1692 0.788474 14.8648 2.45947 12.9963 5.42776C11.6818 7.51617 10.6813 10.14 10.3977 12.1714C7.74083 12.9943 5.88299 13.5693 5.84192 13.5826C4.50088 14.004 4.45848 14.0451 4.28356 15.3093C4.1537 16.2647 0.644745 43.3982 0.644745 43.3982L30.0508 48.484L42.7959 45.3156C42.7959 45.3156 37.596 10.1585 37.5629 9.91731ZM26.5021 7.18489C25.8249 7.39426 25.055 7.63279 24.2201 7.89119C24.203 6.71977 24.0638 5.08986 23.5179 3.68124C25.2737 4.01385 26.1376 6.00022 26.5021 7.18489ZM22.6817 8.36823C21.1406 8.84525 19.459 9.36604 17.7721 9.88818C18.2465 8.0714 19.1463 6.2626 20.2514 5.0766C20.6622 4.63534 21.2373 4.14371 21.9184 3.86278C22.5584 5.19851 22.6976 7.08948 22.6817 8.36823ZM19.5292 2.26202C20.0725 2.25009 20.5297 2.36936 20.9206 2.62643C20.2951 2.95109 19.6909 3.41754 19.1237 4.02577C17.6541 5.60268 16.5278 8.0502 16.0785 10.4116C14.6779 10.8449 13.3077 11.2703 12.0462 11.6599C12.8426 7.94287 15.9579 2.36538 19.5292 2.26202Z" fill="#95BF47"/>
<path d="M37.1452 9.52911C36.9717 9.51455 33.5714 9.46288 33.5714 9.46288C33.5714 9.46288 30.7277 6.70128 30.4467 6.42036C30.3421 6.31567 30.2003 6.26134 30.0518 6.23882L30.0532 48.4828L42.797 45.3157C42.797 45.3157 37.5972 10.1599 37.564 9.91871C37.5309 9.6775 37.3189 9.54368 37.1452 9.52911Z" fill="#5E8E3E"/>
<path d="M22.9881 16.0818L21.508 21.6195C21.508 21.6195 19.8569 20.8681 17.8997 20.9914C15.0294 21.1729 14.9989 22.983 15.0281 23.4376C15.1845 25.9142 21.7001 26.4549 22.0659 32.2563C22.3534 36.8201 19.6448 39.9421 15.7423 40.1886C11.058 40.4841 8.47928 37.7212 8.47928 37.7212L9.47182 33.4993C9.47182 33.4993 12.0677 35.4579 14.1455 35.3267C15.5025 35.2405 15.9875 34.1367 15.9384 33.3562C15.7344 30.1255 10.4285 30.3163 10.0933 25.0078C9.81102 20.5409 12.7449 16.0142 19.2181 15.6061C21.712 15.4457 22.9881 16.0818 22.9881 16.0818Z" fill="white"/>
<path d="M59.5797 27.6777C58.1142 26.8825 57.3611 26.2122 57.3611 25.2908C57.3611 24.1185 58.4073 23.3653 60.041 23.3653C61.9428 23.3653 63.6409 24.1605 63.6409 24.1605L64.9802 20.0572C64.9802 20.0572 63.7487 19.0938 60.1238 19.0938C55.0794 19.0938 51.5833 21.9826 51.5833 26.0439C51.5833 28.3466 53.2157 30.1052 55.3935 31.3603C57.1521 32.3645 57.7804 33.0769 57.7804 34.1231C57.7804 35.2114 56.9011 36.0906 55.2687 36.0906C52.8358 36.0906 50.5384 34.8341 50.5384 34.8341L49.115 38.9375C49.115 38.9375 51.2377 40.3609 54.8086 40.3609C60.0003 40.3609 63.7264 37.8071 63.7264 33.2017C63.7251 30.7334 61.8416 28.9749 59.5797 27.6777Z" fill="black"/>
<path d="M80.2613 19.0531C77.7074 19.0531 75.6978 20.2676 74.1495 22.109L74.0654 22.0669L76.2839 10.4706H70.5062L64.8966 39.9851H70.6744L72.5999 29.8963C73.353 26.0861 75.3205 23.7427 77.1633 23.7427C78.4605 23.7427 78.9639 24.6219 78.9639 25.8784C78.9639 26.6736 78.8797 27.637 78.7128 28.4322L76.5363 39.9865H82.3144L84.5744 28.055C84.826 26.7985 84.9939 25.2923 84.9939 24.2868C84.9915 21.0207 83.2752 19.0531 80.2613 19.0531Z" fill="black"/>
<path d="M98.0534 19.0531C91.1029 19.0531 86.4993 25.333 86.4993 32.3239C86.4993 36.8031 89.2616 40.4031 94.4536 40.4031C101.277 40.4031 105.883 34.2915 105.883 27.1323C105.883 22.9882 103.454 19.0531 98.0534 19.0531ZM95.2066 35.9672C93.2388 35.9672 92.4013 34.2927 92.4013 32.199C92.4013 28.8921 94.1184 23.4916 97.2581 23.4916C99.3096 23.4916 99.9782 25.2501 99.9782 26.9667C99.9782 30.5245 98.2635 35.9672 95.2066 35.9672Z" fill="black"/>
<path d="M120.661 19.0531C116.761 19.0531 114.548 22.4861 114.548 22.4861H114.465L114.8 19.3882H109.693C109.442 21.482 108.98 24.6626 108.521 27.0495L104.502 48.1904H110.279L111.869 39.6499H111.996C111.996 39.6499 113.181 40.4031 115.387 40.4031C122.169 40.4031 126.606 33.4542 126.606 26.42C126.606 22.5282 124.889 19.0531 120.661 19.0531ZM115.135 36.05C113.635 36.05 112.747 35.2127 112.747 35.2127L113.711 29.8122C114.381 26.2123 116.264 23.8254 118.274 23.8254C120.033 23.8254 120.577 25.4578 120.577 27.0075C120.577 30.7335 118.358 36.05 115.135 36.05Z" fill="black"/>
<path d="M134.853 10.7637C133.012 10.7637 131.546 12.2291 131.546 14.1125C131.546 15.8291 132.635 17.0015 134.267 17.0015H134.351C136.152 17.0015 137.7 15.787 137.742 13.6526C137.742 11.9781 136.612 10.7637 134.853 10.7637Z" fill="black"/>
<path d="M126.774 39.9851H132.55L136.487 19.5144H130.667L126.774 39.9851Z" fill="black"/>
<path d="M151.181 19.4725H147.162L147.37 18.5091C147.705 16.5415 148.878 14.783 150.804 14.783C151.831 14.783 152.645 15.0761 152.645 15.0761L153.775 10.5548C153.775 10.5548 152.771 10.0527 150.635 10.0527C148.583 10.0527 146.534 10.6389 144.984 11.9782C143.016 13.6527 142.095 16.0802 141.635 18.5091L141.468 19.4725H138.788L137.95 23.8269H140.631L137.575 39.9866H143.353L146.409 23.8269H150.386L151.181 19.4725Z" fill="black"/>
<path d="M165.08 19.5146C165.08 19.5146 161.468 28.6137 159.846 33.5806H159.762C159.652 31.981 158.339 19.5146 158.339 19.5146H152.268L155.744 38.3108C155.829 38.7288 155.787 38.9812 155.619 39.2742C154.948 40.5715 153.818 41.828 152.478 42.7493C151.39 43.5444 150.176 44.0465 149.213 44.3817L150.804 49.2802C151.977 49.0292 154.404 48.0658 156.455 46.1402C159.093 43.6706 161.521 39.8604 164.032 34.6688L171.108 19.5133H165.08V19.5146Z" fill="black"/>
</g>
<defs>
<clipPath id="clip0_2788_579">
<rect width="171.154" height="48.56" fill="white" transform="translate(0.644653 0.720001)"/>
</clipPath>
</defs>
</svg>
