<svg width="170" height="50" viewBox="0 0 170 50" fill="none" xmlns="http://www.w3.org/2000/svg">
<g clip-path="url(#clip0_2287_11062)">
<path d="M35.5629 9.91723C35.5298 9.67603 35.3191 9.54221 35.1442 9.52764C34.9707 9.51307 31.5703 9.46141 31.5703 9.46141C31.5703 9.46141 28.7266 6.69982 28.4456 6.41888C28.1648 6.13796 27.6161 6.22277 27.4028 6.28637C27.4002 6.2877 26.8688 6.45202 25.9743 6.72897C25.8246 6.24397 25.6046 5.64766 25.2905 5.0487C24.2781 3.11665 22.7953 2.09497 21.0037 2.09233C21.0011 2.09233 20.9997 2.09233 20.9971 2.09233C20.8725 2.09233 20.7493 2.10426 20.6248 2.11485C20.5717 2.05125 20.5187 1.98897 20.4631 1.92801C19.6825 1.09318 18.6821 0.686362 17.4828 0.722141C15.1692 0.788398 12.8648 2.45939 10.9963 5.42769C9.6818 7.51609 8.68131 10.1399 8.39775 12.1713C5.74084 12.9942 3.883 13.5693 3.84192 13.5826C2.50089 14.0039 2.45849 14.045 2.28357 15.3092C2.15371 16.2646 -1.35525 43.3981 -1.35525 43.3981L28.0508 48.4839L40.7959 45.3155C40.7959 45.3155 35.5961 10.1584 35.5629 9.91723ZM24.5021 7.18481C23.8249 7.39418 23.055 7.63271 22.2202 7.89111C22.203 6.71969 22.0638 5.08978 21.5179 3.68116C23.2737 4.01377 24.1376 6.00015 24.5021 7.18481ZM20.6817 8.36816C19.1406 8.84517 17.459 9.36596 15.7721 9.8881C16.2465 8.07133 17.1463 6.26252 18.2514 5.07653C18.6622 4.63526 19.2373 4.14363 19.9184 3.8627C20.5584 5.19844 20.6976 7.0894 20.6817 8.36816ZM17.5292 2.26194C18.0725 2.25002 18.5297 2.36928 18.9206 2.62636C18.2952 2.95102 17.6909 3.41746 17.1237 4.0257C15.6541 5.60261 14.5278 8.05013 14.0786 10.4115C12.6779 10.8448 11.3077 11.2702 10.0462 11.6598C10.8426 7.94279 13.958 2.3653 17.5292 2.26194Z" fill="#95BF47"/>
<path d="M35.1453 9.52907C34.9717 9.5145 31.5714 9.46284 31.5714 9.46284C31.5714 9.46284 28.7277 6.70124 28.4468 6.42031C28.3421 6.31562 28.2003 6.26129 28.0518 6.23877L28.0532 48.4827L40.797 45.3156C40.797 45.3156 35.5972 10.1599 35.5641 9.91866C35.5309 9.67745 35.3189 9.54364 35.1453 9.52907Z" fill="#5E8E3E"/>
<path d="M20.9881 16.0817L19.508 21.6194C19.508 21.6194 17.8569 20.8681 15.8997 20.9913C13.0294 21.1729 12.9989 22.983 13.0281 23.4375C13.1845 25.9142 19.7001 26.4549 20.0659 32.2563C20.3534 36.82 17.6448 39.942 13.7424 40.1885C9.05799 40.484 6.47929 37.7211 6.47929 37.7211L7.47183 33.4992C7.47183 33.4992 10.0677 35.4578 12.1455 35.3266C13.5025 35.2405 13.9875 34.1366 13.9384 33.3561C13.7344 30.1254 8.42854 30.3162 8.09332 25.0078C7.81103 20.5408 10.7449 16.0141 17.2181 15.606C19.7121 15.4457 20.9881 16.0817 20.9881 16.0817Z" fill="white"/>
<path d="M57.5797 27.6776C56.1142 26.8825 55.3611 26.2122 55.3611 25.2908C55.3611 24.1184 56.4073 23.3653 58.041 23.3653C59.9428 23.3653 61.6409 24.1605 61.6409 24.1605L62.9802 20.0571C62.9802 20.0571 61.7487 19.0938 58.1238 19.0938C53.0794 19.0938 49.5833 21.9826 49.5833 26.0439C49.5833 28.3466 51.2157 30.1052 53.3935 31.3603C55.1521 32.3645 55.7804 33.0769 55.7804 34.1231C55.7804 35.2114 54.9011 36.0906 53.2687 36.0906C50.8358 36.0906 48.5384 34.8341 48.5384 34.8341L47.115 38.9374C47.115 38.9374 49.2377 40.3609 52.8086 40.3609C58.0003 40.3609 61.7264 37.8071 61.7264 33.2017C61.7251 30.7334 59.8416 28.9748 57.5797 27.6776Z" fill="black"/>
<path d="M78.2613 19.0531C75.7074 19.0531 73.6978 20.2676 72.1495 22.109L72.0654 22.0669L74.2839 10.4706H68.5062L62.8966 39.9851H68.6744L70.5999 29.8963C71.353 26.0861 73.3205 23.7427 75.1633 23.7427C76.4605 23.7427 76.9639 24.6219 76.9639 25.8784C76.9639 26.6736 76.8798 27.637 76.7128 28.4322L74.5363 39.9865H80.3144L82.5744 28.055C82.826 26.7984 82.9939 25.2923 82.9939 24.2868C82.9915 21.0207 81.2752 19.0531 78.2613 19.0531Z" fill="black"/>
<path d="M96.0534 19.0531C89.1029 19.0531 84.4993 25.333 84.4993 32.3239C84.4993 36.8031 87.2616 40.4031 92.4536 40.4031C99.2774 40.4031 103.883 34.2915 103.883 27.1323C103.883 22.9882 101.454 19.0531 96.0534 19.0531ZM93.2066 35.9672C91.2388 35.9672 90.4013 34.2927 90.4013 32.199C90.4013 28.8922 92.1184 23.4916 95.2581 23.4916C97.3096 23.4916 97.9782 25.2502 97.9782 26.9667C97.9782 30.5246 96.2635 35.9672 93.2066 35.9672Z" fill="black"/>
<path d="M118.661 19.0531C114.761 19.0531 112.548 22.4861 112.548 22.4861H112.465L112.8 19.3882H107.693C107.442 21.482 106.98 24.6627 106.521 27.0495L102.502 48.1905H108.279L109.869 39.6499H109.996C109.996 39.6499 111.181 40.4031 113.387 40.4031C120.169 40.4031 124.606 33.4542 124.606 26.42C124.606 22.5282 122.889 19.0531 118.661 19.0531ZM113.135 36.05C111.635 36.05 110.747 35.2128 110.747 35.2128L111.711 29.8122C112.381 26.2123 114.264 23.8254 116.274 23.8254C118.033 23.8254 118.577 25.4578 118.577 27.0075C118.577 30.7335 116.358 36.05 113.135 36.05Z" fill="black"/>
<path d="M132.853 10.7637C131.012 10.7637 129.546 12.2291 129.546 14.1126C129.546 15.8291 130.635 17.0015 132.267 17.0015H132.351C134.152 17.0015 135.7 15.787 135.742 13.6526C135.742 11.9781 134.612 10.7637 132.853 10.7637Z" fill="black"/>
<path d="M124.774 39.9851H130.55L134.487 19.5144H128.667L124.774 39.9851Z" fill="black"/>
<path d="M149.181 19.4725H145.162L145.37 18.5091C145.705 16.5415 146.878 14.783 148.804 14.783C149.831 14.783 150.645 15.0761 150.645 15.0761L151.775 10.5548C151.775 10.5548 150.771 10.0527 148.635 10.0527C146.584 10.0527 144.534 10.6389 142.984 11.9782C141.016 13.6527 140.095 16.0802 139.635 18.5091L139.468 19.4725H136.788L135.95 23.8269H138.631L135.575 39.9866H141.353L144.409 23.8269H148.386L149.181 19.4725Z" fill="black"/>
<path d="M163.08 19.5147C163.08 19.5147 159.468 28.6137 157.846 33.5806H157.762C157.652 31.981 156.339 19.5147 156.339 19.5147H150.268L153.744 38.3108C153.829 38.7288 153.787 38.9812 153.619 39.2742C152.948 40.5715 151.818 41.828 150.478 42.7493C149.39 43.5445 148.176 44.0465 147.213 44.3817L148.804 49.2802C149.977 49.0292 152.404 48.0658 154.455 46.1403C157.093 43.6706 159.521 39.8604 162.032 34.6688L169.108 19.5133H163.08V19.5147Z" fill="black"/>
</g>
<defs>
<clipPath id="clip0_2287_11062">
<rect width="171.154" height="48.56" fill="white" transform="translate(-1.35535 0.719971)"/>
</clipPath>
</defs>
</svg>
