<svg width="195" height="52" viewBox="0 0 195 52" fill="none" xmlns="http://www.w3.org/2000/svg">
<path d="M170.072 12.5463L165.927 38.5249C165.911 38.6203 165.917 38.7179 165.943 38.8109C165.969 38.904 166.016 38.9901 166.079 39.0634C166.142 39.1366 166.22 39.1952 166.309 39.235C166.397 39.2748 166.493 39.2948 166.59 39.2937H171.495C171.668 39.2952 171.836 39.2348 171.968 39.1234C172.101 39.0121 172.189 38.8572 172.216 38.6867L176.361 12.7081C176.377 12.6127 176.371 12.515 176.345 12.422C176.319 12.329 176.272 12.2429 176.209 12.1696C176.146 12.0963 176.067 12.0378 175.979 11.998C175.891 11.9582 175.795 11.9381 175.698 11.9392H170.793C170.619 11.9358 170.45 11.9955 170.317 12.1072C170.185 12.2189 170.097 12.375 170.072 12.5463ZM164.834 20.1274H160.179C160.006 20.1257 159.839 20.186 159.706 20.2972C159.574 20.4084 159.487 20.5632 159.459 20.7334L159.305 21.6898C159.305 21.6898 155.69 17.7797 149.29 20.4222C145.618 21.9351 143.856 25.061 143.105 27.351C143.105 27.351 140.725 34.3107 146.109 38.1415C146.109 38.1415 151.101 41.826 156.722 37.9148L156.625 38.5249C156.603 38.6682 156.628 38.815 156.697 38.9426C156.766 39.0703 156.875 39.1719 157.007 39.2319C157.095 39.2731 157.191 39.2937 157.288 39.2937H161.946C162.119 39.2972 162.288 39.2374 162.421 39.1257C162.554 39.014 162.641 38.858 162.667 38.6867L165.5 20.8963C165.516 20.801 165.51 20.7034 165.484 20.6105C165.457 20.5176 165.41 20.4318 165.346 20.3593C165.283 20.2854 165.204 20.2263 165.116 20.186C165.027 20.1458 164.931 20.1265 164.834 20.1274ZM157.985 29.9595C157.803 31.2025 157.173 32.3367 156.213 33.1492C155.249 33.9648 154.021 34.4051 152.757 34.3891C152.261 34.3948 151.768 34.3232 151.294 34.1767C149.285 33.5378 148.138 31.627 148.468 29.5555C148.651 28.3131 149.281 27.1798 150.241 26.3678C151.205 25.5518 152.431 25.1101 153.695 25.1238C154.191 25.1187 154.685 25.1911 155.158 25.3382C157.18 25.9731 158.322 27.8869 157.99 29.9605H157.985V29.9595ZM133.132 30.4511C135.656 30.4511 138.097 29.5565 140.014 27.9302C141.928 26.3094 143.195 24.0574 143.585 21.5837C144.4 16.4378 140.341 11.9464 134.586 11.9464H125.316C125.143 11.9448 124.975 12.0052 124.843 12.1166C124.711 12.228 124.623 12.383 124.596 12.5535L120.45 38.5321C120.427 38.6754 120.452 38.8222 120.521 38.9499C120.59 39.0775 120.7 39.1791 120.832 39.2391C120.921 39.2803 121.016 39.3009 121.113 39.3009H126.021C126.194 39.3026 126.362 39.2422 126.495 39.1308C126.627 39.0194 126.714 38.8644 126.742 38.6939L127.959 31.0653C127.984 30.8939 128.071 30.7376 128.204 30.6256C128.337 30.5137 128.506 30.4539 128.68 30.4573L133.132 30.4511ZM137.237 21.3497C136.935 23.2523 135.449 24.6529 132.607 24.6529H128.973L130.077 17.7344H133.645C136.583 17.7395 137.54 19.4555 137.237 21.3549V21.3497Z" fill="#0070E0"/>
<path d="M114.857 20.5685L109.243 29.9522L106.393 20.6375C106.349 20.4889 106.257 20.3587 106.132 20.2667C106.007 20.1747 105.855 20.1258 105.699 20.1274H100.633C100.502 20.1256 100.374 20.1712 100.274 20.2556C100.174 20.3401 100.108 20.4578 100.088 20.587C100.076 20.6727 100.085 20.7601 100.114 20.8416L105.22 36.5317L100.602 43.9253C100.562 43.9861 100.536 44.0543 100.524 44.1257C100.512 44.1971 100.515 44.2701 100.533 44.3404C100.55 44.4106 100.582 44.4765 100.625 44.5342C100.669 44.5918 100.724 44.6399 100.788 44.6755C100.872 44.724 100.968 44.7489 101.066 44.7477H106.523C106.678 44.7482 106.832 44.7087 106.967 44.6328C107.103 44.557 107.217 44.4475 107.298 44.3148L121.56 20.9539C121.612 20.8726 121.64 20.7787 121.642 20.6824C121.644 20.5861 121.62 20.4911 121.571 20.4077C121.523 20.324 121.453 20.2547 121.369 20.2071C121.285 20.1594 121.19 20.1351 121.093 20.1367H115.638C115.481 20.1352 115.327 20.1743 115.19 20.2499C115.054 20.3256 114.939 20.4354 114.857 20.5685ZM97.7605 20.1274H93.102C92.9287 20.1257 92.7606 20.1862 92.6283 20.2978C92.4959 20.4094 92.4081 20.5647 92.3809 20.7355L92.2301 21.6908C92.2301 21.6908 88.612 17.7807 82.2117 20.4232C78.5409 21.9361 76.7774 25.062 76.0304 27.352C76.0304 27.352 73.648 34.3117 79.0306 38.1425C79.0306 38.1425 84.0238 41.8269 89.6451 37.9158L89.548 38.5259C89.5252 38.6692 89.5502 38.8161 89.6193 38.9439C89.6884 39.0716 89.7977 39.1732 89.9303 39.2329C90.0181 39.2741 90.1142 39.2947 90.2113 39.2947H94.8687C95.0416 39.296 95.2093 39.2354 95.3413 39.1241C95.4734 39.0128 95.5612 38.858 95.5888 38.6877L98.4227 20.8973C98.4458 20.7537 98.4209 20.6066 98.3518 20.4787C98.2827 20.3507 98.1733 20.249 98.0405 20.1892C97.9523 20.1488 97.8575 20.1277 97.7605 20.1274ZM90.9107 29.9615C90.7274 31.203 90.0972 32.3354 89.1379 33.1471C88.1741 33.9626 86.9478 34.4039 85.6841 34.39C85.189 34.3955 84.6961 34.3239 84.2232 34.1777C82.2148 33.5388 81.069 31.628 81.3986 29.5554C81.5822 28.3103 82.2152 27.175 83.1787 26.3626C84.1459 25.5467 85.3763 25.1071 86.6428 25.1248C87.1387 25.1197 87.6336 25.1918 88.1068 25.3392C90.108 25.9741 91.2475 27.8869 90.9169 29.9615H90.9107ZM66.0585 30.4521C68.5782 30.4508 71.0154 29.5562 72.9351 27.9281C74.8469 26.3073 76.1123 24.0561 76.5015 21.5836C77.3177 16.4388 73.2574 11.9474 67.5049 11.9474H58.2335C58.0605 11.9457 57.8926 12.0059 57.7603 12.1171C57.628 12.2283 57.54 12.3831 57.5124 12.5534L53.3798 38.5249C53.3567 38.6684 53.3816 38.8155 53.4507 38.9435C53.5198 39.0714 53.6292 39.1731 53.762 39.2329C53.8499 39.2731 53.9459 39.2947 54.0431 39.2947H58.9484C59.1217 39.2964 59.2898 39.2359 59.4222 39.1243C59.5545 39.0127 59.6423 38.8574 59.6696 38.6867L60.8845 31.0581C60.9103 30.8868 60.9978 30.7307 61.1305 30.619C61.2632 30.5073 61.4321 30.4476 61.6057 30.451L66.0585 30.4521ZM70.1642 21.3497C69.8615 23.2522 68.3769 24.6528 65.5347 24.6528H61.9011L63.0025 17.7343H66.5709C69.5102 17.7395 70.4659 19.4565 70.1642 21.3549V21.3497Z" fill="#003087"/>
<path d="M34.3456 13.2821C34.4561 7.54573 29.713 3.14502 23.1907 3.14502H9.69997C9.38559 3.14487 9.08149 3.25672 8.84245 3.46041C8.6034 3.6641 8.44513 3.94624 8.39614 4.25602L2.99074 37.9498C2.96656 38.1025 2.97583 38.2586 3.01792 38.4074C3.06002 38.5561 3.13393 38.694 3.23458 38.8116C3.33522 38.9291 3.4602 39.0235 3.60092 39.0882C3.74164 39.153 3.89475 39.1865 4.04971 39.1866H12.0421L10.793 46.9883C10.7688 47.141 10.7781 47.2971 10.8202 47.4458C10.8623 47.5946 10.9362 47.7325 11.0369 47.8501C11.1375 47.9676 11.2625 48.062 11.4032 48.1267C11.5439 48.1914 11.697 48.225 11.852 48.225H18.3629C18.6769 48.225 18.9569 48.1127 19.1966 47.9097C19.4342 47.7056 19.4735 47.4242 19.5231 47.114L21.4344 35.8968C21.483 35.5877 21.641 35.1857 21.8797 34.9817C22.1183 34.7776 22.327 34.6663 22.6421 34.6663H26.6259C33.0139 34.6663 38.4327 30.1368 39.4235 23.8377C40.125 19.3669 38.2033 15.299 34.3456 13.2821Z" fill="#001C64"/>
<path d="M13.7732 26.7607L11.7823 39.3528L10.5322 47.2514C10.5082 47.4041 10.5176 47.5602 10.5598 47.7089C10.6021 47.8576 10.6761 47.9954 10.7768 48.1128C10.8776 48.2303 11.0026 48.3245 11.1434 48.3892C11.2841 48.4538 11.4373 48.4872 11.5922 48.4871H18.4833C18.7973 48.487 19.1011 48.375 19.3397 48.1713C19.5784 47.9676 19.7363 47.6856 19.785 47.3761L21.6013 35.8961C21.6503 35.5865 21.8084 35.3045 22.0472 35.1008C22.286 34.8972 22.5899 34.7852 22.9041 34.7851H26.9602C33.3481 34.7851 38.767 30.137 39.7588 23.8379C40.4613 19.3671 38.2049 15.2983 34.3472 13.2814C34.3368 13.7575 34.2955 14.2326 34.2222 14.7036C33.2314 21.0007 27.8105 25.6497 21.4246 25.6497H15.076C14.7617 25.6501 14.4578 25.7623 14.219 25.9661C13.9802 26.1699 13.8221 26.451 13.7732 26.7607Z" fill="#0070E0"/>
<path d="M11.7803 39.3525H3.76309C3.60816 39.3525 3.45508 39.319 3.3144 39.2542C3.17372 39.1895 3.04879 39.0951 2.94823 38.9775C2.84766 38.86 2.77385 38.7221 2.73188 38.5733C2.68992 38.4245 2.6808 38.2684 2.70515 38.1158L8.11055 3.92216C8.15952 3.61255 8.31764 3.33055 8.55646 3.12688C8.79529 2.92321 9.09914 2.81126 9.41334 2.81116H23.1913C29.7136 2.81116 34.4567 7.54579 34.3462 13.2811C32.7231 12.4319 30.8159 11.9465 28.7269 11.9465H17.2404C16.9261 11.9464 16.622 12.0582 16.3829 12.2619C16.1439 12.4656 15.9856 12.7477 15.9366 13.0575L13.7732 26.7605L11.7792 39.3525H11.7803Z" fill="#003087"/>
</svg>
