<svg width="124" height="32" viewBox="0 0 124 32" fill="none" xmlns="http://www.w3.org/2000/svg">
<g clip-path="url(#clip0_2788_591)">
<path fill-rule="evenodd" clip-rule="evenodd" d="M52.6832 0C49.8007 0 47.9237 0.943158 46.2478 4.10947L38.6058 18.5937V5.72632C38.6058 1.88632 36.7958 0 33.4441 0C30.0923 0 28.6846 1.14526 27.0087 4.37895L19.7689 18.5937V5.86105C19.7689 1.75158 18.093 0 14.0038 0H5.69143C2.54077 0 0.797852 1.48211 0.797852 4.17684C0.797852 6.87158 2.47374 8.48842 5.55736 8.48842H8.97616V24.7242C8.97616 29.3053 12.0598 32 16.4841 32C20.9085 32 22.9195 30.2484 25.1317 26.1389L29.9582 17.0442V24.7242C29.9582 29.2379 32.9078 32 37.3992 32C41.8905 32 43.5664 30.4505 46.1138 26.1389L57.2416 7.27579C59.6549 3.16632 57.979 0 52.6162 0C52.6162 0 52.6162 0 52.6832 0Z" fill="#873EFF"/>
<path fill-rule="evenodd" clip-rule="evenodd" d="M73.5985 0C64.4817 0 57.577 6.80421 57.577 16.0337C57.577 25.2632 64.5487 32 73.5985 32C82.6483 32 89.5529 25.1958 89.6199 16.0337C89.6199 6.80421 82.6483 0 73.5985 0ZM73.5985 22.1642C70.1797 22.1642 67.8334 19.6042 67.8334 16.0337C67.8334 12.4632 70.1797 9.83579 73.5985 9.83579C77.0173 9.83579 79.3635 12.4632 79.3635 16.0337C79.3635 19.6042 77.0843 22.1642 73.5985 22.1642Z" fill="#873EFF"/>
<path fill-rule="evenodd" clip-rule="evenodd" d="M107.853 0C98.8029 0 91.8312 6.80421 91.8312 16.0337C91.8312 25.2632 98.8029 32 107.853 32C116.902 32 123.874 25.1958 123.874 16.0337C123.874 6.87158 116.902 0 107.853 0ZM107.853 22.1642C104.367 22.1642 102.155 19.6042 102.155 16.0337C102.155 12.4632 104.434 9.83579 107.853 9.83579C111.271 9.83579 113.618 12.4632 113.618 16.0337C113.618 19.6042 111.338 22.1642 107.853 22.1642Z" fill="#873EFF"/>
</g>
<defs>
<clipPath id="clip0_2788_591">
<rect width="123.077" height="32" fill="white" transform="translate(0.798767)"/>
</clipPath>
</defs>
</svg>
