<svg width="195" height="52" viewBox="0 0 195 52" fill="none" xmlns="http://www.w3.org/2000/svg">
<path d="M170.071 12.5463L165.927 38.5249C165.911 38.6203 165.917 38.718 165.943 38.811C165.969 38.904 166.016 38.9902 166.079 39.0634C166.142 39.1367 166.22 39.1952 166.309 39.235C166.397 39.2748 166.493 39.2949 166.59 39.2938H171.495C171.668 39.2953 171.836 39.2349 171.968 39.1235C172.101 39.0121 172.189 38.8572 172.216 38.6868L176.361 12.7081C176.377 12.6127 176.371 12.5151 176.345 12.4221C176.319 12.3291 176.272 12.2429 176.209 12.1696C176.146 12.0964 176.067 12.0378 175.979 11.998C175.891 11.9582 175.795 11.9382 175.698 11.9393H170.793C170.619 11.9358 170.45 11.9956 170.317 12.1073C170.185 12.219 170.097 12.375 170.071 12.5463ZM164.833 20.1275H160.179C160.006 20.1258 159.839 20.186 159.706 20.2972C159.574 20.4084 159.486 20.5632 159.459 20.7335L159.305 21.6899C159.305 21.6899 155.69 17.7798 149.29 20.4222C145.618 21.9352 143.855 25.061 143.105 27.351C143.105 27.351 140.725 34.3108 146.109 38.1416C146.109 38.1416 151.101 41.826 156.722 37.9148L156.625 38.5249C156.603 38.6683 156.628 38.815 156.697 38.9427C156.766 39.0704 156.875 39.172 157.007 39.2319C157.095 39.2732 157.191 39.2938 157.288 39.2938H161.946C162.119 39.2972 162.288 39.2375 162.421 39.1258C162.554 39.0141 162.641 38.858 162.667 38.6868L165.5 20.8963C165.516 20.801 165.51 20.7034 165.483 20.6106C165.457 20.5177 165.41 20.4319 165.346 20.3594C165.283 20.2855 165.204 20.2263 165.116 20.1861C165.027 20.1458 164.931 20.1265 164.833 20.1275ZM157.985 29.9595C157.803 31.2025 157.173 32.3367 156.213 33.1493C155.249 33.9648 154.021 34.4051 152.757 34.3891C152.261 34.3948 151.768 34.3232 151.294 34.1768C149.285 33.5378 148.138 31.6271 148.467 29.5555C148.65 28.3131 149.281 27.1799 150.241 26.3678C151.205 25.5519 152.431 25.1102 153.695 25.1239C154.191 25.1188 154.685 25.1911 155.158 25.3383C157.18 25.9731 158.322 27.887 157.99 29.9606H157.985V29.9595ZM133.131 30.4511C135.655 30.4511 138.097 29.5566 140.014 27.9303C141.928 26.3094 143.195 24.0575 143.585 21.5837C144.4 16.4379 140.341 11.9465 134.586 11.9465H125.316C125.143 11.9448 124.975 12.0052 124.843 12.1166C124.711 12.228 124.623 12.3831 124.596 12.5535L120.45 38.5322C120.427 38.6755 120.452 38.8222 120.521 38.9499C120.59 39.0776 120.7 39.1792 120.832 39.2392C120.921 39.2804 121.016 39.301 121.113 39.301H126.021C126.194 39.3027 126.362 39.2423 126.494 39.1309C126.627 39.0195 126.714 38.8644 126.741 38.694L127.959 31.0654C127.984 30.8939 128.071 30.7376 128.204 30.6257C128.337 30.5138 128.506 30.4539 128.68 30.4573L133.131 30.4511ZM137.237 21.3498C136.934 23.2523 135.449 24.6529 132.607 24.6529H128.973L130.076 17.7344H133.645C136.583 17.7396 137.54 19.4555 137.237 21.3549V21.3498Z" fill="#0070E0"/>
<path d="M114.857 20.5685L109.243 29.9522L106.393 20.6375C106.349 20.4889 106.257 20.3587 106.132 20.2667C106.006 20.1747 105.855 20.1258 105.699 20.1274H100.633C100.501 20.1256 100.374 20.1711 100.274 20.2556C100.174 20.3401 100.108 20.4578 100.088 20.587C100.076 20.6727 100.085 20.7601 100.114 20.8416L105.22 36.5316L100.602 43.9252C100.562 43.9861 100.536 44.0543 100.524 44.1257C100.512 44.1971 100.515 44.2701 100.533 44.3403C100.55 44.4106 100.582 44.4765 100.625 44.5341C100.669 44.5918 100.724 44.6399 100.788 44.6755C100.872 44.7239 100.968 44.7489 101.065 44.7477H106.523C106.678 44.7482 106.831 44.7086 106.967 44.6328C107.103 44.557 107.217 44.4474 107.298 44.3148L121.56 20.9539C121.612 20.8726 121.64 20.7787 121.642 20.6824C121.644 20.5861 121.62 20.4911 121.571 20.4077C121.523 20.324 121.453 20.2547 121.369 20.207C121.285 20.1594 121.19 20.1351 121.093 20.1366H115.638C115.481 20.1352 115.327 20.1742 115.19 20.2499C115.053 20.3256 114.939 20.4353 114.857 20.5685ZM97.7604 20.1274H93.102C92.9287 20.1257 92.7606 20.1862 92.6282 20.2978C92.4958 20.4094 92.4081 20.5647 92.3808 20.7354L92.23 21.6908C92.23 21.6908 88.6119 17.7807 82.2116 20.4232C78.5409 21.9361 76.7773 25.0619 76.0303 27.352C76.0303 27.352 73.6479 34.3117 79.0306 38.1425C79.0306 38.1425 84.0238 41.8269 89.6451 37.9157L89.548 38.5259C89.5251 38.6692 89.5502 38.8161 89.6192 38.9438C89.6883 39.0716 89.7976 39.1732 89.9302 39.2329C90.0181 39.2741 90.1141 39.2947 90.2112 39.2947H94.8687C95.0416 39.2959 95.2092 39.2354 95.3413 39.1241C95.4733 39.0127 95.5611 38.8579 95.5888 38.6877L98.4227 20.8972C98.4458 20.7537 98.4208 20.6066 98.3517 20.4786C98.2826 20.3507 98.1732 20.2489 98.0404 20.1892C97.9523 20.1487 97.8574 20.1276 97.7604 20.1274ZM90.9107 29.9615C90.7273 31.2029 90.0971 32.3353 89.1378 33.1471C88.174 33.9625 86.9477 34.4038 85.684 34.39C85.189 34.3955 84.6961 34.3239 84.2232 34.1777C82.2147 33.5387 81.069 31.628 81.3985 29.5554C81.5821 28.3103 82.2151 27.1749 83.1786 26.3626C84.1459 25.5466 85.3762 25.107 86.6428 25.1248C87.1387 25.1196 87.6336 25.1918 88.1067 25.3392C90.1079 25.974 91.2475 27.8868 90.9169 29.9615H90.9107ZM66.0584 30.452C68.5781 30.4507 71.0154 29.5562 72.935 27.9281C74.8468 26.3073 76.1123 24.0561 76.5014 21.5836C77.3176 16.4388 73.2574 11.9474 67.5048 11.9474H58.2334C58.0604 11.9457 57.8926 12.0059 57.7602 12.117C57.6279 12.2282 57.54 12.383 57.5123 12.5534L53.3797 38.5248C53.3566 38.6683 53.3816 38.8154 53.4506 38.9434C53.5197 39.0714 53.6292 39.1731 53.762 39.2329C53.8498 39.273 53.9459 39.2947 54.043 39.2947H58.9484C59.1217 39.2963 59.2898 39.2359 59.4221 39.1243C59.5545 39.0127 59.6423 38.8574 59.6695 38.6866L60.8845 31.058C60.9103 30.8868 60.9977 30.7307 61.1304 30.619C61.2631 30.5073 61.432 30.4476 61.6056 30.451L66.0584 30.452ZM70.1642 21.3497C69.8614 23.2522 68.3768 24.6528 65.5346 24.6528H61.9011L63.0024 17.7343H66.5709C69.5102 17.7394 70.4658 19.4564 70.1642 21.3548V21.3497Z" fill="#003087"/>
<path d="M34.3455 13.2821C34.4561 7.54572 29.7129 3.145 23.1907 3.145H9.69991C9.38553 3.14486 9.08143 3.2567 8.84239 3.46039C8.60334 3.66408 8.44507 3.94623 8.39608 4.256L2.99068 37.9498C2.9665 38.1025 2.97577 38.2586 3.01786 38.4074C3.05996 38.5561 3.13387 38.694 3.23451 38.8116C3.33516 38.9291 3.46014 39.0235 3.60086 39.0882C3.74158 39.153 3.89469 39.1865 4.04965 39.1865H12.042L10.793 46.9883C10.7688 47.141 10.7781 47.2971 10.8202 47.4458C10.8622 47.5946 10.9362 47.7325 11.0368 47.85C11.1375 47.9676 11.2624 48.062 11.4032 48.1267C11.5439 48.1914 11.697 48.225 11.8519 48.225H18.3628C18.6769 48.225 18.9569 48.1127 19.1966 47.9096C19.4342 47.7056 19.4734 47.4242 19.523 47.114L21.4343 35.8968C21.4829 35.5876 21.641 35.1857 21.8796 34.9816C22.1183 34.7776 22.327 34.6663 22.6421 34.6663H26.6259C33.0138 34.6663 38.4326 30.1367 39.4234 23.8376C40.1249 19.3668 38.2033 15.299 34.3455 13.2821Z" fill="#001C64"/>
<path d="M13.7731 26.7608L11.7822 39.3528L10.5321 47.2514C10.5081 47.4041 10.5175 47.5602 10.5598 47.7089C10.602 47.8576 10.676 47.9955 10.7768 48.1129C10.8775 48.2303 11.0026 48.3246 11.1433 48.3892C11.2841 48.4538 11.4372 48.4872 11.5921 48.4871H18.4832C18.7973 48.487 19.101 48.375 19.3397 48.1713C19.5783 47.9677 19.7362 47.6857 19.785 47.3761L21.6012 35.8962C21.6502 35.5866 21.8083 35.3045 22.0471 35.1009C22.286 34.8972 22.5898 34.7853 22.904 34.7852H26.9601C33.3481 34.7852 38.7669 30.1371 39.7587 23.838C40.4612 19.3672 38.2049 15.2983 34.3471 13.2814C34.3368 13.7576 34.2955 14.2327 34.2221 14.7037C33.2313 21.0007 27.8104 25.6498 21.4246 25.6498H15.0759C14.7616 25.6502 14.4577 25.7623 14.2189 25.9662C13.9801 26.17 13.8221 26.4511 13.7731 26.7608Z" fill="#0070E0"/>
<path d="M11.7802 39.3526H3.76303C3.6081 39.3525 3.45502 39.319 3.31434 39.2543C3.17366 39.1895 3.04873 39.0951 2.94817 38.9776C2.8476 38.86 2.77379 38.7221 2.73182 38.5733C2.68986 38.4245 2.68074 38.2685 2.70509 38.1158L8.11049 3.92217C8.15945 3.61257 8.31758 3.33056 8.5564 3.12689C8.79523 2.92323 9.09908 2.81127 9.41328 2.81117H23.1913C29.7135 2.81117 34.4567 7.54581 34.3461 13.2812C32.723 12.4319 30.8159 11.9465 28.7268 11.9465H17.2404C16.926 11.9464 16.6219 12.0582 16.3828 12.2619C16.1438 12.4656 15.9855 12.7477 15.9365 13.0575L13.7731 26.7605L11.7792 39.3526H11.7802Z" fill="#003087"/>
</svg>
