<svg width="168" height="80" viewBox="0 0 168 80" fill="none" xmlns="http://www.w3.org/2000/svg">
<path fill-rule="evenodd" clip-rule="evenodd" d="M148.466 40.7731C148.466 31.5686 144.02 24.3057 135.52 24.3057C126.985 24.3057 121.821 31.5686 121.821 40.7012C121.821 51.5236 127.918 56.9888 136.668 56.9888C140.935 56.9888 144.163 56.018 146.602 54.6517V47.4607C144.163 48.6832 141.366 49.4382 137.816 49.4382C134.337 49.4382 131.253 48.2158 130.858 43.9731H148.395C148.395 43.5057 148.466 41.636 148.466 40.7731ZM130.751 37.3574C130.751 33.2944 133.225 31.6045 135.485 31.6045C137.672 31.6045 140.003 33.2944 140.003 37.3574H130.751Z" fill="#635BFF"/>
<path fill-rule="evenodd" clip-rule="evenodd" d="M107.978 24.3057C104.464 24.3057 102.205 25.9596 100.95 27.1102L100.483 24.8809H92.5938V66.8045L101.559 64.8989L101.595 54.7236C102.886 55.6585 104.787 56.9888 107.943 56.9888C114.362 56.9888 120.207 51.8113 120.207 40.4135C120.171 29.9866 114.254 24.3057 107.978 24.3057ZM105.827 49.0787C103.711 49.0787 102.456 48.3236 101.595 47.3888L101.559 34.0495C102.492 33.0068 103.783 32.2877 105.827 32.2877C109.09 32.2877 111.349 35.9551 111.349 40.6652C111.349 45.4832 109.126 49.0787 105.827 49.0787Z" fill="#635BFF"/>
<path fill-rule="evenodd" clip-rule="evenodd" d="M80.2577 22.1844L89.2589 20.2428V12.9439L80.2577 14.8496V22.1844Z" fill="#635BFF"/>
<path d="M89.2589 24.917H80.2577V56.3777H89.2589V24.917Z" fill="#635BFF"/>
<path fill-rule="evenodd" clip-rule="evenodd" d="M70.611 27.5776L70.0372 24.9169H62.2911V56.3776H71.2565V35.0562C73.3723 32.2877 76.9585 32.791 78.0702 33.1865V24.9169C76.9226 24.4854 72.7268 23.6944 70.611 27.5776Z" fill="#635BFF"/>
<path fill-rule="evenodd" clip-rule="evenodd" d="M52.6801 17.1146L43.9299 18.9843L43.894 47.7843C43.894 53.1056 47.8747 57.0247 53.1822 57.0247C56.1228 57.0247 58.2745 56.4854 59.458 55.8382V48.5393C58.3104 49.0067 52.6443 50.6607 52.6443 45.3393V32.5753H59.458V24.9169H52.6443L52.6801 17.1146Z" fill="#635BFF"/>
<path fill-rule="evenodd" clip-rule="evenodd" d="M28.438 34.0495C28.438 32.6472 29.5855 32.1079 31.4862 32.1079C34.2117 32.1079 37.6544 32.9349 40.3799 34.409V25.9596C37.4034 24.7731 34.4627 24.3057 31.4862 24.3057C24.2063 24.3057 19.365 28.1169 19.365 34.4809C19.365 44.4045 32.9924 42.8225 32.9924 47.1012C32.9924 48.7551 31.5579 49.2944 29.5497 49.2944C26.5732 49.2944 22.7718 48.072 19.7595 46.418V54.9753C23.0946 56.4135 26.4656 57.0248 29.5497 57.0248C37.0089 57.0248 42.1371 53.3214 42.1371 46.8854C42.1012 36.1708 28.438 38.0765 28.438 34.0495Z" fill="#635BFF"/>
</svg>
