<svg width="145" height="46" viewBox="0 0 145 46" fill="none" xmlns="http://www.w3.org/2000/svg">
<g clip-path="url(#clip0_2788_596)">
<mask id="mask0_2788_596" style="mask-type:luminance" maskUnits="userSpaceOnUse" x="2" y="1" width="50" height="44">
<path d="M40.9959 3.88702L18.9408 22.724L16.7722 24.587L2.76868 36.57L9.75893 44.712L21.5478 34.638L27.1307 29.854L45.8406 13.869L51.0314 9.43003L44.0411 1.28802L40.9959 3.88702Z" fill="white"/>
</mask>
<g mask="url(#mask0_2788_596)">
<path d="M52.5544 44.6433L2.81517 46.3913L1.2464 1.33431L50.9856 -0.390686L52.5544 44.6433Z" fill="url(#paint0_linear_2788_596)"/>
</g>
<mask id="mask1_2788_596" style="mask-type:luminance" maskUnits="userSpaceOnUse" x="42" y="17" width="11" height="29">
<path d="M42.1707 23.2991V40.6411C42.1707 43.6081 44.5699 46.0001 47.546 46.0001C50.522 46.0001 52.9213 43.6081 52.9213 40.6411V23.2991C52.9213 20.3321 50.522 17.9401 47.546 17.9401C44.5699 17.9401 42.1707 20.3321 42.1707 23.2991Z" fill="white"/>
</mask>
<g mask="url(#mask1_2788_596)">
<path d="M52.9218 17.9402H42.1711V46.0002H52.9218V17.9402Z" fill="url(#paint1_linear_2788_596)"/>
</g>
<g opacity="0.13">
<mask id="mask2_2788_596" style="mask-type:luminance" maskUnits="userSpaceOnUse" x="16" y="22" width="12" height="13">
<path d="M27.1289 22.7233H16.7704V34.6373H27.1289V22.7233Z" fill="white"/>
</mask>
<g mask="url(#mask2_2788_596)">
<mask id="mask3_2788_596" style="mask-type:luminance" maskUnits="userSpaceOnUse" x="16" y="22" width="12" height="13">
<path d="M27.1291 22.723H16.7706V34.637H27.1291V22.723Z" fill="white"/>
</mask>
<g mask="url(#mask3_2788_596)">
<path d="M27.129 29.8531L21.546 34.6371C21.3615 33.0961 20.4617 27.9901 16.7705 24.5861L18.9391 22.7231L27.129 29.8531Z" fill="#1D245E"/>
</g>
</g>
</g>
<mask id="mask4_2788_596" style="mask-type:luminance" maskUnits="userSpaceOnUse" x="0" y="0" width="53" height="46">
<path d="M6.25107 0C4.75151 0 3.22889 0.644 2.16766 1.863C1.31406 2.875 0.875732 4.117 0.875732 5.336V5.382C0.875732 6.877 1.5217 8.372 2.74441 9.43L44.04 44.712C45.055 45.586 46.3008 46 47.5235 46C49.0462 46 50.5457 45.356 51.607 44.137C53.5448 41.883 53.268 38.502 51.0302 36.57L9.75773 1.288C8.74265 0.437 7.49686 0 6.25107 0Z" fill="white"/>
</mask>
<g mask="url(#mask4_2788_596)">
<path d="M65.0793 42.918L4.40489 59.133L-10.6599 3.08196L50.0145 -13.133L65.0793 42.918Z" fill="url(#paint2_linear_2788_596)"/>
</g>
<mask id="mask5_2788_596" style="mask-type:luminance" maskUnits="userSpaceOnUse" x="0" y="0" width="12" height="46">
<path d="M0.875732 5.359V40.641C0.875732 43.608 3.27503 46 6.25107 46C9.22712 46 11.6264 43.608 11.6264 40.641V5.359C11.6264 2.392 9.22712 0 6.25107 0C3.27503 0 0.875732 2.392 0.875732 5.359Z" fill="white"/>
</mask>
<g mask="url(#mask5_2788_596)">
<path d="M11.6264 0H0.875732V46H11.6264V0Z" fill="url(#paint3_linear_2788_596)"/>
</g>
<path d="M47.547 10.741C44.5709 10.741 42.1716 8.349 42.1716 5.382V5.359C42.1716 2.392 44.5709 0 47.547 0C50.523 0 52.9223 2.392 52.9223 5.359V5.382C52.9223 8.349 50.5 10.741 47.547 10.741Z" fill="#5CDDAD"/>
<path d="M80.0057 10.5342C76.6375 10.5342 74.3766 11.7762 72.8771 13.4552H72.7848L69.901 10.9022H65.1716V34.9142H72.7848V21.7812C72.7848 18.5152 74.192 16.4452 76.6375 16.4452C78.5523 16.4452 80.098 17.6412 80.098 20.9532V34.9142H87.7111V20.9532C87.7111 17.1122 87.0883 10.5342 80.0057 10.5342Z" fill="#32165D"/>
<path d="M121.303 10.5342C117.588 10.5342 114.843 12.1672 113.159 14.7202H113.067C112.051 12.4202 110.137 10.5342 106.376 10.5342C103.008 10.5342 100.747 11.7762 99.2475 13.4552H99.1553L96.2715 10.9022H91.5421V34.9142H99.1553V21.7812C99.1553 18.5152 100.563 16.4452 103.008 16.4452C104.946 16.4452 106.468 17.6412 106.468 20.9532V34.9142H114.082V21.7812C114.082 18.5152 115.489 16.4452 117.934 16.4452C119.849 16.4452 121.395 17.6412 121.395 20.9532V34.9142H129.008V20.9532C129.008 17.1122 128.385 10.5342 121.303 10.5342Z" fill="#32165D"/>
<path d="M136.759 19.481C139.32 19.481 141.281 17.457 141.281 15.019C141.281 12.512 139.297 10.557 136.759 10.557C134.198 10.557 132.237 12.535 132.237 15.019C132.237 17.457 134.221 19.481 136.759 19.481Z" fill="#32165D"/>
<path d="M140.497 21.6431H133.022V34.9371H140.497V21.6431Z" fill="#32165D"/>
<path d="M144.626 8.62487C144.626 8.85487 144.58 9.06187 144.511 9.22287C144.441 9.40687 144.326 9.56787 144.188 9.68287C144.049 9.82087 143.888 9.91287 143.726 9.98187C143.542 10.0509 143.357 10.0969 143.173 10.0969C142.965 10.0969 142.757 10.0509 142.573 9.98187C142.388 9.91287 142.25 9.79787 142.111 9.65987C141.973 9.52187 141.881 9.36087 141.811 9.17687C141.742 8.99287 141.696 8.80887 141.696 8.57887C141.696 8.34887 141.742 8.14187 141.811 7.98087C141.881 7.79687 141.996 7.63587 142.134 7.52087C142.273 7.38287 142.434 7.29087 142.596 7.22187C142.78 7.15287 142.965 7.10687 143.149 7.10687C143.334 7.10687 143.519 7.15287 143.703 7.22187C143.888 7.29087 144.026 7.40587 144.165 7.52087C144.303 7.65887 144.395 7.79687 144.488 7.98087C144.58 8.18787 144.626 8.39487 144.626 8.62487ZM144.303 8.62487C144.303 8.44087 144.28 8.27987 144.211 8.11887C144.141 7.95787 144.072 7.84287 143.957 7.72787C143.842 7.61287 143.726 7.54387 143.588 7.47487C143.449 7.40587 143.311 7.38287 143.149 7.38287C142.988 7.38287 142.826 7.40587 142.688 7.47487C142.55 7.54387 142.434 7.61287 142.319 7.72787C142.204 7.84287 142.134 7.95787 142.065 8.11887C141.996 8.27987 141.973 8.44087 141.973 8.62487C141.973 8.78587 141.996 8.94687 142.042 9.10787C142.088 9.24587 142.181 9.38387 142.273 9.49887C142.365 9.61387 142.503 9.70587 142.642 9.77487C142.78 9.84387 142.942 9.86687 143.126 9.86687C143.288 9.86687 143.426 9.84387 143.565 9.77487C143.703 9.70587 143.818 9.63687 143.934 9.52187C144.049 9.40687 144.118 9.29187 144.188 9.13087C144.28 8.96987 144.303 8.80887 144.303 8.62487ZM142.873 9.47587H142.596V7.81987H143.219C143.426 7.81987 143.565 7.86587 143.68 7.93487C143.772 8.00387 143.842 8.11887 143.842 8.30287C143.842 8.44087 143.795 8.55587 143.726 8.62487C143.634 8.69387 143.542 8.73987 143.426 8.73987L143.888 9.47587H143.588L143.149 8.76287H142.896V9.47587H142.873ZM143.173 8.53287C143.219 8.53287 143.265 8.53287 143.311 8.53287C143.357 8.53287 143.403 8.50987 143.426 8.50987C143.449 8.48687 143.496 8.46387 143.519 8.44087C143.542 8.41787 143.542 8.37187 143.542 8.30287C143.542 8.25687 143.542 8.21087 143.519 8.18787C143.496 8.16487 143.472 8.14187 143.426 8.11887C143.38 8.09587 143.357 8.09587 143.311 8.09587C143.265 8.09587 143.219 8.09587 143.196 8.09587H142.873V8.57887H143.173V8.53287Z" fill="#32165D"/>
</g>
<defs>
<linearGradient id="paint0_linear_2788_596" x1="51.4871" y1="22.1431" x2="2.31673" y2="23.8654" gradientUnits="userSpaceOnUse">
<stop stop-color="#9EFF9F"/>
<stop offset="0.1446" stop-color="#9EFF9F"/>
<stop offset="0.405" stop-color="#84F1A5"/>
<stop offset="0.8291" stop-color="#5CDDAD"/>
<stop offset="1" stop-color="#5CDDAD"/>
</linearGradient>
<linearGradient id="paint1_linear_2788_596" x1="47.5353" y1="46.0055" x2="47.5353" y2="17.9376" gradientUnits="userSpaceOnUse">
<stop stop-color="#DAFF9F"/>
<stop offset="0.1446" stop-color="#DAFF9F"/>
<stop offset="0.9122" stop-color="#5CDDAD"/>
<stop offset="1" stop-color="#5CDDAD"/>
</linearGradient>
<linearGradient id="paint2_linear_2788_596" x1="46.9481" y1="17.7268" x2="6.90618" y2="28.4887" gradientUnits="userSpaceOnUse">
<stop stop-color="#DAFF9F"/>
<stop offset="0.1446" stop-color="#DAFF9F"/>
<stop offset="0.9122" stop-color="#5CDDAD"/>
<stop offset="1" stop-color="#5CDDAD"/>
</linearGradient>
<linearGradient id="paint3_linear_2788_596" x1="6.25041" y1="46.0045" x2="6.25041" y2="0.00654716" gradientUnits="userSpaceOnUse">
<stop stop-color="#DAFF9F"/>
<stop offset="0.1446" stop-color="#DAFF9F"/>
<stop offset="0.9122" stop-color="#5CDDAD"/>
<stop offset="1" stop-color="#5CDDAD"/>
</linearGradient>
<clipPath id="clip0_2788_596">
<rect width="143.75" height="46" fill="white" transform="translate(0.875732)"/>
</clipPath>
</defs>
</svg>
