<svg width="64" height="69" viewBox="0 0 64 69" fill="none" xmlns="http://www.w3.org/2000/svg">
<g filter="url(#filter0_d_2287_10927)">
<path fill-rule="evenodd" clip-rule="evenodd" d="M32.7544 8.06243C26.367 7.21535 20.5023 11.7067 19.6553 18.0941C18.8082 24.4815 23.2995 30.3462 29.6869 31.1932C36.0743 32.0403 41.939 27.549 42.7861 21.1616C43.6332 14.7742 39.1418 8.90951 32.7544 8.06243ZM19.8211 34.5924C16.7537 34.1856 13.6504 35.014 11.1938 36.8953C8.73727 38.7766 7.12865 41.5567 6.72187 44.624L6.10836 49.2502C5.93894 50.5277 6.83721 51.7006 8.11469 51.87L24.3063 54.0173C25.5837 54.1867 26.7567 53.2885 26.9261 52.011L28.7666 38.1325C28.936 36.855 28.0378 35.6821 26.7603 35.5127L19.8211 34.5924ZM42.6539 43.5884L43.5223 42.2412L44.0096 43.7682C44.2458 44.5085 44.835 45.0826 45.5812 45.2995L47.2719 45.791L45.7761 46.9601C45.1908 47.4177 44.8583 48.1267 44.8808 48.8693L44.9354 50.6679L43.6635 49.7312C43.0199 49.2573 42.1786 49.1457 41.4338 49.4355L39.961 50.0086L40.483 48.2868C40.6986 47.5755 40.5625 46.8041 40.1165 46.2096L38.9772 44.6909L40.7375 44.6571C41.5144 44.6422 42.2329 44.2415 42.6539 43.5884ZM44.4163 35.5004C43.8212 35.4215 43.2231 35.52 42.6917 35.7734C42.1616 36.0261 41.7238 36.4198 41.4154 36.8965L39.4051 40.0152L35.8784 40.0829C35.2796 40.0925 34.706 40.2773 34.221 40.6011C33.7344 40.926 33.3574 41.3764 33.1194 41.8911C32.8816 42.4054 32.7865 42.9742 32.8432 43.5366C32.8998 44.098 33.1069 44.6437 33.456 45.1078L33.4584 45.1111L35.674 48.0644L34.57 51.706L34.5631 51.7293C34.4065 52.2658 34.3938 52.8371 34.5299 53.3834C34.6662 53.9303 34.9494 54.441 35.3632 54.8507C35.778 55.2614 36.3057 55.5513 36.8904 55.6748C37.4753 55.7983 38.0781 55.7468 38.6278 55.5348L41.9297 54.25L44.7744 56.3449C45.2492 56.6963 45.8186 56.9062 46.4172 56.9413C47.0183 56.9766 47.6081 56.8332 48.1189 56.5417C48.6283 56.2509 49.036 55.8266 49.3088 55.3287C49.581 54.8322 49.7138 54.2728 49.6965 53.7107L49.5812 49.909L52.4949 47.6315L52.4999 47.6275C52.9556 47.2693 53.2956 46.7964 53.495 46.2695C53.6941 45.743 53.7497 45.1714 53.6545 44.6153C53.5592 44.0586 53.3144 43.5275 52.9321 43.0879C52.5495 42.6479 52.0447 42.3184 51.4694 42.1513L48.0775 41.1653L46.9506 37.6339L46.9495 37.6304C46.7761 37.0898 46.456 36.5956 46.0101 36.2135C45.563 35.8303 45.0113 35.5793 44.4163 35.5004Z" fill="white"/>
</g>
<defs>
<filter id="filter0_d_2287_10927" x="-5.43805" y="0.0619507" width="74.8761" height="74.8761" filterUnits="userSpaceOnUse" color-interpolation-filters="sRGB">
<feFlood flood-opacity="0" result="BackgroundImageFix"/>
<feColorMatrix in="SourceAlpha" type="matrix" values="0 0 0 0 0 0 0 0 0 0 0 0 0 0 0 0 0 0 127 0" result="hardAlpha"/>
<feOffset dy="6"/>
<feGaussianBlur stdDeviation="3"/>
<feComposite in2="hardAlpha" operator="out"/>
<feColorMatrix type="matrix" values="0 0 0 0 0 0 0 0 0 0 0 0 0 0 0 0 0 0 0.2 0"/>
<feBlend mode="normal" in2="BackgroundImageFix" result="effect1_dropShadow_2287_10927"/>
<feBlend mode="normal" in="SourceGraphic" in2="effect1_dropShadow_2287_10927" result="shape"/>
</filter>
</defs>
</svg>
