<svg width="259" height="56" viewBox="0 0 259 56" fill="none" xmlns="http://www.w3.org/2000/svg">
<g clip-path="url(#clip0_2788_577)">
<path d="M72.9742 15.7776L68.743 32.1554L64.5118 15.7776H60.2504L61.2361 19.2915L57.5206 32.7054L53.4562 15.7776H49.3616L55.1244 37.1665H59.6134L63.0711 25.7234L66.3014 37.1665H70.7752L76.8413 15.7776H72.9742ZM116.029 21.9804C115.103 21.7647 114.158 21.6469 113.208 21.629C108.052 21.629 105.231 25.097 105.231 30.1845C105.231 35.2415 108.052 37.5484 111.373 37.5484C113.139 37.4904 114.84 36.8639 116.226 35.7609V37.1665H119.76V15.7776H116.029V21.9804ZM116.029 32.797C114.816 33.9123 113.678 34.5234 112.48 34.5234C110.418 34.5234 109.098 33.1484 109.098 29.9248C109.098 26.4415 110.736 24.6234 113.587 24.6234C114.421 24.6234 115.255 24.7915 116.014 25.097V32.797H116.029ZM98.1943 24.4859H98.0578V21.9804H94.5698V37.1665H98.3156V28.122C99.4834 25.8915 100.909 25.1582 103.29 25.1582H103.669V21.8887C103.332 21.8512 102.992 21.8308 102.653 21.8276C100.621 21.8276 99.2255 22.622 98.1943 24.5012V24.4859ZM224.28 21.5984C219.124 21.5984 216.682 24.9596 216.682 29.5887C216.682 34.2026 219.108 37.5332 224.28 37.5332C229.451 37.5332 231.878 34.2026 231.878 29.5887C231.878 24.9596 229.406 21.5984 224.265 21.5984H224.28ZM224.28 34.4929C221.853 34.4929 220.549 32.904 220.549 29.5887C220.549 26.2582 221.838 24.6693 224.28 24.6693C226.706 24.6693 227.98 26.2582 227.98 29.5887C227.98 32.904 226.706 34.4929 224.265 34.4929H224.28ZM253.276 21.5984C251.669 21.5984 249.818 22.4846 248.15 23.6151L247.695 23.9054C246.922 22.2095 245.329 21.6137 243.585 21.6137C241.978 21.6137 240.143 22.4387 238.459 23.554V21.9804H234.911V37.1665H238.672V26.2734C239.835 25.4275 241.202 24.9105 242.63 24.7762C243.858 24.7762 244.632 25.4484 244.632 27.5873V37.1665H248.363V26.3193C249.758 25.4026 251.244 24.7915 252.306 24.7915C253.549 24.7915 254.307 25.4484 254.307 27.6026V37.1665H258.038V26.6859C258.038 23.7526 256.309 21.6137 253.261 21.6137L253.276 21.5984ZM83.9691 21.5984C78.8129 21.5984 76.3864 24.9596 76.3864 29.5887C76.3864 34.2026 78.8129 37.5332 83.9691 37.5332C89.1254 37.5332 91.5822 34.2026 91.5822 29.5887C91.5822 24.9596 89.095 21.5984 83.9539 21.5984H83.9691ZM83.9691 34.4929C81.5426 34.4929 80.2384 32.904 80.2384 29.5887C80.2384 26.2582 81.5426 24.6693 83.9843 24.6693C86.4107 24.6693 87.6846 26.2582 87.6846 29.5887C87.6846 32.904 86.3956 34.4929 83.9539 34.4929H83.9691ZM145.101 24.4707H144.98V21.9804H141.476V37.1665H145.207V28.122C146.375 25.8915 147.8 25.1582 150.181 25.1582H150.561V21.8887C150.223 21.8512 149.884 21.8308 149.544 21.8276C147.527 21.8276 146.132 22.622 145.086 24.5012H145.101V24.4707ZM131.331 15.7776H124.385V37.1665H128.389V29.7262H131.316C135.85 29.7262 139.141 27.2665 139.141 22.6679C139.141 18.0845 135.85 15.7776 131.316 15.7776H131.331ZM131.361 26.5943H128.389V18.9401H131.346C133.772 18.9401 134.955 20.2845 134.955 22.6679C134.955 25.0665 133.848 26.5943 131.346 26.5943H131.361ZM185.987 26.2429C185.987 25.097 187.231 24.654 188.565 24.654C189.976 24.6693 191.386 24.8984 192.736 25.3109V22.1943C191.281 21.7803 189.773 21.5846 188.262 21.6137C184.652 21.6137 182.12 23.3401 182.12 26.1512C182.12 31.6054 189.581 30.1998 189.581 32.8582C189.581 34.1568 188.413 34.5082 186.7 34.5082C185.487 34.5082 183.561 34.0498 182.165 33.5457V36.647C183.566 37.2108 185.056 37.5161 186.563 37.5484C190.082 37.5484 193.433 36.4943 193.433 32.7054C193.479 27.4345 186.002 28.7943 186.002 26.2429H185.987ZM159.448 21.6137C154.625 21.6137 152.123 25.3873 152.123 29.497C152.123 35.1498 155.065 37.5484 159.857 37.5484C161.736 37.5525 163.604 37.2586 165.392 36.6776V33.5457C163.83 34.1262 162.405 34.4776 160.888 34.4776C158.098 34.4776 156.232 33.7137 156.141 30.3984H165.787C165.878 29.6498 165.923 28.9012 165.908 28.1679C165.908 24.9596 164.225 21.6137 159.432 21.6137H159.448ZM156.172 27.9082C156.399 25.7998 157.537 24.4554 159.402 24.4554C161.404 24.4554 162.01 26.0595 162.01 27.9082H156.172ZM172.399 26.2429C172.399 25.097 173.627 24.654 174.962 24.654C176.372 24.6693 177.783 24.8984 179.132 25.3109V22.1943C177.682 21.7818 176.18 21.5861 174.674 21.6137C171.064 21.6137 168.516 23.3401 168.516 26.1512C168.516 31.6054 175.993 30.1998 175.993 32.8582C175.993 34.1568 174.81 34.5082 173.112 34.5082C171.898 34.5082 169.972 34.0498 168.562 33.5457V36.647C169.962 37.2111 171.452 37.5165 172.96 37.5484C176.478 37.5484 179.845 36.4943 179.845 32.7054C179.875 27.4345 172.399 28.7943 172.399 26.2429ZM205.717 29.4512C205.717 25.8915 207.643 24.6845 209.933 24.6845C211.359 24.7304 212.784 25.0207 214.119 25.5554V22.347C212.757 21.8528 211.32 21.6046 209.873 21.6137C204.898 21.6137 201.82 24.6693 201.82 29.6345C201.82 34.3248 204.034 37.5484 209.645 37.5484C211.419 37.5484 212.8 37.197 214.316 36.6776V33.5609C212.602 34.2179 211.283 34.4776 210.115 34.4776C207.643 34.4776 205.717 33.3318 205.717 29.4359V29.4512ZM195.951 37.1665H199.697V33.2707H195.951V37.1665ZM3.44061 24.9443C3.44061 31.7734 7.38362 37.6554 13.0858 40.4512L4.92682 17.9318C3.9471 20.1379 3.44065 22.5275 3.44061 24.9443ZM20.5472 42.1776C22.5339 42.1776 24.4447 41.8262 26.2343 41.1998L26.1129 40.9707L20.8505 26.4568L15.7246 41.4748C17.2412 41.9332 18.8639 42.1776 20.5472 42.1776ZM22.8979 16.8623L29.0854 35.3943L30.7991 29.6498C31.527 27.2665 32.0881 25.5554 32.0881 24.0734C32.0881 21.9345 31.3299 20.4679 30.6929 19.3373C29.8133 17.9012 29.0095 16.6943 29.0095 15.2887C29.0095 13.6998 30.1924 12.2332 31.891 12.2332H32.1033C28.9512 9.31802 24.8261 7.70376 20.5472 7.71094C17.714 7.71041 14.9252 8.41941 12.4315 9.77416C9.93777 11.1289 7.8175 13.0869 6.26138 15.472L7.35329 15.5026C9.14282 15.5026 11.9029 15.2734 11.9029 15.2734C12.8432 15.2276 12.9493 16.5873 12.0243 16.6943C12.0243 16.6943 11.0992 16.8165 10.0527 16.8623L16.3009 35.5318L20.0468 24.2262L17.3777 16.8623C16.7798 16.8291 16.183 16.7781 15.5881 16.7095C14.663 16.6484 14.7692 15.2276 15.6943 15.2734C15.6943 15.2734 18.5151 15.5026 20.1984 15.5026C21.9879 15.5026 24.7481 15.2734 24.7481 15.2734C25.6731 15.2276 25.7945 16.5873 24.8694 16.6943C24.8694 16.6943 23.9443 16.8012 22.8979 16.8623ZM29.146 39.8401C31.7339 38.3242 33.8816 36.1507 35.3746 33.5368C36.8676 30.9229 37.6535 27.96 37.6538 24.9443C37.6538 21.9498 36.8956 19.1387 35.561 16.679C35.832 19.3851 35.4253 22.1165 34.3781 24.6234L29.146 39.8401ZM20.5472 44.8054C15.3185 44.8054 10.3039 42.7129 6.60656 38.9882C2.90927 35.2635 0.832153 30.2118 0.832153 24.9443C0.832153 19.6768 2.90927 14.625 6.60656 10.9003C10.3039 7.17566 15.3185 5.08316 20.5472 5.08316C25.776 5.08316 30.7906 7.17566 34.4879 10.9003C38.1852 14.625 40.2623 19.6768 40.2623 24.9443C40.2623 30.2118 38.1852 35.2635 34.4879 38.9882C30.7906 42.7129 25.776 44.8054 20.5472 44.8054Z" fill="black"/>
</g>
<defs>
<clipPath id="clip0_2788_577">
<rect width="257.812" height="55" fill="white" transform="translate(0.832153 0.5)"/>
</clipPath>
</defs>
</svg>
