<svg width="19" height="18" viewBox="0 0 19 18" fill="none" xmlns="http://www.w3.org/2000/svg">
<path fill-rule="evenodd" clip-rule="evenodd" d="M7.41663 1.5C7.41663 1.08579 7.08084 0.75 6.66663 0.75C6.25241 0.75 5.91663 1.08579 5.91663 1.5V2.25H5.16663C3.50977 2.25 2.16663 3.59315 2.16663 5.25V14.25C2.16663 15.9069 3.50977 17.25 5.16663 17.25H14.1666C15.8235 17.25 17.1666 15.9069 17.1666 14.25V5.25C17.1666 3.59315 15.8235 2.25 14.1666 2.25H13.4166V1.5C13.4166 1.08579 13.0808 0.75 12.6666 0.75C12.2524 0.75 11.9166 1.08579 11.9166 1.5V2.25H7.41663V1.5ZM5.16663 3.75H5.91663V4.5C5.91663 4.91421 6.25241 5.25 6.66663 5.25C7.08084 5.25 7.41663 4.91421 7.41663 4.5V3.75H11.9166V4.5C11.9166 4.91421 12.2524 5.25 12.6666 5.25C13.0808 5.25 13.4166 4.91421 13.4166 4.5V3.75H14.1666C14.9951 3.75 15.6666 4.42157 15.6666 5.25V6.75H3.66663V5.25C3.66663 4.42157 4.3382 3.75 5.16663 3.75Z" fill="white"/>
</svg>
