<svg width="98" height="105" viewBox="0 0 98 105" fill="none" xmlns="http://www.w3.org/2000/svg">
<g filter="url(#filter0_dddd_2287_11315)">
<path d="M25.6627 16.111C26.398 7.3051 34.1327 0.762598 42.9386 1.49792L58.8832 2.82933C67.6891 3.56465 74.2316 11.2993 73.4963 20.1053L72.1648 36.0498C71.4295 44.8557 63.6948 51.3982 54.8889 50.6629L38.9444 49.3314C30.1385 48.5961 23.596 40.8614 24.3313 32.0555L25.6627 16.111Z" fill="url(#paint0_linear_2287_11315)"/>
<g filter="url(#filter1_d_2287_11315)">
<path fill-rule="evenodd" clip-rule="evenodd" d="M51.2156 15.3173C51.6067 15.5274 51.8125 15.9701 51.721 16.4045L50.2923 23.1851L58.1322 23.8397C58.5189 23.872 58.852 24.1251 58.9868 24.4889C59.1215 24.8528 59.0337 25.2618 58.7613 25.5382L47.7974 36.6644C47.4858 36.9806 47.0031 37.0535 46.612 36.8435C46.2209 36.6335 46.0151 36.1907 46.1066 35.7563L47.5353 28.9758L39.6954 28.3211C39.3087 28.2888 38.9756 28.0358 38.8409 27.6719C38.7061 27.308 38.794 26.8991 39.0663 26.6227L50.0302 15.4964C50.3418 15.1802 50.8245 15.1073 51.2156 15.3173Z" fill="white"/>
</g>
</g>
<defs>
<filter id="filter0_dddd_2287_11315" x="-1.00012" y="-0.833496" width="99.8278" height="106.828" filterUnits="userSpaceOnUse" color-interpolation-filters="sRGB">
<feFlood flood-opacity="0" result="BackgroundImageFix"/>
<feColorMatrix in="SourceAlpha" type="matrix" values="0 0 0 0 0 0 0 0 0 0 0 0 0 0 0 0 0 0 127 0" result="hardAlpha"/>
<feMorphology radius="6" operator="erode" in="SourceAlpha" result="effect1_dropShadow_2287_11315"/>
<feOffset dy="30"/>
<feGaussianBlur stdDeviation="15"/>
<feComposite in2="hardAlpha" operator="out"/>
<feColorMatrix type="matrix" values="0 0 0 0 0 0 0 0 0 0 0 0 0 0 0 0 0 0 0.08 0"/>
<feBlend mode="normal" in2="BackgroundImageFix" result="effect1_dropShadow_2287_11315"/>
<feColorMatrix in="SourceAlpha" type="matrix" values="0 0 0 0 0 0 0 0 0 0 0 0 0 0 0 0 0 0 127 0" result="hardAlpha"/>
<feMorphology radius="5" operator="erode" in="SourceAlpha" result="effect2_dropShadow_2287_11315"/>
<feOffset dy="14"/>
<feGaussianBlur stdDeviation="10"/>
<feComposite in2="hardAlpha" operator="out"/>
<feColorMatrix type="matrix" values="0 0 0 0 0 0 0 0 0 0 0 0 0 0 0 0 0 0 0.08 0"/>
<feBlend mode="normal" in2="effect1_dropShadow_2287_11315" result="effect2_dropShadow_2287_11315"/>
<feColorMatrix in="SourceAlpha" type="matrix" values="0 0 0 0 0 0 0 0 0 0 0 0 0 0 0 0 0 0 127 0" result="hardAlpha"/>
<feMorphology radius="1" operator="erode" in="SourceAlpha" result="effect3_dropShadow_2287_11315"/>
<feOffset dy="2"/>
<feGaussianBlur stdDeviation="2"/>
<feComposite in2="hardAlpha" operator="out"/>
<feColorMatrix type="matrix" values="0 0 0 0 0.0431373 0 0 0 0 0.12549 0 0 0 0 0.403922 0 0 0 0.14 0"/>
<feBlend mode="normal" in2="effect2_dropShadow_2287_11315" result="effect3_dropShadow_2287_11315"/>
<feColorMatrix in="SourceAlpha" type="matrix" values="0 0 0 0 0 0 0 0 0 0 0 0 0 0 0 0 0 0 127 0" result="hardAlpha"/>
<feMorphology radius="2" operator="erode" in="SourceAlpha" result="effect4_dropShadow_2287_11315"/>
<feOffset dy="8"/>
<feGaussianBlur stdDeviation="4"/>
<feComposite in2="hardAlpha" operator="out"/>
<feColorMatrix type="matrix" values="0 0 0 0 0.0431373 0 0 0 0 0.12549 0 0 0 0 0.403922 0 0 0 0.05 0"/>
<feBlend mode="normal" in2="effect3_dropShadow_2287_11315" result="effect4_dropShadow_2287_11315"/>
<feBlend mode="normal" in="SourceGraphic" in2="effect4_dropShadow_2287_11315" result="shape"/>
</filter>
<filter id="filter1_d_2287_11315" x="29.9568" y="13.1235" width="37.9139" height="37.9138" filterUnits="userSpaceOnUse" color-interpolation-filters="sRGB">
<feFlood flood-opacity="0" result="BackgroundImageFix"/>
<feColorMatrix in="SourceAlpha" type="matrix" values="0 0 0 0 0 0 0 0 0 0 0 0 0 0 0 0 0 0 127 0" result="hardAlpha"/>
<feOffset dy="6"/>
<feGaussianBlur stdDeviation="3"/>
<feComposite in2="hardAlpha" operator="out"/>
<feColorMatrix type="matrix" values="0 0 0 0 0 0 0 0 0 0 0 0 0 0 0 0 0 0 0.2 0"/>
<feBlend mode="normal" in2="BackgroundImageFix" result="effect1_dropShadow_2287_11315"/>
<feBlend mode="normal" in="SourceGraphic" in2="effect1_dropShadow_2287_11315" result="shape"/>
</filter>
<linearGradient id="paint0_linear_2287_11315" x1="50.2525" y1="20.1753" x2="30.1059" y2="49.611" gradientUnits="userSpaceOnUse">
<stop stop-color="#2FCDFE"/>
<stop offset="1" stop-color="#5350FA"/>
</linearGradient>
</defs>
</svg>
