<svg width="16" height="15" viewBox="0 0 16 15" fill="none" xmlns="http://www.w3.org/2000/svg">
<path fill-rule="evenodd" clip-rule="evenodd" d="M8.00034 2.61108C8.33785 2.61108 8.61145 2.88469 8.61145 3.2222V6.88886H12.2781C12.6156 6.88886 12.8892 7.16247 12.8892 7.49997C12.8892 7.83748 12.6156 8.11108 12.2781 8.11108H8.61145V11.7778C8.61145 12.1153 8.33785 12.3889 8.00034 12.3889C7.66283 12.3889 7.38923 12.1153 7.38923 11.7778V8.11108H3.72256C3.38505 8.11108 3.11145 7.83748 3.11145 7.49997C3.11145 7.16247 3.38505 6.88886 3.72256 6.88886H7.38923V3.2222C7.38923 2.88469 7.66283 2.61108 8.00034 2.61108Z" fill="#3D3D3D"/>
</svg>
