<svg width="20" height="21" viewBox="0 0 20 21" fill="none" xmlns="http://www.w3.org/2000/svg">
<path fill-rule="evenodd" clip-rule="evenodd" d="M2.97911 3.00737C2.89139 3.00051 2.76952 2.99992 2.54334 2.99992H1.66666C1.20642 2.99992 0.833328 2.62683 0.833328 2.16659C0.833328 1.70635 1.20642 1.33326 1.66666 1.33326L2.56818 1.33325C2.75979 1.33323 2.94824 1.33321 3.10898 1.34577C3.28694 1.35968 3.49493 1.39241 3.70776 1.49295C4.0055 1.63361 4.2549 1.85932 4.42449 2.14159C4.54571 2.34335 4.59897 2.54706 4.63052 2.72275C4.65679 2.86903 4.67476 3.03981 4.69232 3.21496L2.98847 3.00851L2.97911 3.00737ZM4.69232 3.21496L16.6729 4.66661C18.2717 4.6733 19.4546 6.15976 19.0999 7.72064L17.7741 13.554C17.5154 14.6922 16.5035 15.4999 15.3363 15.4999L6.81528 15.5C6.53098 15.5002 6.28514 15.5003 6.06103 15.4596C5.12564 15.2895 4.36769 14.6035 4.10536 13.6897C4.04251 13.4708 4.01822 13.2261 3.99014 12.9432L3.04086 3.45017C3.01836 3.22512 3.00564 3.10391 2.99009 3.01731L2.98847 3.00851L4.69232 3.21496ZM4.69232 3.21496L4.83748 4.66659H16.662L4.69232 3.21496ZM7.08333 17.1666C6.39297 17.1666 5.83333 17.7262 5.83333 18.4166C5.83333 19.1069 6.39297 19.6666 7.08333 19.6666C7.77368 19.6666 8.33333 19.1069 8.33333 18.4166C8.33333 17.7262 7.77368 17.1666 7.08333 17.1666ZM13.75 17.1666C13.0596 17.1666 12.5 17.7262 12.5 18.4166C12.5 19.1069 13.0596 19.6666 13.75 19.6666C14.4403 19.6666 15 19.1069 15 18.4166C15 17.7262 14.4403 17.1666 13.75 17.1666Z" fill="#3D3D3D"/>
</svg>
