<svg width="31" height="30" viewBox="0 0 31 30" fill="none" xmlns="http://www.w3.org/2000/svg">
<path fill-rule="evenodd" clip-rule="evenodd" d="M17.4144 1.35344C17.9234 1.5744 18.2258 2.10449 18.157 2.65511L17.0826 11.2501H26.9166C27.4017 11.2501 27.8429 11.5306 28.0486 11.9699C28.2544 12.4091 28.1874 12.9277 27.8769 13.3003L15.3769 28.3003C15.0217 28.7266 14.4279 28.8677 13.9189 28.6467C13.4099 28.4257 13.1075 27.8957 13.1763 27.345L14.2507 18.7501H4.41664C3.93162 18.7501 3.49038 18.4695 3.28465 18.0303C3.07893 17.591 3.14586 17.0724 3.45636 16.6998L15.9564 1.69984C16.3116 1.27355 16.9054 1.13248 17.4144 1.35344Z" fill="white"/>
</svg>
