<svg width="60" height="40" viewBox="0 0 60 40" fill="none" xmlns="http://www.w3.org/2000/svg">
<path d="M15.7222 13.1438C15.1948 13.7679 14.351 14.2602 13.5071 14.1898C13.4017 13.346 13.8148 12.4494 14.2982 11.8956C14.8256 11.254 15.7486 10.7969 16.4958 10.7617C16.5837 11.6407 16.2408 12.5022 15.7222 13.1438ZM16.487 14.3569C15.2651 14.2865 14.2191 15.0513 13.639 15.0513C13.0501 15.0513 12.1623 14.392 11.1953 14.4096C9.93836 14.4272 8.76928 15.1392 8.12761 16.2731C6.8091 18.5409 7.78479 21.8987 9.05936 23.7447C9.68345 24.6588 10.4306 25.6609 11.4151 25.6257C12.3468 25.5906 12.716 25.0192 13.8412 25.0192C14.9751 25.0192 15.3003 25.6257 16.2848 25.6082C17.3044 25.5906 17.9461 24.694 18.5702 23.7798C19.2822 22.7426 19.5723 21.7317 19.5899 21.679C19.5723 21.6614 17.6209 20.9143 17.6033 18.664C17.5857 16.7829 19.1416 15.8863 19.2119 15.8336C18.3329 14.5327 16.9616 14.392 16.487 14.3569ZM23.5454 11.8077V25.5115H25.6726V20.8264H28.6173C31.307 20.8264 33.1969 18.9804 33.1969 16.3083C33.1969 13.6361 31.3422 11.8077 28.6876 11.8077H23.5454ZM25.6726 13.6009H28.125C29.9709 13.6009 31.0258 14.5854 31.0258 16.317C31.0258 18.0487 29.9709 19.042 28.1162 19.042H25.6726V13.6009ZM37.0821 25.6169C38.4182 25.6169 39.6576 24.9401 40.2202 23.8677H40.2641V25.5115H42.2331V18.6904C42.2331 16.7126 40.6509 15.438 38.216 15.438C35.957 15.438 34.2869 16.7302 34.2253 18.5058H36.1416C36.2998 17.6619 37.0821 17.1082 38.1545 17.1082C39.4554 17.1082 40.185 17.7147 40.185 18.831V19.587L37.5304 19.7452C35.0604 19.8946 33.7243 20.9055 33.7243 22.6635C33.7243 24.4391 35.1043 25.6169 37.0821 25.6169ZM37.6535 23.9908C36.5196 23.9908 35.7988 23.4458 35.7988 22.6107C35.7988 21.7493 36.4932 21.2483 37.8205 21.1692L40.185 21.0197V21.7933C40.185 23.0766 39.095 23.9908 37.6535 23.9908ZM44.8613 29.2385C46.9358 29.2385 47.9115 28.4473 48.7641 26.0477L52.4999 15.5699H50.3376L47.8324 23.6655H47.7884L45.2833 15.5699H43.0594L46.6633 25.5466L46.4699 26.1531C46.1447 27.1816 45.6173 27.5771 44.6767 27.5771C44.5097 27.5771 44.1845 27.5596 44.0526 27.542V29.1857C44.1757 29.2209 44.7031 29.2385 44.8613 29.2385Z" fill="black"/>
</svg>
