<svg width="49" height="48" viewBox="0 0 49 48" fill="none" xmlns="http://www.w3.org/2000/svg">
<g clip-path="url(#clip0_2287_12061)">
<path d="M23.3692 23.7827V29.3683H21.5958V15.5713H26.2967C27.4307 15.5471 28.5265 15.9774 29.3408 16.7656C30.1652 17.5075 30.6296 18.5691 30.6115 19.677C30.6357 20.7929 30.1712 21.8626 29.3408 22.6065C28.5185 23.3907 27.5031 23.7827 26.2967 23.7807L23.3692 23.7827ZM23.3692 17.2703V22.0878H26.3409C27.0004 22.1079 27.6358 21.8485 28.0942 21.374C29.0251 20.4692 29.0473 18.9793 28.1405 18.0484C28.1244 18.0323 28.1103 18.0162 28.0942 18.0021C27.6418 17.5176 27.0024 17.2522 26.3409 17.2703H23.3692ZM34.6972 19.6207C36.0081 19.6207 37.0416 19.9706 37.7996 20.6703C38.5576 21.37 38.9356 22.331 38.9356 23.5495V29.3683H37.2406V28.0573H37.1642C36.4303 29.1371 35.4532 29.6759 34.2347 29.6759C33.1952 29.6759 32.3246 29.3683 31.6249 28.751C30.9453 28.178 30.5593 27.3295 30.5753 26.4388C30.5753 25.4616 30.9453 24.6855 31.6832 24.1084C32.4211 23.5314 33.4063 23.2419 34.6409 23.2419C35.6924 23.2419 36.561 23.4349 37.2406 23.8189V23.4128C37.2446 22.8056 36.9752 22.2305 36.5087 21.8445C36.0403 21.4222 35.429 21.191 34.7977 21.1991C33.8084 21.1991 33.0243 21.6173 32.4472 22.4517L30.887 21.4685C31.7435 20.236 33.0142 19.6207 34.6972 19.6207ZM32.403 26.479C32.401 26.9374 32.6202 27.3677 32.9901 27.6351C33.3822 27.9427 33.8688 28.1076 34.3674 28.0976C35.1154 28.0955 35.8332 27.798 36.362 27.2692C36.9491 26.7162 37.2426 26.0688 37.2426 25.3229C36.6897 24.8825 35.9196 24.6614 34.9304 24.6614C34.2106 24.6614 33.6094 24.8343 33.1289 25.1821C32.6443 25.536 32.403 25.9643 32.403 26.479ZM48.6671 19.9283L42.7498 33.5303H40.9201L43.1157 28.7711L39.2231 19.9283H41.1493L43.9622 26.7102H44.0004L46.7369 19.9283H48.6671Z" fill="#5F6368"/>
<path d="M16.2049 22.5764C16.2049 22.0355 16.1607 21.4967 16.0682 20.9639H8.59265V24.016H12.8733C12.6964 25.0012 12.1253 25.8718 11.2909 26.4248V28.4073H13.8465C15.3424 27.03 16.2049 24.9892 16.2049 22.5764Z" fill="#4285F4"/>
<path d="M8.59289 30.323C10.7322 30.323 12.5337 29.6213 13.8467 28.4089L11.2912 26.4264C10.5794 26.9089 9.66456 27.1844 8.59289 27.1844C6.52595 27.1844 4.77066 25.791 4.14334 23.9131H1.51141V25.9559C2.85653 28.6341 5.59703 30.323 8.59289 30.323Z" fill="#34A853"/>
<path d="M4.14327 23.9138C3.81151 22.9306 3.81151 21.8629 4.14327 20.8797V18.8369H1.51134C0.385381 21.0768 0.385381 23.7167 1.51134 25.9566L4.14327 23.9138Z" fill="#FBBC04"/>
<path d="M8.59289 17.6078C9.72287 17.5897 10.8146 18.016 11.633 18.7961L13.897 16.5342C12.4614 15.187 10.5613 14.4471 8.59289 14.4692C5.59703 14.4692 2.85653 16.1602 1.51141 18.8363L4.14334 20.8792C4.77066 19.0012 6.52595 17.6078 8.59289 17.6078Z" fill="#EA4335"/>
</g>
<defs>
<clipPath id="clip0_2287_12061">
<rect width="48" height="48" fill="white" transform="translate(0.66687)"/>
</clipPath>
</defs>
</svg>
