<svg width="19" height="20" viewBox="0 0 19 20" fill="none" xmlns="http://www.w3.org/2000/svg">
<g clip-path="url(#clip0_2287_12016)">
<path fill-rule="evenodd" clip-rule="evenodd" d="M9.5005 1.14111C9.93006 1.14111 10.2783 1.48934 10.2783 1.91889V5.03C10.2783 5.45956 9.93006 5.80778 9.5005 5.80778C9.07095 5.80778 8.72272 5.45956 8.72272 5.03V1.91889C8.72272 1.48934 9.07095 1.14111 9.5005 1.14111ZM3.4514 3.6478C3.75514 3.34406 4.2476 3.34406 4.55134 3.6478L6.75245 5.84891C7.05619 6.15266 7.05619 6.64512 6.75245 6.94886C6.44871 7.2526 5.95625 7.2526 5.65251 6.94886L3.4514 4.74775C3.14766 4.44401 3.14766 3.95154 3.4514 3.6478ZM15.5494 3.64781C15.8531 3.95155 15.8531 4.44401 15.5494 4.74775L13.3483 6.94886C13.0445 7.2526 12.552 7.2526 12.2483 6.94886C11.9446 6.64512 11.9446 6.15266 12.2483 5.84892L14.4494 3.64781C14.7532 3.34407 15.2456 3.34407 15.5494 3.64781ZM0.944946 9.69667C0.944946 9.26711 1.29317 8.91889 1.72272 8.91889H4.83384C5.26339 8.91889 5.61161 9.26711 5.61161 9.69667C5.61161 10.1262 5.26339 10.4744 4.83384 10.4744H1.72272C1.29317 10.4744 0.944946 10.1262 0.944946 9.69667ZM13.3894 9.69667C13.3894 9.26711 13.7376 8.91889 14.1672 8.91889L17.2783 8.91889C17.7078 8.91889 18.0561 9.26711 18.0561 9.69667C18.0561 10.1262 17.7078 10.4744 17.2783 10.4744H14.1672C13.7376 10.4744 13.3894 10.1262 13.3894 9.69667ZM12.2483 12.4445C12.552 12.1407 13.0445 12.1407 13.3483 12.4445L15.5494 14.6456C15.8531 14.9493 15.8531 15.4418 15.5494 15.7455C15.2456 16.0493 14.7532 16.0493 14.4494 15.7455L12.2483 13.5444C11.9446 13.2407 11.9446 12.7482 12.2483 12.4445ZM6.75245 12.4445C7.05619 12.7482 7.05619 13.2407 6.75245 13.5444L4.55134 15.7455C4.2476 16.0493 3.75514 16.0493 3.4514 15.7455C3.14766 15.4418 3.14766 14.9493 3.4514 14.6456L5.65251 12.4445C5.95625 12.1407 6.44871 12.1407 6.75245 12.4445ZM9.5005 13.5856C9.93006 13.5856 10.2783 13.9338 10.2783 14.3633V17.4744C10.2783 17.904 9.93006 18.2522 9.5005 18.2522C9.07095 18.2522 8.72272 17.904 8.72272 17.4744L8.72272 14.3633C8.72272 13.9338 9.07095 13.5856 9.5005 13.5856Z" fill="#28DB89"/>
</g>
<defs>
<clipPath id="clip0_2287_12016">
<rect width="18.6667" height="18.6667" fill="white" transform="translate(0.167175 0.363281)"/>
</clipPath>
</defs>
</svg>
