<svg width="78" height="20" viewBox="0 0 78 20" fill="none" xmlns="http://www.w3.org/2000/svg">
<path d="M67.4797 4.67162L65.8382 14.9602C65.832 14.998 65.8342 15.0366 65.8446 15.0735C65.855 15.1103 65.8734 15.1444 65.8984 15.1734C65.9235 15.2024 65.9545 15.2256 65.9895 15.2414C66.0245 15.2572 66.0625 15.2651 66.1008 15.2647H68.0436C68.1121 15.2653 68.1786 15.2413 68.231 15.1972C68.2834 15.1531 68.3182 15.0918 68.3291 15.0243L69.9707 4.7357C69.9769 4.69792 69.9747 4.65925 69.9642 4.62241C69.9538 4.58558 69.9355 4.55146 69.9104 4.52245C69.8854 4.49343 69.8543 4.47024 69.8194 4.45447C69.7844 4.43871 69.7464 4.43077 69.708 4.43121H67.7653C67.6966 4.42985 67.6297 4.4535 67.5771 4.49774C67.5246 4.54198 67.4899 4.60378 67.4797 4.67162ZM65.4053 7.67406H63.562C63.4935 7.67339 63.4271 7.69725 63.3747 7.74129C63.3224 7.78533 63.2876 7.84663 63.2768 7.91406L63.2158 8.29284C63.2158 8.29284 61.7841 6.74427 59.2494 7.7908C57.7952 8.38998 57.0971 9.62794 56.8001 10.5349C56.8001 10.5349 55.8574 13.2912 57.9895 14.8083C57.9895 14.8083 59.9666 16.2675 62.1929 14.7186L62.1544 14.9602C62.1455 15.0169 62.1555 15.0751 62.1828 15.1256C62.2102 15.1762 62.2534 15.2164 62.3058 15.2402C62.3406 15.2565 62.3787 15.2647 62.4171 15.2647H64.2616C64.3304 15.266 64.3973 15.2424 64.4498 15.1981C64.5024 15.1539 64.537 15.0921 64.5472 15.0243L65.6692 7.97855C65.6754 7.94082 65.6732 7.90216 65.6627 7.86538C65.6521 7.8286 65.6335 7.79462 65.6082 7.7659C65.5832 7.73664 65.5521 7.71321 65.517 7.69727C65.4819 7.68133 65.4438 7.67367 65.4053 7.67406ZM62.6929 11.5679C62.621 12.0602 62.3715 12.5094 61.9912 12.8312C61.6093 13.1542 61.1232 13.3286 60.6225 13.3222C60.4262 13.3245 60.2307 13.2961 60.0431 13.2381C59.2473 12.9851 58.7931 12.2284 58.9237 11.4079C58.9962 10.9159 59.2459 10.4671 59.6262 10.1455C60.0078 9.82233 60.4935 9.6474 60.994 9.65284C61.1904 9.65081 61.3859 9.67946 61.5734 9.73774C62.3742 9.98917 62.8263 10.7471 62.6949 11.5684H62.6929V11.5679ZM52.85 11.7626C53.8496 11.7626 54.8165 11.4083 55.5759 10.7643C56.3337 10.1224 56.8355 9.23049 56.99 8.2508C57.3128 6.21284 55.7052 4.43406 53.4261 4.43406H49.7547C49.6862 4.43341 49.6197 4.45732 49.5673 4.50144C49.515 4.54556 49.4803 4.60697 49.4695 4.67447L47.8275 14.963C47.8186 15.0198 47.8286 15.0779 47.8559 15.1285C47.8833 15.1791 47.9265 15.2193 47.9789 15.243C48.0141 15.2594 48.0517 15.2675 48.0902 15.2675H50.0341C50.1027 15.2682 50.1691 15.2443 50.2215 15.2002C50.2738 15.156 50.3085 15.0946 50.3193 15.0271L50.8013 12.0059C50.8115 11.938 50.846 11.8761 50.8986 11.8318C50.9512 11.7874 51.0181 11.7637 51.0869 11.7651L52.85 11.7626ZM54.476 8.15815C54.3562 8.91162 53.7678 9.46631 52.6422 9.46631H51.2031L51.6401 6.72631H53.0534C54.217 6.72835 54.5959 7.40794 54.476 8.16019V8.15815Z" fill="#0070E0"/>
<path d="M45.6125 7.84887L43.3891 11.5652L42.2607 7.87622C42.243 7.81735 42.2066 7.7658 42.157 7.72936C42.1074 7.69291 42.0473 7.67355 41.9857 7.67418H39.9792C39.9272 7.67348 39.8768 7.69152 39.8372 7.72497C39.7976 7.75842 39.7714 7.80503 39.7635 7.85622C39.7586 7.89015 39.7622 7.92476 39.7738 7.95703L41.7958 14.1709L39.9669 17.0991C39.9514 17.1232 39.9409 17.1502 39.9362 17.1785C39.9315 17.2067 39.9327 17.2357 39.9396 17.2635C39.9464 17.2913 39.959 17.3174 39.9763 17.3402C39.9937 17.3631 40.0155 17.3821 40.0405 17.3962C40.074 17.4154 40.112 17.4253 40.1506 17.4248H42.3118C42.3735 17.425 42.4342 17.4093 42.488 17.3793C42.5418 17.3493 42.587 17.3059 42.6191 17.2534L48.2672 8.00152C48.2877 7.96931 48.2989 7.93212 48.2997 7.89399C48.3005 7.85585 48.2908 7.81823 48.2717 7.7852C48.2526 7.75205 48.225 7.72461 48.1917 7.70573C48.1584 7.68685 48.1206 7.67722 48.0823 7.67785H45.9219C45.8599 7.67728 45.7988 7.69274 45.7446 7.72271C45.6904 7.75268 45.6449 7.79614 45.6125 7.84887ZM38.8417 7.67418H36.9967C36.9281 7.67352 36.8615 7.69747 36.8091 7.74167C36.7567 7.78587 36.7219 7.84738 36.7111 7.91499L36.6514 8.29336C36.6514 8.29336 35.2185 6.74479 32.6837 7.79132C31.23 8.3905 30.5315 9.62846 30.2357 10.5354C30.2357 10.5354 29.2922 13.2917 31.4239 14.8089C31.4239 14.8089 33.4014 16.2681 35.6277 14.7191L35.5892 14.9607C35.5802 15.0175 35.5901 15.0757 35.6174 15.1262C35.6448 15.1768 35.6881 15.2171 35.7406 15.2407C35.7754 15.257 35.8134 15.2652 35.8519 15.2652H37.6964C37.7649 15.2657 37.8313 15.2417 37.8836 15.1976C37.9359 15.1535 37.9707 15.0922 37.9816 15.0248L39.104 7.97907C39.1131 7.92224 39.1032 7.86398 39.0759 7.81329C39.0485 7.76261 39.0052 7.72233 38.9526 7.69867C38.9177 7.68264 38.8801 7.67429 38.8417 7.67418ZM36.1289 11.5689C36.0563 12.0605 35.8067 12.509 35.4268 12.8305C35.0451 13.1535 34.5594 13.3282 34.0589 13.3227C33.8629 13.3249 33.6677 13.2966 33.4804 13.2387C32.685 12.9856 32.2312 12.2289 32.3617 11.4081C32.4344 10.9149 32.6851 10.4653 33.0667 10.1436C33.4498 9.82042 33.937 9.64632 34.4386 9.65336C34.635 9.65132 34.831 9.67989 35.0184 9.73826C35.811 9.98969 36.2623 10.7472 36.1314 11.5689H36.1289ZM26.2864 11.7632C27.2843 11.7626 28.2496 11.4084 29.0098 10.7636C29.767 10.1217 30.2681 9.23012 30.4223 8.25091C30.7455 6.21336 29.1375 4.43458 26.8593 4.43458H23.1874C23.1189 4.4339 23.0524 4.45774 23 4.50177C22.9476 4.54581 22.9128 4.60712 22.9018 4.67458L21.2652 14.9603C21.256 15.0171 21.2659 15.0754 21.2932 15.1261C21.3206 15.1768 21.3639 15.217 21.4166 15.2407C21.4513 15.2566 21.4894 15.2652 21.5278 15.2652H23.4706C23.5392 15.2659 23.6058 15.2419 23.6582 15.1977C23.7106 15.1535 23.7454 15.092 23.7562 15.0244L24.2373 12.0032C24.2476 11.9353 24.2822 11.8735 24.3347 11.8293C24.3873 11.785 24.4542 11.7614 24.5229 11.7627L26.2864 11.7632ZM27.9125 8.15826C27.7926 8.91173 27.2046 9.46642 26.079 9.46642H24.64L25.0761 6.72642H26.4894C27.6535 6.72846 28.0319 7.40846 27.9125 8.1603V8.15826Z" fill="#003087"/>
<path d="M13.7271 4.96342C13.7709 2.69159 11.8924 0.948731 9.30934 0.948731H3.96646C3.84196 0.948672 3.72152 0.992967 3.62685 1.07364C3.53218 1.15431 3.4695 1.26605 3.4501 1.38873L1.30934 14.7328C1.29976 14.7933 1.30344 14.8551 1.32011 14.914C1.33678 14.9729 1.36605 15.0276 1.40591 15.0741C1.44577 15.1207 1.49527 15.158 1.551 15.1837C1.60673 15.2093 1.66737 15.2226 1.72874 15.2226H4.89404L4.39936 18.3124C4.38978 18.3729 4.39345 18.4347 4.41012 18.4936C4.4268 18.5525 4.45607 18.6071 4.49593 18.6537C4.53579 18.7002 4.58528 18.7376 4.64102 18.7633C4.69675 18.7889 4.75738 18.8022 4.81875 18.8022H7.39731C7.5217 18.8022 7.63258 18.7577 7.72751 18.6773C7.82162 18.5965 7.83717 18.4851 7.85681 18.3622L8.61376 13.9198C8.63299 13.7973 8.69559 13.6381 8.79011 13.5573C8.88463 13.4765 8.96728 13.4324 9.09208 13.4324H10.6698C13.1997 13.4324 15.3458 11.6385 15.7381 9.14383C16.016 7.37322 15.2549 5.7622 13.7271 4.96342Z" fill="#001C64"/>
<path d="M5.57928 10.3013L4.79082 15.2882L4.29573 18.4164C4.28621 18.4768 4.28994 18.5386 4.30667 18.5975C4.32339 18.6564 4.35271 18.711 4.39261 18.7575C4.4325 18.804 4.48203 18.8414 4.53778 18.867C4.59352 18.8925 4.65417 18.9058 4.71553 18.9057H7.44466C7.56905 18.9057 7.68934 18.8613 7.78385 18.7807C7.87837 18.7 7.94091 18.5883 7.96021 18.4657L8.67952 13.9192C8.69892 13.7966 8.76154 13.6849 8.85612 13.6043C8.95071 13.5236 9.07105 13.4793 9.19548 13.4792H10.8019C13.3317 13.4792 15.4778 11.6384 15.8706 9.14371C16.1488 7.37309 15.2552 5.76167 13.7274 4.96289C13.7233 5.15146 13.7069 5.33963 13.6779 5.52616C13.2855 8.02003 11.1386 9.86126 8.60956 9.86126H6.09524C5.97076 9.86139 5.85042 9.90582 5.75584 9.98655C5.66127 10.0673 5.59866 10.1786 5.57928 10.3013Z" fill="#0070E0"/>
<path d="M4.79006 15.2878H1.61493C1.55358 15.2877 1.49295 15.2745 1.43724 15.2488C1.38152 15.2232 1.33204 15.1858 1.29222 15.1392C1.25239 15.0927 1.22316 15.0381 1.20654 14.9791C1.18992 14.9202 1.1863 14.8584 1.19595 14.798L3.3367 1.25592C3.35609 1.1333 3.41871 1.02162 3.5133 0.940956C3.60788 0.860296 3.72822 0.815957 3.85266 0.815918H9.30929C11.8923 0.815918 13.7708 2.69102 13.727 4.96245C13.0842 4.62612 12.3289 4.43388 11.5016 4.43388H6.9525C6.82799 4.43382 6.70755 4.47811 6.61288 4.55878C6.51821 4.63945 6.45553 4.75119 6.43613 4.87388L5.57934 10.3008L4.78965 15.2878H4.79006Z" fill="#003087"/>
</svg>
