<svg width="20" height="20" viewBox="0 0 20 20" fill="none" xmlns="http://www.w3.org/2000/svg">
<path d="M12.4428 1.04297C11.147 1.04297 9.9043 1.55771 8.98805 2.47396C8.0718 3.39021 7.55705 4.63291 7.55705 5.92868V7.55726H5.92848C5.47876 7.55726 5.1142 7.92182 5.1142 8.37154V11.6287C5.1142 12.0784 5.47876 12.443 5.92848 12.443H7.55705V18.143C7.55705 18.5927 7.92162 18.9573 8.37134 18.9573H11.6285C12.0782 18.9573 12.4428 18.5927 12.4428 18.143V12.443H14.0713C14.445 12.443 14.7707 12.1887 14.8613 11.8262L15.6756 8.56903C15.7364 8.32577 15.6818 8.06806 15.5274 7.87042C15.3731 7.67278 15.1364 7.55726 14.8856 7.55726H12.4428V5.92868H14.8856C15.3353 5.92868 15.6999 5.56412 15.6999 5.1144V1.85725C15.6999 1.40754 15.3353 1.04297 14.8856 1.04297H12.4428Z" fill="#7D7E80"/>
</svg>
