<svg width="20" height="20" viewBox="0 0 20 20" fill="none" xmlns="http://www.w3.org/2000/svg">
<path d="M8.84975 7.6737C9.33117 7.4239 9.87909 7.33226 10.4156 7.41182C10.9628 7.49297 11.4695 7.74797 11.8607 8.13917C12.2519 8.53037 12.5069 9.03701 12.588 9.58426C12.6676 10.1208 12.576 10.6687 12.3262 11.1501C12.0764 11.6315 11.6811 12.0219 11.1967 12.2658C10.7122 12.5096 10.1632 12.5945 9.6277 12.5083C9.09222 12.4222 8.59755 12.1693 8.21404 11.7858C7.83052 11.4023 7.5777 10.9076 7.49154 10.3722C7.40537 9.83667 7.49025 9.28766 7.73409 8.8032C7.97793 8.31873 8.36833 7.92349 8.84975 7.6737Z" fill="#7D7E80"/>
<path fill-rule="evenodd" clip-rule="evenodd" d="M5.70239 0.544922C2.85417 0.544922 0.545242 2.85385 0.545242 5.70206V14.2973C0.545242 17.1455 2.85417 19.4544 5.70239 19.4544H14.2976C17.1458 19.4544 19.4548 17.1455 19.4548 14.2973V5.70206C19.4548 2.85385 17.1458 0.544922 14.2976 0.544922H5.70239ZM14.7276 4.41278C14.2529 4.41278 13.868 4.7976 13.868 5.2723C13.868 5.747 14.2529 6.13183 14.7276 6.13183H14.7361C15.2109 6.13183 15.5957 5.747 15.5957 5.2723C15.5957 4.7976 15.2109 4.41278 14.7361 4.41278H14.7276ZM10.6678 5.71136C9.77358 5.57877 8.86037 5.7315 8.058 6.14783C7.25564 6.56416 6.60498 7.22289 6.19858 8.03033C5.79217 8.83777 5.65071 9.75279 5.79432 10.6453C5.93793 11.5377 6.3593 12.3622 6.99849 13.0014C7.63767 13.6406 8.46213 14.0619 9.3546 14.2055C10.2471 14.3491 11.1621 14.2077 11.9695 13.8013C12.777 13.3949 13.4357 12.7442 13.852 11.9419C14.2684 11.1395 14.4211 10.2263 14.2885 9.33211C14.1532 8.42002 13.7282 7.57561 13.0762 6.92362C12.4242 6.27162 11.5798 5.84661 10.6678 5.71136Z" fill="#7D7E80"/>
</svg>
