<svg width="22" height="22" viewBox="0 0 22 22" fill="none" xmlns="http://www.w3.org/2000/svg">
<path d="M4.13914 1.56543C2.71816 1.56543 1.56622 2.71736 1.56622 4.13835C1.56622 5.55933 2.71816 6.71126 4.13914 6.71126C5.56012 6.71126 6.71206 5.55933 6.71206 4.13835C6.71206 2.71736 5.56012 1.56543 4.13914 1.56543Z" fill="#7D7E80"/>
<path d="M14.4308 6.71126C12.8386 6.71126 11.3116 7.34377 10.1857 8.46964C9.05984 9.59551 8.42733 11.1225 8.42733 12.7147V18.7182C8.42733 19.1919 8.81131 19.5758 9.28497 19.5758H12.7155C13.1892 19.5758 13.5732 19.1919 13.5732 18.7182V12.7147C13.5732 12.4873 13.6635 12.2691 13.8244 12.1083C13.9852 11.9475 14.2033 11.8571 14.4308 11.8571C14.6583 11.8571 14.8764 11.9475 15.0372 12.1083C15.1981 12.2691 15.2884 12.4873 15.2884 12.7147V18.7182C15.2884 19.1919 15.6724 19.5758 16.1461 19.5758H19.5766C20.0503 19.5758 20.4343 19.1919 20.4343 18.7182V12.7147C20.4343 11.1225 19.8018 9.59551 18.6759 8.46964C17.55 7.34377 16.023 6.71126 14.4308 6.71126Z" fill="#7D7E80"/>
<path d="M2.42386 7.5689C1.9502 7.5689 1.56622 7.95288 1.56622 8.42654V18.7182C1.56622 19.1919 1.9502 19.5758 2.42386 19.5758H5.85442C6.32808 19.5758 6.71206 19.1919 6.71206 18.7182V8.42654C6.71206 7.95288 6.32808 7.5689 5.85442 7.5689H2.42386Z" fill="#7D7E80"/>
</svg>
