<svg width="18" height="18" viewBox="0 0 18 18" fill="none" xmlns="http://www.w3.org/2000/svg">
<path fill-rule="evenodd" clip-rule="evenodd" d="M17.25 9C17.25 13.5564 13.5563 17.25 9 17.25C4.44365 17.25 0.749999 13.5563 0.75 9C0.750001 4.44365 4.44365 0.749999 9 0.75C13.5564 0.750001 17.25 4.44365 17.25 9ZM12.5303 8.46967L9.53033 5.46967C9.23744 5.17678 8.76256 5.17678 8.46967 5.46967C8.17678 5.76256 8.17678 6.23744 8.46967 6.53033L10.1893 8.25H6C5.58579 8.25 5.25 8.58579 5.25 9C5.25 9.41421 5.58579 9.75 6 9.75H10.1893L8.46967 11.4697C8.17678 11.7626 8.17678 12.2374 8.46967 12.5303C8.76256 12.8232 9.23744 12.8232 9.53033 12.5303L12.5303 9.53033C12.8232 9.23744 12.8232 8.76256 12.5303 8.46967Z" fill="#242424"/>
</svg>
