<svg width="100" height="107" viewBox="0 0 100 107" fill="none" xmlns="http://www.w3.org/2000/svg">
<g filter="url(#filter0_dddd_2287_11166)">
<path d="M25.1378 23.0994C23.908 14.3489 30.0047 6.25817 38.7553 5.02836L54.5996 2.80159C63.3501 1.57178 71.4408 7.66855 72.6706 16.4191L74.8974 32.2634C76.1272 41.014 70.0305 49.1046 61.2799 50.3345L45.4356 52.5612C36.685 53.791 28.5944 47.6943 27.3646 38.9437L25.1378 23.0994Z" fill="url(#paint0_linear_2287_11166)"/>
<g filter="url(#filter1_d_2287_11166)">
<path d="M59.893 20.1379C59.8855 20.873 59.8235 21.6836 59.6722 22.5393L52.2992 16.9833C53.0801 16.602 53.8422 16.319 54.5467 16.1092C55.6442 15.7823 56.6104 15.63 57.3066 15.5593C57.6552 15.5239 57.9377 15.5087 58.1372 15.5025C58.2369 15.4994 58.3161 15.4986 58.3724 15.4985C58.4006 15.4985 58.4231 15.4987 58.4397 15.4989L58.4601 15.4993L58.4669 15.4994L58.4694 15.4995L58.4705 15.4995L58.4439 16.4992L59.3975 16.1981L59.3978 16.1991L59.3986 16.2015L59.4006 16.208L59.4065 16.2275C59.4113 16.2434 59.4177 16.265 59.4255 16.2921C59.441 16.3463 59.462 16.4226 59.4865 16.5193C59.5355 16.7127 59.5988 16.9885 59.6609 17.3334C59.7848 18.0221 59.9047 18.9928 59.893 20.1379Z" fill="url(#paint1_linear_2287_11166)"/>
<path d="M59.3975 16.1981C59.3975 16.1981 59.3972 16.1972 58.4439 16.4992C58.4714 15.4996 58.4705 15.4995 58.4705 15.4995C58.8962 15.5112 59.2689 15.7921 59.3975 16.1981Z" fill="url(#paint2_linear_2287_11166)"/>
<path d="M51.1253 25.3947C51.0719 25.0146 51.3367 24.6632 51.7167 24.6098C52.0968 24.5564 52.4482 24.8212 52.5016 25.2013C52.555 25.5813 52.2902 25.9327 51.9102 25.9861C51.5301 26.0395 51.1787 25.7747 51.1253 25.3947Z" fill="url(#paint3_linear_2287_11166)"/>
<path fill-rule="evenodd" clip-rule="evenodd" d="M47.4643 20.959C48.3726 19.7536 49.3929 18.8143 50.4346 18.0825L59.1296 24.6347C58.7133 25.8376 58.0916 27.0773 57.1832 28.2827C56.6414 29.0017 56.0064 29.6433 55.3265 30.2202C56.2863 31.7215 56.2685 33.7212 55.1333 35.2278L53.3345 37.6148C53.0704 37.9653 52.6084 38.1026 52.1957 37.9533C51.7829 37.8039 51.5158 37.4028 51.5371 36.9644C51.6007 35.6562 51.1152 34.393 50.2182 33.4681C50.0548 33.5545 49.894 33.6391 49.7365 33.7219L49.7316 33.7245C49.4649 33.8648 49.2085 33.9997 48.9619 34.1313C48.0329 34.6272 46.9117 34.5284 46.0804 33.9019L45.1231 33.1805C44.2919 32.5542 43.8877 31.5036 44.1084 30.4739C44.1669 30.2005 44.2259 29.9169 44.2873 29.6218L44.2877 29.6197C44.3241 29.4444 44.3614 29.2653 44.3996 29.0833C43.2634 28.4762 41.9155 28.3578 40.6757 28.7794C40.2601 28.9208 39.8009 28.7746 39.5436 28.4189C39.2863 28.0633 39.2909 27.5814 39.5551 27.2309L41.3538 24.8439C42.489 23.3376 44.4061 22.7692 46.1137 23.2778C46.4808 22.4651 46.9225 21.6779 47.4643 20.959ZM51.4384 22.6293C49.9645 22.8364 48.9376 24.1992 49.1448 25.673C49.3519 27.1469 50.7146 28.1738 52.1885 27.9667C53.6624 27.7595 54.6893 26.3968 54.4821 24.9229C54.275 23.449 52.9123 22.4221 51.4384 22.6293Z" fill="url(#paint4_linear_2287_11166)"/>
<path d="M41.825 39.9237L41.8218 39.9247L41.5065 38.9757L40.5074 38.9342L40.5075 38.9308L40.5078 38.923L40.5091 38.8949C40.5103 38.8708 40.512 38.8362 40.5143 38.7924C40.5191 38.7049 40.5264 38.5802 40.537 38.4287C40.5581 38.1267 40.5925 37.7133 40.6457 37.2726C40.6985 36.8356 40.772 36.3521 40.8748 35.9164C40.9674 35.5245 41.1169 35.0149 41.3944 34.6466C42.2901 33.458 43.9798 33.2205 45.1685 34.1162C46.3571 35.0119 46.5946 36.7017 45.6989 37.8903C45.4214 38.2586 44.9727 38.5428 44.6214 38.7397C44.231 38.9587 43.7865 39.1626 43.381 39.3338C42.9719 39.5064 42.584 39.6534 42.2995 39.7569C42.1568 39.8089 42.039 39.8503 41.9561 39.8789C41.9147 39.8933 41.8819 39.9045 41.8591 39.9122L41.8324 39.9212L41.825 39.9237Z" fill="url(#paint5_linear_2287_11166)"/>
<path d="M40.5074 38.9342C40.5074 38.9342 40.5074 38.9344 41.5065 38.9757C41.8216 39.9248 41.8218 39.9247 41.8218 39.9247C41.51 40.0282 41.167 39.9721 40.9047 39.7743C40.6423 39.5766 40.4938 39.2625 40.5074 38.9342Z" fill="url(#paint6_linear_2287_11166)"/>
</g>
</g>
<defs>
<filter id="filter0_dddd_2287_11166" x="-1.08899" y="-0.425172" width="102.213" height="109.213" filterUnits="userSpaceOnUse" color-interpolation-filters="sRGB">
<feFlood flood-opacity="0" result="BackgroundImageFix"/>
<feColorMatrix in="SourceAlpha" type="matrix" values="0 0 0 0 0 0 0 0 0 0 0 0 0 0 0 0 0 0 127 0" result="hardAlpha"/>
<feMorphology radius="6" operator="erode" in="SourceAlpha" result="effect1_dropShadow_2287_11166"/>
<feOffset dy="30"/>
<feGaussianBlur stdDeviation="15"/>
<feComposite in2="hardAlpha" operator="out"/>
<feColorMatrix type="matrix" values="0 0 0 0 0 0 0 0 0 0 0 0 0 0 0 0 0 0 0.08 0"/>
<feBlend mode="normal" in2="BackgroundImageFix" result="effect1_dropShadow_2287_11166"/>
<feColorMatrix in="SourceAlpha" type="matrix" values="0 0 0 0 0 0 0 0 0 0 0 0 0 0 0 0 0 0 127 0" result="hardAlpha"/>
<feMorphology radius="5" operator="erode" in="SourceAlpha" result="effect2_dropShadow_2287_11166"/>
<feOffset dy="14"/>
<feGaussianBlur stdDeviation="10"/>
<feComposite in2="hardAlpha" operator="out"/>
<feColorMatrix type="matrix" values="0 0 0 0 0 0 0 0 0 0 0 0 0 0 0 0 0 0 0.08 0"/>
<feBlend mode="normal" in2="effect1_dropShadow_2287_11166" result="effect2_dropShadow_2287_11166"/>
<feColorMatrix in="SourceAlpha" type="matrix" values="0 0 0 0 0 0 0 0 0 0 0 0 0 0 0 0 0 0 127 0" result="hardAlpha"/>
<feMorphology radius="1" operator="erode" in="SourceAlpha" result="effect3_dropShadow_2287_11166"/>
<feOffset dy="2"/>
<feGaussianBlur stdDeviation="2"/>
<feComposite in2="hardAlpha" operator="out"/>
<feColorMatrix type="matrix" values="0 0 0 0 0.0431373 0 0 0 0 0.12549 0 0 0 0 0.403922 0 0 0 0.14 0"/>
<feBlend mode="normal" in2="effect2_dropShadow_2287_11166" result="effect3_dropShadow_2287_11166"/>
<feColorMatrix in="SourceAlpha" type="matrix" values="0 0 0 0 0 0 0 0 0 0 0 0 0 0 0 0 0 0 127 0" result="hardAlpha"/>
<feMorphology radius="2" operator="erode" in="SourceAlpha" result="effect4_dropShadow_2287_11166"/>
<feOffset dy="8"/>
<feGaussianBlur stdDeviation="4"/>
<feComposite in2="hardAlpha" operator="out"/>
<feColorMatrix type="matrix" values="0 0 0 0 0.0431373 0 0 0 0 0.12549 0 0 0 0 0.403922 0 0 0 0.05 0"/>
<feBlend mode="normal" in2="effect3_dropShadow_2287_11166" result="effect4_dropShadow_2287_11166"/>
<feBlend mode="normal" in="SourceGraphic" in2="effect4_dropShadow_2287_11166" result="shape"/>
</filter>
<filter id="filter1_d_2287_11166" x="30.4642" y="14.1281" width="39.1066" height="39.1067" filterUnits="userSpaceOnUse" color-interpolation-filters="sRGB">
<feFlood flood-opacity="0" result="BackgroundImageFix"/>
<feColorMatrix in="SourceAlpha" type="matrix" values="0 0 0 0 0 0 0 0 0 0 0 0 0 0 0 0 0 0 127 0" result="hardAlpha"/>
<feOffset dy="6"/>
<feGaussianBlur stdDeviation="3"/>
<feComposite in2="hardAlpha" operator="out"/>
<feColorMatrix type="matrix" values="0 0 0 0 0 0 0 0 0 0 0 0 0 0 0 0 0 0 0.2 0"/>
<feBlend mode="normal" in2="BackgroundImageFix" result="effect1_dropShadow_2287_11166"/>
<feBlend mode="normal" in="SourceGraphic" in2="effect1_dropShadow_2287_11166" result="shape"/>
</filter>
<linearGradient id="paint0_linear_2287_11166" x1="50.0176" y1="21.6265" x2="36.8776" y2="54.788" gradientUnits="userSpaceOnUse">
<stop stop-color="#2FCDFE"/>
<stop offset="1" stop-color="#5350FA"/>
</linearGradient>
<linearGradient id="paint1_linear_2287_11166" x1="54.5288" y1="6.89413" x2="42.7686" y2="43.9806" gradientUnits="userSpaceOnUse">
<stop stop-color="white" stop-opacity="0.8"/>
<stop offset="1" stop-color="white"/>
</linearGradient>
<linearGradient id="paint2_linear_2287_11166" x1="54.5288" y1="6.89413" x2="42.7686" y2="43.9806" gradientUnits="userSpaceOnUse">
<stop stop-color="white" stop-opacity="0.8"/>
<stop offset="1" stop-color="white"/>
</linearGradient>
<linearGradient id="paint3_linear_2287_11166" x1="54.5288" y1="6.89413" x2="42.7686" y2="43.9806" gradientUnits="userSpaceOnUse">
<stop stop-color="white" stop-opacity="0.8"/>
<stop offset="1" stop-color="white"/>
</linearGradient>
<linearGradient id="paint4_linear_2287_11166" x1="54.5288" y1="6.89413" x2="42.7686" y2="43.9806" gradientUnits="userSpaceOnUse">
<stop stop-color="white" stop-opacity="0.8"/>
<stop offset="1" stop-color="white"/>
</linearGradient>
<linearGradient id="paint5_linear_2287_11166" x1="54.5288" y1="6.89413" x2="42.7686" y2="43.9806" gradientUnits="userSpaceOnUse">
<stop stop-color="white" stop-opacity="0.8"/>
<stop offset="1" stop-color="white"/>
</linearGradient>
<linearGradient id="paint6_linear_2287_11166" x1="54.5288" y1="6.89413" x2="42.7686" y2="43.9806" gradientUnits="userSpaceOnUse">
<stop stop-color="white" stop-opacity="0.8"/>
<stop offset="1" stop-color="white"/>
</linearGradient>
</defs>
</svg>
