<svg width="27" height="29" viewBox="0 0 27 29" fill="none" xmlns="http://www.w3.org/2000/svg">
<g clip-path="url(#clip0_2287_11177)">
<path fill-rule="evenodd" clip-rule="evenodd" d="M23.058 5.64125C23.0369 5.49587 22.9103 5.41614 22.8048 5.40676C22.6993 5.39738 20.6497 5.36689 20.6497 5.36689C20.6497 5.36689 18.9332 3.70196 18.7644 3.53077C18.5955 3.36193 18.2649 3.41352 18.1359 3.45104C18.1336 3.45104 17.8147 3.55188 17.273 3.71837C17.1839 3.42525 17.0502 3.06647 16.8603 2.70534C16.2506 1.53989 15.3548 0.923155 14.2737 0.92081C14.2714 0.92081 14.2714 0.92081 14.2691 0.92081C14.194 0.92081 14.119 0.927845 14.0439 0.93488C14.0111 0.89736 13.9806 0.859841 13.9454 0.822321C13.4741 0.31815 12.8714 0.0742724 12.1468 0.0953772C10.7516 0.135242 9.36101 1.14358 8.23307 2.93515C7.44047 4.1944 6.83546 5.77726 6.66428 7.00369C5.06266 7.50082 3.94176 7.84788 3.91596 7.85492C3.10695 8.10817 3.08115 8.13397 2.97563 8.89609C2.90293 9.47061 0.785416 25.8409 0.785416 25.8409L18.5252 28.9081L26.2144 26.997C26.2144 26.997 23.0768 5.78664 23.058 5.64125ZM16.3842 3.99273C15.9762 4.11936 15.5119 4.26241 15.0077 4.41952C14.9983 3.71368 14.9139 2.72879 14.5833 1.87991C15.6432 2.07923 16.1638 3.27751 16.3842 3.99273ZM14.0791 4.70795C13.1505 4.99639 12.1351 5.31061 11.1174 5.62484C11.4035 4.52973 11.9475 3.43697 12.6135 2.72176C12.8621 2.45443 13.2091 2.15896 13.6195 1.99012C14.0064 2.79445 14.0885 3.93645 14.0791 4.70795ZM12.1773 1.02399C12.5056 1.01695 12.78 1.08965 13.0168 1.24442C12.6393 1.43905 12.2758 1.72045 11.9335 2.08627C11.047 3.03833 10.367 4.51332 10.0973 5.93907C9.25314 6.19936 8.42536 6.45731 7.66559 6.69181C8.14396 4.45 10.0246 1.08496 12.1773 1.02399Z" fill="#95BF47"/>
<path fill-rule="evenodd" clip-rule="evenodd" d="M22.8047 5.40649C22.6992 5.39711 20.6497 5.36662 20.6497 5.36662C20.6497 5.36662 18.9331 3.70169 18.7643 3.5305C18.701 3.46719 18.6166 3.43436 18.5251 3.42029V28.9055L26.2119 26.9944C26.2119 26.9944 23.0744 5.78637 23.0556 5.64098C23.0392 5.4956 22.9102 5.41587 22.8047 5.40649Z" fill="#5E8E3E"/>
<path fill-rule="evenodd" clip-rule="evenodd" d="M14.2642 9.35977L13.3708 12.7014C13.3708 12.7014 12.3741 12.2488 11.1946 12.3215C9.46403 12.4317 9.44527 13.5221 9.46168 13.7965C9.55548 15.2902 13.4857 15.6162 13.7084 19.1172C13.882 21.8702 12.2475 23.7533 9.89316 23.9033C7.06746 24.0816 5.51039 22.4143 5.51039 22.4143L6.10836 19.8676C6.10836 19.8676 7.67481 21.0495 8.92703 20.9698C9.74543 20.9182 10.0385 20.2522 10.0081 19.7809C9.88613 17.8322 6.68288 17.9471 6.48121 14.7438C6.31003 12.0495 8.08049 9.31756 11.9872 9.07134C13.495 8.97519 14.2642 9.35977 14.2642 9.35977Z" fill="white"/>
</g>
<defs>
<clipPath id="clip0_2287_11177">
<rect width="25.429" height="28.8151" fill="white" transform="translate(0.785522 0.0928955)"/>
</clipPath>
</defs>
</svg>
