<svg width="14" height="15" viewBox="0 0 14 15" fill="none" xmlns="http://www.w3.org/2000/svg">
<path fill-rule="evenodd" clip-rule="evenodd" d="M2.08524 2.25526C2.02383 2.25046 1.93852 2.25004 1.7802 2.25004H1.16652C0.844358 2.25004 0.583191 1.98888 0.583191 1.66671C0.583191 1.34454 0.844358 1.08338 1.16652 1.08338L1.79759 1.08338C1.93171 1.08336 2.06363 1.08334 2.17615 1.09214C2.30072 1.10187 2.44631 1.12479 2.59529 1.19517C2.80371 1.29363 2.97829 1.45162 3.097 1.64921C3.18186 1.79044 3.21914 1.93304 3.24123 2.05602C3.25961 2.15842 3.27219 2.27796 3.28449 2.40057L2.09179 2.25605L2.08524 2.25526ZM3.28449 2.40057L11.6709 3.41673C12.79 3.42141 13.6181 4.46193 13.3698 5.55455L12.4417 9.63788C12.2607 10.4346 11.5523 11 10.7353 11L4.77056 11.0001C4.57155 11.0002 4.39946 11.0003 4.24258 10.9718C3.58781 10.8527 3.05724 10.3726 2.87361 9.73291C2.82962 9.57965 2.81262 9.4084 2.79296 9.21036L2.12847 2.56522C2.11271 2.40768 2.10381 2.32284 2.09293 2.26222L2.09179 2.25605L3.28449 2.40057ZM3.28449 2.40057L3.3861 3.41671H11.6633L3.28449 2.40057ZM4.95819 12.1667C4.47494 12.1667 4.08319 12.5585 4.08319 13.0417C4.08319 13.525 4.47494 13.9167 4.95819 13.9167C5.44144 13.9167 5.83319 13.525 5.83319 13.0417C5.83319 12.5585 5.44144 12.1667 4.95819 12.1667ZM9.62486 12.1667C9.14161 12.1667 8.74986 12.5585 8.74986 13.0417C8.74986 13.525 9.14161 13.9167 9.62486 13.9167C10.1081 13.9167 10.4999 13.525 10.4999 13.0417C10.4999 12.5585 10.1081 12.1667 9.62486 12.1667Z" fill="#3D3D3D"/>
</svg>
