<svg width="414" height="198" viewBox="0 0 414 198" fill="none" xmlns="http://www.w3.org/2000/svg">
<g filter="url(#filter0_f_2287_11556)">
<path d="M153.868 161.609C87.4742 152.843 -14.3145 185.827 -38.2902 196.222L-48.5654 140.596H-95.1995V281.347H452.553V-74.3228H-95.1995C-105.317 -74.3228 -99.415 51.5382 -95.1995 114.469H-48.5654C-48.3019 103.793 8.2535 125.484 15.8413 107.279C25.3261 84.5231 59.4017 27.6926 98.1316 23.4785C136.862 19.2644 239.527 41.5393 294.855 35.6396C350.184 29.7399 382.59 46.5963 394.447 76.0949C406.303 105.594 376.247 138.01 331.984 161.609C287.721 185.208 236.861 172.566 153.868 161.609Z" fill="white"/>
</g>
<defs>
<filter id="filter0_f_2287_11556" x="-150.786" y="-124.323" width="653.339" height="455.67" filterUnits="userSpaceOnUse" color-interpolation-filters="sRGB">
<feFlood flood-opacity="0" result="BackgroundImageFix"/>
<feBlend mode="normal" in="SourceGraphic" in2="BackgroundImageFix" result="shape"/>
<feGaussianBlur stdDeviation="25" result="effect1_foregroundBlur_2287_11556"/>
</filter>
</defs>
</svg>
