<svg width="133" height="42" viewBox="0 0 133 42" fill="none" xmlns="http://www.w3.org/2000/svg">
<g clip-path="url(#clip0_2287_12790)">
<mask id="mask0_2287_12790" style="mask-type:luminance" maskUnits="userSpaceOnUse" x="0" y="0" width="133" height="42">
<path d="M0.5 0H133V41.165H0.5V0Z" fill="white"/>
</mask>
<g mask="url(#mask0_2287_12790)">
<path d="M11.56 32.8528C5.12875 32.8528 1.0825 27.9403 1.0825 22.1665C1.0825 16.394 5.12875 11.4815 11.56 11.4815C13.6263 11.4815 15.4075 12.3065 16.9038 13.404V11.7578H20.8838V16.0853C20.8838 18.6603 17.9038 19.5728 16.2663 18.1378L16.1113 17.9915C14.5125 16.3515 13.0238 15.4603 11.5613 15.4603C7.57501 15.4603 5.0625 18.3353 5.0625 22.1665C5.0625 25.999 7.575 28.8728 11.56 28.8728C12.3163 28.8728 13.2288 28.5478 14.2713 27.8503C15.2988 27.1615 16.3075 26.2065 17.2163 25.189C18.2484 24.0256 19.1871 22.7826 20.0238 21.4715L20.2975 21.029C20.5828 20.5704 20.8795 20.119 21.1875 19.6753C21.9544 18.5652 22.7875 17.5024 23.6825 16.4928C24.7163 15.3365 25.9763 14.1178 27.3825 13.1765C28.7713 12.2453 30.4588 11.4815 32.3075 11.4815C38.7388 11.4815 42.7838 16.394 42.7838 22.1665C42.7838 27.939 38.7388 32.8528 32.3075 32.8528C30.2413 32.8528 28.46 32.0278 26.9625 30.9303V40.9053H22.9825V28.2478C22.9825 25.5903 26.16 24.7028 27.7563 26.3415L28.0538 26.6403C29.54 28.0903 30.935 28.8728 32.3075 28.8728C36.2913 28.8728 38.805 25.9978 38.805 22.1665C38.805 18.3353 36.2925 15.4615 32.3075 15.4603C31.5513 15.4603 30.6388 15.7853 29.5963 16.484C28.5688 17.1715 27.56 18.129 26.6513 19.1465C25.6193 20.3096 24.6806 21.5522 23.8438 22.8628L23.3813 23.609C22.4291 25.1015 21.3603 26.5163 20.185 27.8403C19.1513 28.9965 17.8913 30.2153 16.485 31.1565C15.095 32.0878 13.4075 32.8528 11.56 32.8528ZM49.2613 41.164H44.8425V22.164C44.8425 20.209 45.2975 18.454 46.2075 16.9015C47.1273 15.3651 48.428 14.092 49.9838 13.2053C51.5913 12.2953 53.3988 11.8403 55.4075 11.8403C57.415 11.8403 59.21 12.309 60.79 13.2465C62.3438 14.1569 63.6319 15.4584 64.5263 17.0215C65.4638 18.5753 65.9313 20.289 65.9313 22.164C65.9313 24.1728 65.49 25.9665 64.6063 27.5465C63.7396 29.0827 62.4776 30.359 60.9513 31.2428C59.3975 32.1528 57.6163 32.6078 55.6075 32.6078C54.1189 32.6175 52.6528 32.2443 51.35 31.524C50.0375 30.774 48.98 29.809 48.1763 28.6315C47.4 27.4528 47.0113 26.1815 47.0113 24.8153L49.2613 25.699V41.164ZM55.4075 28.4303C56.585 28.4303 57.63 28.149 58.54 27.5865C59.4602 27.042 60.2221 26.2664 60.75 25.3365C61.2836 24.3792 61.56 23.3 61.5525 22.204C61.5635 21.1199 61.2866 20.0523 60.75 19.1103C60.2219 18.1806 59.4601 17.405 58.54 16.8603C57.63 16.2978 56.585 16.0178 55.4075 16.0178C54.2288 16.0178 53.17 16.299 52.2325 16.8615C51.3305 17.4155 50.5842 18.1898 50.0638 19.1115C49.5274 20.0532 49.2505 21.1204 49.2613 22.204C49.2613 23.329 49.5288 24.3728 50.0638 25.3365C50.5844 26.2586 51.3312 27.0329 52.2338 27.5865C53.1713 28.149 54.2288 28.4303 55.4075 28.4303ZM75.555 32.609C73.8675 32.609 72.4475 32.2878 71.2963 31.6453C70.1692 31.0017 69.26 30.0363 68.685 28.8728C68.0963 27.694 67.8013 26.3428 67.8013 24.8153V7.26277H72.18V24.6965C72.18 25.9278 72.5288 26.8928 73.225 27.589C73.9213 28.2853 74.8313 28.6328 75.9563 28.6328C76.6086 28.6274 77.2571 28.5328 77.8838 28.3515C78.5004 28.1635 79.0835 27.8792 79.6113 27.509V31.5253C79.1025 31.8465 78.4738 32.1003 77.7238 32.2878C77.0202 32.4995 76.2897 32.6069 75.555 32.609ZM79.6113 16.139H68.5988V12.3628H79.6113V16.1378V16.139ZM82.0675 13.0978C82.722 13.5334 83.4907 13.7658 84.2769 13.7658C85.0631 13.7658 85.8318 13.5334 86.4863 13.0978V32.0865H82.0675V13.0978ZM84.2763 12.1353C83.7675 12.1353 83.285 12.0153 82.83 11.7753C82.4063 11.5118 82.0492 11.1542 81.7862 10.7303C81.5475 10.2856 81.423 9.78869 81.4238 9.28402C81.4238 8.74902 81.545 8.26652 81.7862 7.83777C82.0537 7.41027 82.4025 7.07527 82.83 6.83402C83.285 6.56652 83.7675 6.43277 84.2763 6.43277C84.8125 6.43277 85.2813 6.56652 85.6825 6.83277C86.1113 7.07527 86.445 7.41027 86.6862 7.83777C86.955 8.26652 87.0888 8.74902 87.0888 9.28402C87.0888 9.79277 86.955 10.2753 86.6862 10.7303C86.4462 11.159 86.1113 11.5065 85.6825 11.7753C85.2558 12.0224 84.7693 12.1462 84.2763 12.1353ZM98.7038 32.5678C97.3244 32.5759 95.9578 32.3028 94.6875 31.7653C93.4481 31.2424 92.317 30.4929 91.3525 29.5553C90.4154 28.591 89.6663 27.4604 89.1438 26.2215C88.6056 24.9509 88.3321 23.5839 88.34 22.204C88.34 20.7578 88.6075 19.419 89.1438 18.1865C89.6603 16.9562 90.4104 15.8377 91.3525 14.8928C92.3082 13.9342 93.4408 13.1701 94.6875 12.6428C95.9578 12.1052 97.3244 11.8321 98.7038 11.8403C100.501 11.8535 102.267 12.3086 103.846 13.1653C105.426 13.9953 106.671 15.3215 107.581 17.1428L103.926 19.1515C103.364 18.1328 102.626 17.3565 101.717 16.8215C100.832 16.2853 99.83 16.0178 98.705 16.0178C97.605 16.0178 96.6012 16.299 95.6913 16.8615C94.803 17.4018 94.0697 18.1627 93.5625 19.0703C93.0262 20.0078 92.7588 21.0528 92.7588 22.204C92.7588 23.329 93.0262 24.3603 93.5625 25.2965C94.0975 26.234 94.8075 26.984 95.6913 27.5465C96.6012 28.109 97.6063 28.3903 98.7038 28.3903C99.8288 28.3903 100.832 28.1228 101.716 27.5865C102.628 27.0515 103.364 26.274 103.926 25.2565L107.581 27.2653C106.671 29.059 105.426 30.3853 103.846 31.2428C102.267 32.0995 100.501 32.5546 98.7038 32.5678ZM116.02 32.5678C114.12 32.5678 112.472 32.2065 111.08 31.484C109.714 30.734 108.63 29.6215 107.826 28.149L111.16 26.3015C111.669 27.239 112.298 27.9078 113.048 28.3103C113.824 28.7115 114.747 28.9128 115.82 28.9128C116.473 28.9231 117.124 28.8281 117.747 28.6315C118.31 28.4178 118.753 28.1365 119.073 27.7878C119.395 27.4128 119.555 26.9578 119.555 26.4215C119.555 25.7528 119.274 25.2578 118.713 24.9353C118.176 24.614 117.48 24.3603 116.623 24.1728C115.793 23.9853 114.896 23.7853 113.931 23.5703C113.008 23.3609 112.107 23.065 111.24 22.6865C110.422 22.2945 109.707 21.7166 109.151 20.999C108.616 20.249 108.348 19.2453 108.348 17.9865C108.348 16.8353 108.669 15.804 109.312 14.8928C109.955 13.9828 110.838 13.259 111.962 12.724C113.087 12.1878 114.388 11.9203 115.86 11.9203C117.145 11.9203 118.27 12.1078 119.235 12.4828C120.225 12.8315 121.069 13.3128 121.765 13.929C122.432 14.5081 122.989 15.202 123.411 15.9778L120.077 17.8653C119.702 17.0353 119.14 16.4465 118.39 16.0978C117.667 15.7503 116.851 15.5765 115.94 15.5765C115.377 15.5765 114.855 15.6828 114.374 15.8978C113.924 16.0626 113.523 16.3387 113.209 16.7003C112.914 17.0228 112.766 17.424 112.766 17.9065C112.766 18.5215 113.035 19.004 113.57 19.3515C114.132 19.674 114.829 19.9415 115.659 20.1553C116.516 20.3428 117.414 20.5428 118.35 20.7578C119.28 20.9607 120.183 21.2711 121.041 21.6828C121.868 22.0604 122.587 22.6409 123.13 23.3703C123.667 24.0915 123.934 25.0828 123.934 26.3415C123.934 27.6003 123.572 28.699 122.85 29.6353C122.126 30.5728 121.163 31.2965 119.958 31.8053C118.753 32.314 117.44 32.5678 116.02 32.5678ZM123.631 5.40277C123.631 3.03527 125.438 1.24902 127.806 1.24902C130.194 1.24902 132 3.03527 132 5.38277C132 7.73152 130.194 9.49652 127.806 9.49652C125.438 9.49652 123.631 7.73152 123.631 5.40277ZM131.097 5.38277C131.097 3.45652 129.712 2.05152 127.806 2.05152C125.92 2.05152 124.535 3.45652 124.535 5.40277C124.535 7.30902 125.92 8.69402 127.806 8.69402C129.712 8.69402 131.097 7.28902 131.097 5.38277ZM126.24 7.67027V3.09527H127.986C129.07 3.09527 129.753 3.67777 129.753 4.54027C129.753 5.20277 129.351 5.68402 128.689 5.86527L129.773 7.67027H128.789L127.826 6.04527H127.124V7.67027H126.24ZM127.946 3.83777H127.124V5.30277H127.946C128.448 5.30277 128.829 5.02152 128.829 4.54027C128.829 4.07777 128.467 3.83777 127.946 3.83777Z" fill="#242424"/>
</g>
</g>
<defs>
<clipPath id="clip0_2287_12790">
<rect width="132.5" height="41.25" fill="white" transform="translate(0.5)"/>
</clipPath>
</defs>
</svg>
