<svg width="44" height="44" viewBox="0 0 44 44" fill="none" xmlns="http://www.w3.org/2000/svg">
<g clip-path="url(#clip0_2287_12823)">
<path d="M22 44C34.1503 44 44 34.1503 44 22C44 9.84974 34.1503 0 22 0C9.84974 0 0 9.84974 0 22C0 34.1503 9.84974 44 22 44Z" fill="url(#paint0_linear_2287_12823)"/>
<path fill-rule="evenodd" clip-rule="evenodd" d="M9.95849 21.7679C16.3719 18.9737 20.6486 17.1315 22.7884 16.2415C28.898 13.7004 30.1676 13.2589 30.995 13.2443C31.177 13.2411 31.5839 13.2862 31.8475 13.5001C32.2385 13.8174 32.2407 14.5061 32.1973 14.9619C31.8662 18.4407 30.4336 26.8826 29.7048 30.7788C29.3963 32.4274 28.7891 32.9803 28.2013 33.0343C26.9238 33.1519 25.9536 32.19 24.7162 31.3789C22.7799 30.1096 21.686 29.3195 19.8065 28.081C17.6344 26.6496 19.0425 25.8629 20.2804 24.5772C20.6043 24.2408 26.2333 19.1207 26.3423 18.6562C26.356 18.5981 26.3686 18.3816 26.24 18.2673C26.1113 18.153 25.9215 18.192 25.7845 18.2231C25.5903 18.2672 22.497 20.3117 16.5048 24.3566C15.6268 24.9596 14.8315 25.2533 14.119 25.2379C13.3334 25.221 11.8225 24.7938 10.6992 24.4286C9.32143 23.9808 8.22642 23.744 8.32181 22.9834C8.37148 22.5872 8.91701 22.1821 9.95849 21.7679Z" fill="white"/>
</g>
<defs>
<linearGradient id="paint0_linear_2287_12823" x1="22" y1="0" x2="22" y2="43.6563" gradientUnits="userSpaceOnUse">
<stop stop-color="#2AABEE"/>
<stop offset="1" stop-color="#229ED9"/>
</linearGradient>
<clipPath id="clip0_2287_12823">
<rect width="44" height="44" fill="white"/>
</clipPath>
</defs>
</svg>
