<svg width="1200" height="550" viewBox="0 0 1200 550" fill="none" xmlns="http://www.w3.org/2000/svg">
<g opacity="0.05" clip-path="url(#clip0_2292_862)">
<path d="M473.031 111.345C395.266 111.345 346.339 170.746 346.339 240.561C346.339 310.361 395.266 369.762 473.031 369.762C498.016 369.762 519.555 359.787 537.647 346.516V493.319H585.773V314.095C585.773 282.958 549.739 271.925 529.939 289.276L528.064 291.045C508.733 310.875 490.731 321.652 473.047 321.652C424.846 321.652 394.465 286.888 394.465 240.561C394.465 194.22 424.846 159.471 473.031 159.471C482.176 159.471 493.21 163.401 505.815 171.835C518.24 180.163 530.437 191.711 541.426 204.014C553.906 218.082 565.257 233.112 575.374 248.965L578.684 254.316C582.133 259.862 585.721 265.32 589.445 270.685C598.718 284.108 608.793 296.959 619.615 309.167C632.114 323.149 647.35 337.885 664.354 349.267C681.147 360.527 701.552 369.762 723.906 369.762C801.672 369.762 850.583 310.361 850.583 240.561C850.583 170.761 801.672 111.345 723.906 111.345C698.922 111.345 677.383 121.321 659.276 134.592V-9.77142H611.15V167.028C611.15 199.162 649.572 209.894 668.874 190.078L672.471 186.466C690.442 168.933 707.31 159.471 723.906 159.471C772.077 159.471 802.473 194.235 802.473 240.561C802.473 286.888 772.092 321.637 723.906 321.652C714.762 321.652 703.728 317.722 691.122 309.273C678.698 300.96 666.501 289.382 655.512 277.079C643.034 263.014 631.683 247.989 621.564 232.142L615.972 223.119C604.458 205.072 591.535 187.964 577.323 171.956C564.823 157.974 549.588 143.237 532.584 131.856C515.776 120.596 495.371 111.345 473.031 111.345Z" fill="white"/>
<path d="M473.031 875.287C395.266 875.287 346.339 815.885 346.339 746.07C346.339 676.27 395.266 616.869 473.031 616.869C498.016 616.869 519.555 626.845 537.647 640.116V493.312H585.773V672.537C585.773 703.673 549.739 714.707 529.939 697.355L528.064 695.587C508.733 675.756 490.731 664.98 473.047 664.98C424.846 664.98 394.465 699.744 394.465 746.07C394.465 792.412 424.846 827.161 473.031 827.161C482.176 827.161 493.21 823.231 505.815 814.797C518.24 806.469 530.437 794.921 541.426 782.618C553.906 768.55 565.258 753.52 575.374 737.667L578.684 732.316C582.133 726.77 585.721 721.312 589.445 715.947C598.718 702.524 608.793 689.673 619.615 677.464C632.114 663.483 647.35 648.746 664.354 637.365C681.147 626.104 701.552 616.869 723.906 616.869C801.672 616.869 850.583 676.27 850.583 746.07C850.583 815.87 801.672 875.287 723.906 875.287C698.922 875.287 677.383 865.311 659.276 852.04V996.403H611.15V819.604C611.15 787.47 649.572 776.738 668.874 796.554L672.471 800.166C690.442 817.699 707.31 827.161 723.906 827.161C772.077 827.161 802.473 792.397 802.473 746.07C802.473 699.744 772.092 664.995 723.906 664.98C714.762 664.98 703.728 668.91 691.123 677.359C678.698 685.672 666.501 697.25 655.512 709.553C643.034 723.617 631.683 738.643 621.564 754.489L615.972 763.513C604.458 781.56 591.535 798.668 577.323 814.676C564.823 828.657 549.588 843.394 532.584 854.776C515.776 866.036 495.371 875.287 473.031 875.287Z" fill="white"/>
<path d="M-31.2117 120.657C-108.977 120.657 -157.904 61.2556 -157.904 -8.55949C-157.904 -78.3595 -108.977 -137.761 -31.2117 -137.761C-6.22697 -137.761 15.3116 -127.785 33.404 -114.514V-261.317H81.5294V-82.0928C81.5294 -50.9564 45.4958 -39.9227 25.6954 -57.2744L23.8212 -59.0428C4.48941 -78.8734 -13.5123 -89.6502 -31.1966 -89.6502C-79.3976 -89.6502 -109.778 -54.8863 -109.778 -8.55949C-109.778 37.7824 -79.3976 72.5312 -31.2117 72.5312C-22.0673 72.5312 -11.0335 68.6014 1.57227 60.1674C13.9966 51.8391 26.1942 40.2914 37.1826 27.988C49.6632 13.9204 61.0143 -1.11005 71.1304 -16.9633L74.4406 -22.3139C77.8898 -27.8598 81.4782 -33.318 85.2023 -38.6832C94.4749 -52.1062 104.55 -64.9569 115.371 -77.1654C127.871 -91.1466 143.107 -105.883 160.111 -117.265C176.904 -128.525 197.309 -137.761 219.663 -137.761C297.429 -137.761 346.34 -78.3595 346.34 -8.55949C346.34 61.2405 297.429 120.657 219.663 120.657C194.679 120.657 173.14 110.681 155.033 97.4101V241.773H106.907V64.9739C106.907 32.8399 145.329 22.1084 164.63 41.9238L168.228 45.5363C186.199 63.0694 203.067 72.5312 219.663 72.5312C267.834 72.5312 298.23 37.7673 298.23 -8.55949C298.23 -54.8863 267.849 -89.6351 219.663 -89.6502C210.519 -89.6502 199.485 -85.7204 186.879 -77.2712C174.455 -68.9581 162.257 -57.3802 151.269 -45.0768C138.791 -31.0125 127.44 -15.9873 117.321 -0.140533L111.729 8.88293C100.215 26.9299 87.2921 44.0378 73.0802 60.0464C60.5803 74.0276 45.3446 88.7645 28.3405 100.146C11.5329 111.406 -8.87206 120.657 -31.2117 120.657Z" fill="white"/>
<path d="M-31.2117 362.888C-108.977 362.888 -157.904 422.289 -157.904 492.104C-157.904 561.904 -108.977 621.305 -31.2117 621.305C-6.22697 621.305 15.3116 611.33 33.404 598.059V744.862H81.5294V565.638C81.5294 534.501 45.4958 523.468 25.6954 540.819L23.8212 542.588C4.48941 562.418 -13.5123 573.195 -31.1966 573.195C-79.3976 573.195 -109.778 538.431 -109.778 492.104C-109.778 445.763 -79.3976 411.014 -31.2117 411.014C-22.0673 411.014 -11.0335 414.943 1.57227 423.378C13.9966 431.706 26.1942 443.254 37.1826 455.557C49.6632 469.625 61.0143 484.655 71.1304 500.508L74.4406 505.859C77.8898 511.405 81.4782 516.863 85.2023 522.228C94.4749 535.651 104.55 548.502 115.371 560.71C127.871 574.692 143.107 589.428 160.111 600.81C176.904 612.07 197.309 621.305 219.663 621.305C297.429 621.305 346.34 561.904 346.34 492.104C346.34 422.304 297.429 362.888 219.663 362.888C194.679 362.888 173.14 372.864 155.033 386.135V241.772H106.907V418.571C106.907 450.705 145.329 461.437 164.63 441.621L168.228 438.009C186.199 420.475 203.067 411.014 219.663 411.014C267.834 411.014 298.23 445.778 298.23 492.104C298.23 538.431 267.849 573.18 219.663 573.195C210.519 573.195 199.485 569.265 186.879 560.816C174.455 552.503 162.257 540.925 151.269 528.622C138.791 514.557 127.44 499.532 117.321 483.685L111.729 474.662C100.215 456.615 87.2921 439.507 73.0802 423.499C60.5803 409.517 45.3446 394.78 28.3405 383.399C11.5329 372.139 -8.87206 362.888 -31.2117 362.888Z" fill="white"/>
<path d="M977.276 120.657C899.51 120.657 850.584 61.2556 850.584 -8.55949C850.584 -78.3595 899.51 -137.761 977.276 -137.761C1002.26 -137.761 1023.8 -127.785 1041.89 -114.514V-261.317H1090.02V-82.0928C1090.02 -50.9564 1053.98 -39.9227 1034.18 -57.2744L1032.31 -59.0428C1012.98 -78.8734 994.975 -89.6502 977.291 -89.6502C929.09 -89.6502 898.709 -54.8863 898.709 -8.55949C898.709 37.7824 929.09 72.5312 977.276 72.5312C986.42 72.5312 997.454 68.6014 1010.06 60.1674C1022.48 51.8391 1034.68 40.2914 1045.67 27.988C1058.15 13.9204 1069.5 -1.11005 1079.62 -16.9633L1082.93 -22.3139C1086.38 -27.8598 1089.97 -33.318 1093.69 -38.6832C1102.96 -52.1062 1113.04 -64.9569 1123.86 -77.1654C1136.36 -91.1466 1151.59 -105.883 1168.6 -117.265C1185.39 -128.525 1205.8 -137.761 1228.15 -137.761C1305.92 -137.761 1354.83 -78.3595 1354.83 -8.55949C1354.83 61.2405 1305.92 120.657 1228.15 120.657C1203.17 120.657 1181.63 110.681 1163.52 97.4101V241.773H1115.39V64.9739C1115.39 32.8399 1153.82 22.1084 1173.12 41.9238L1176.72 45.5363C1194.69 63.0694 1211.55 72.5312 1228.15 72.5312C1276.32 72.5312 1306.72 37.7673 1306.72 -8.55949C1306.72 -54.8863 1276.34 -89.6351 1228.15 -89.6502C1219.01 -89.6502 1207.97 -85.7204 1195.37 -77.2712C1182.94 -68.9581 1170.75 -57.3802 1159.76 -45.0768C1147.28 -31.0125 1135.93 -15.9873 1125.81 -0.140533L1120.22 8.88293C1108.7 26.9299 1095.78 44.0378 1081.57 60.0464C1069.07 74.0276 1053.83 88.7645 1036.83 100.146C1020.02 111.406 999.616 120.657 977.276 120.657Z" fill="white"/>
<path d="M977.276 362.888C899.51 362.888 850.584 422.289 850.584 492.104C850.584 561.904 899.51 621.305 977.276 621.305C1002.26 621.305 1023.8 611.33 1041.89 598.059V744.862H1090.02V565.638C1090.02 534.501 1053.98 523.468 1034.18 540.819L1032.31 542.588C1012.98 562.418 994.975 573.195 977.291 573.195C929.09 573.195 898.709 538.431 898.709 492.104C898.709 445.763 929.09 411.014 977.276 411.014C986.42 411.014 997.454 414.943 1010.06 423.378C1022.48 431.706 1034.68 443.254 1045.67 455.557C1058.15 469.625 1069.5 484.655 1079.62 500.508L1082.93 505.859C1086.38 511.405 1089.97 516.863 1093.69 522.228C1102.96 535.651 1113.04 548.502 1123.86 560.71C1136.36 574.692 1151.59 589.428 1168.6 600.81C1185.39 612.07 1205.8 621.305 1228.15 621.305C1305.92 621.305 1354.83 561.904 1354.83 492.104C1354.83 422.304 1305.92 362.888 1228.15 362.888C1203.17 362.888 1181.63 372.864 1163.52 386.135V241.772H1115.39V418.571C1115.39 450.705 1153.82 461.437 1173.12 441.621L1176.72 438.009C1194.69 420.475 1211.55 411.014 1228.15 411.014C1276.32 411.014 1306.72 445.778 1306.72 492.104C1306.72 538.431 1276.34 573.18 1228.15 573.195C1219.01 573.195 1207.97 569.265 1195.37 560.816C1182.94 552.503 1170.75 540.925 1159.76 528.622C1147.28 514.557 1135.93 499.532 1125.81 483.685L1120.22 474.662C1108.7 456.615 1095.78 439.507 1081.57 423.499C1069.07 409.517 1053.83 394.78 1036.83 383.399C1020.02 372.139 999.616 362.888 977.276 362.888Z" fill="white"/>
</g>
<defs>
<clipPath id="clip0_2292_862">
<rect width="1515.81" height="1515.81" fill="white" transform="translate(-157.904 -770.944)"/>
</clipPath>
</defs>
</svg>
