<svg width="49" height="56" viewBox="0 0 49 56" fill="none" xmlns="http://www.w3.org/2000/svg">
<g filter="url(#filter0_dd_2287_12759)">
<path fill-rule="evenodd" clip-rule="evenodd" d="M6.71681 7.82159C5.80714 7.96219 5.18368 8.81361 5.32428 9.72328C5.46488 10.633 6.3163 11.2564 7.22597 11.1158L9.85178 10.71L9.85554 10.7099L9.85716 10.7108L15.2946 32.2654C15.9268 34.7714 18.3654 36.3774 20.9167 35.9831L39.3852 33.1285C40.2948 32.9879 40.9183 32.1365 40.7777 31.2268C40.6371 30.3172 39.7857 29.6937 38.876 29.8343L20.4075 32.6888C19.548 32.8217 18.7361 32.2803 18.5267 31.45L18.0791 29.6758L38.2652 26.5558C40.5336 26.2052 42.2782 24.3592 42.49 22.0717L43.1238 15.2279C43.4245 11.9814 40.5866 9.33243 37.3715 9.82937L13.9844 13.4441L13.089 9.89431C12.6672 8.22232 11.0412 7.15321 9.34262 7.41574L6.71681 7.82159ZM28.2642 16.2964C28.1236 15.3867 27.2722 14.7633 26.3625 14.9039C25.4528 15.0445 24.8294 15.8959 24.97 16.8055L25.2245 18.4526L23.5774 18.7072C22.6678 18.8478 22.0443 19.6992 22.1849 20.6089C22.3255 21.5186 23.1769 22.142 24.0866 22.0014L25.7337 21.7469L25.9883 23.394C26.1289 24.3036 26.9803 24.9271 27.89 24.7865C28.7996 24.6459 29.4231 23.7945 29.2825 22.8848L29.0279 21.2377L30.675 20.9831C31.5847 20.8425 32.2082 19.9911 32.0676 19.0814C31.927 18.1718 31.0755 17.5483 30.1659 17.6889L28.5188 17.9435L28.2642 16.2964Z" fill="url(#paint0_linear_2287_12759)"/>
<path d="M22.2927 37.4568C20.9315 37.6672 19.9898 38.9405 20.2014 40.3097C20.413 41.679 21.6953 42.6085 23.0565 42.3982C24.4176 42.1878 25.3594 40.9144 25.1478 39.5452C24.9361 38.176 23.6539 37.2464 22.2927 37.4568Z" fill="url(#paint1_linear_2287_12759)"/>
<path d="M33.4183 38.2669C33.2067 36.8977 34.1484 35.6244 35.5096 35.414C36.8708 35.2036 38.153 36.1332 38.3646 37.5024C38.5763 38.8716 37.6345 40.1449 36.2733 40.3553C34.9122 40.5657 33.6299 39.6361 33.4183 38.2669Z" fill="url(#paint2_linear_2287_12759)"/>
</g>
<defs>
<filter id="filter0_dd_2287_12759" x="-1.83199" y="0.573242" width="55.6405" height="58.6406" filterUnits="userSpaceOnUse" color-interpolation-filters="sRGB">
<feFlood flood-opacity="0" result="BackgroundImageFix"/>
<feColorMatrix in="SourceAlpha" type="matrix" values="0 0 0 0 0 0 0 0 0 0 0 0 0 0 0 0 0 0 127 0" result="hardAlpha"/>
<feOffset dy="8"/>
<feGaussianBlur stdDeviation="2.5"/>
<feComposite in2="hardAlpha" operator="out"/>
<feColorMatrix type="matrix" values="0 0 0 0 0 0 0 0 0 0 0 0 0 0 0 0 0 0 0.12 0"/>
<feBlend mode="normal" in2="BackgroundImageFix" result="effect1_dropShadow_2287_12759"/>
<feColorMatrix in="SourceAlpha" type="matrix" values="0 0 0 0 0 0 0 0 0 0 0 0 0 0 0 0 0 0 127 0" result="hardAlpha"/>
<feOffset dy="2"/>
<feGaussianBlur stdDeviation="1"/>
<feComposite in2="hardAlpha" operator="out"/>
<feColorMatrix type="matrix" values="0 0 0 0 0 0 0 0 0 0 0 0 0 0 0 0 0 0 0.1 0"/>
<feBlend mode="normal" in2="effect1_dropShadow_2287_12759" result="effect2_dropShadow_2287_12759"/>
<feBlend mode="normal" in="SourceGraphic" in2="effect2_dropShadow_2287_12759" result="shape"/>
</filter>
<linearGradient id="paint0_linear_2287_12759" x1="7.87009" y1="26.1944" x2="33.3773" y2="73.2834" gradientUnits="userSpaceOnUse">
<stop stop-color="#12B2F9"/>
<stop offset="1" stop-color="#514DFA"/>
</linearGradient>
<linearGradient id="paint1_linear_2287_12759" x1="7.87009" y1="26.1944" x2="33.3773" y2="73.2834" gradientUnits="userSpaceOnUse">
<stop stop-color="#12B2F9"/>
<stop offset="1" stop-color="#514DFA"/>
</linearGradient>
<linearGradient id="paint2_linear_2287_12759" x1="7.87009" y1="26.1944" x2="33.3773" y2="73.2834" gradientUnits="userSpaceOnUse">
<stop stop-color="#12B2F9"/>
<stop offset="1" stop-color="#514DFA"/>
</linearGradient>
</defs>
</svg>
