<svg width="20" height="20" viewBox="0 0 20 20" fill="none" xmlns="http://www.w3.org/2000/svg">
<g clip-path="url(#clip0_2287_12803)">
<mask id="mask0_2287_12803" style="mask-type:luminance" maskUnits="userSpaceOnUse" x="-1" y="0" width="21" height="20">
<path d="M-0.000732422 1.90735e-06H19.9993V20H-0.000732422V1.90735e-06Z" fill="white"/>
</mask>
<g mask="url(#mask0_2287_12803)">
<path d="M19.2182 10C19.2163 10.8221 19.207 11.6443 19.1957 12.4663C19.1821 13.4582 19.1668 14.4504 18.9181 15.4253C18.6572 16.4475 18.1428 17.3292 17.3424 17.9819C16.499 18.6697 15.4795 19.0312 14.3792 19.0981C12.9198 19.1869 11.4598 19.222 9.99985 19.2185C8.53985 19.222 7.07985 19.1869 5.62052 19.0981C4.5202 19.0312 3.50075 18.6697 2.65731 17.9819C1.85692 17.3292 1.34247 16.4475 1.08161 15.4253C0.832862 14.4504 0.81755 13.4582 0.803995 12.4663C0.792745 11.6443 0.783408 10.8221 0.781494 10C0.783408 9.1779 0.792745 8.35575 0.803995 7.53368C0.81755 6.54184 0.832862 5.54958 1.08161 4.57473C1.34247 3.55247 1.85692 2.67083 2.65731 2.01813C3.50075 1.33032 4.5202 0.968794 5.62052 0.90188C7.07985 0.81313 8.53985 0.778052 9.99985 0.78149C11.4598 0.778052 12.9198 0.81313 14.3792 0.90188C15.4795 0.968794 16.499 1.33032 17.3424 2.01813C18.1428 2.67083 18.6572 3.55247 18.9181 4.57473C19.1668 5.54958 19.1821 6.54184 19.1957 7.53368C19.207 8.35575 19.2163 9.1779 19.2182 10Z" stroke="#242424" stroke-width="1.5625" stroke-miterlimit="10"/>
<path d="M14.062 10C14.062 12.2652 12.2257 14.1016 9.96045 14.1016C7.69521 14.1016 5.85889 12.2652 5.85889 10C5.85889 7.73477 7.69521 5.89844 9.96045 5.89844C12.2257 5.89844 14.062 7.73477 14.062 10Z" stroke="#242424" stroke-width="1.5625" stroke-miterlimit="10"/>
<path d="M16.562 4.72656C16.562 5.37375 16.0373 5.89844 15.3901 5.89844C14.7429 5.89844 14.2183 5.37375 14.2183 4.72656C14.2183 4.07938 14.7429 3.55469 15.3901 3.55469C16.0373 3.55469 16.562 4.07938 16.562 4.72656Z" fill="#242424"/>
</g>
</g>
<defs>
<clipPath id="clip0_2287_12803">
<rect width="20" height="20" fill="white"/>
</clipPath>
</defs>
</svg>
