<svg width="51" height="55" viewBox="0 0 51 55" fill="none" xmlns="http://www.w3.org/2000/svg">
<g filter="url(#filter0_dd_2287_12763)">
<path d="M16.5969 20.9263C16.3537 20.0385 16.8763 19.1217 17.7641 18.8786C18.6519 18.6354 19.5687 19.158 19.8118 20.0458C20.055 20.9336 19.5324 21.8504 18.6446 22.0935C17.7568 22.3367 16.84 21.8141 16.5969 20.9263Z" fill="url(#paint0_linear_2287_12763)"/>
<path fill-rule="evenodd" clip-rule="evenodd" d="M8.69278 10.9947C6.02943 11.7241 4.46167 14.4745 5.19108 17.1378L8.3098 28.5254C8.66029 29.8051 9.50507 30.8931 10.6581 31.5496L26.8856 40.7899C27.4527 41.1135 28.078 41.3223 28.7258 41.4042C29.3738 41.4861 30.0317 41.4395 30.6617 41.2669C31.2917 41.0944 31.8815 40.7993 32.3974 40.3986C32.9133 39.9979 33.3451 39.4995 33.6682 38.9317L41.9611 24.3789L41.9635 24.3746C42.6103 23.2317 42.7785 21.8794 42.4317 20.6129C42.0848 19.3464 41.251 18.2685 40.1122 17.6146L23.8741 8.35585C22.722 7.69889 21.356 7.52663 20.0768 7.87696L8.69278 10.9947ZM16.8836 15.6636C14.2203 16.3931 12.6525 19.1434 13.3819 21.8068C14.1113 24.4701 16.8617 26.0379 19.5251 25.3085C22.1884 24.5791 23.7562 21.8287 23.0268 19.1653C22.2973 16.502 19.547 14.9342 16.8836 15.6636Z" fill="url(#paint1_linear_2287_12763)"/>
</g>
<defs>
<filter id="filter0_dd_2287_12763" x="-3.17737" y="0.583008" width="59.1451" height="62.1445" filterUnits="userSpaceOnUse" color-interpolation-filters="sRGB">
<feFlood flood-opacity="0" result="BackgroundImageFix"/>
<feColorMatrix in="SourceAlpha" type="matrix" values="0 0 0 0 0 0 0 0 0 0 0 0 0 0 0 0 0 0 127 0" result="hardAlpha"/>
<feOffset dy="8"/>
<feGaussianBlur stdDeviation="2.5"/>
<feComposite in2="hardAlpha" operator="out"/>
<feColorMatrix type="matrix" values="0 0 0 0 0 0 0 0 0 0 0 0 0 0 0 0 0 0 0.12 0"/>
<feBlend mode="normal" in2="BackgroundImageFix" result="effect1_dropShadow_2287_12763"/>
<feColorMatrix in="SourceAlpha" type="matrix" values="0 0 0 0 0 0 0 0 0 0 0 0 0 0 0 0 0 0 127 0" result="hardAlpha"/>
<feOffset dy="2"/>
<feGaussianBlur stdDeviation="1"/>
<feComposite in2="hardAlpha" operator="out"/>
<feColorMatrix type="matrix" values="0 0 0 0 0 0 0 0 0 0 0 0 0 0 0 0 0 0 0.1 0"/>
<feBlend mode="normal" in2="effect1_dropShadow_2287_12763" result="effect2_dropShadow_2287_12763"/>
<feBlend mode="normal" in="SourceGraphic" in2="effect2_dropShadow_2287_12763" result="shape"/>
</filter>
<linearGradient id="paint0_linear_2287_12763" x1="8.49288" y1="29.1939" x2="37.7946" y2="71.0816" gradientUnits="userSpaceOnUse">
<stop stop-color="#12B2F9"/>
<stop offset="1" stop-color="#514DFA"/>
</linearGradient>
<linearGradient id="paint1_linear_2287_12763" x1="8.49288" y1="29.1939" x2="37.7946" y2="71.0816" gradientUnits="userSpaceOnUse">
<stop stop-color="#12B2F9"/>
<stop offset="1" stop-color="#514DFA"/>
</linearGradient>
</defs>
</svg>
