<svg width="1280" height="257" viewBox="0 0 1280 257" fill="none" xmlns="http://www.w3.org/2000/svg">
<path d="M109.166 263.98C42.1583 263.98 0 212.796 0 152.639C0 92.4946 42.1583 41.3106 109.166 41.3106C130.695 41.3106 149.254 49.9064 164.843 61.3414V44.1889H206.311V89.2777C206.311 116.107 175.262 125.614 158.201 110.663L156.586 109.139C139.929 92.0518 124.417 82.7657 109.179 82.7657C67.646 82.7657 41.468 112.721 41.468 152.639C41.468 192.57 67.646 222.512 109.166 222.512C117.046 222.512 126.553 219.126 137.415 211.859C148.121 204.683 158.631 194.732 168.099 184.131C178.853 172.009 188.634 159.058 197.351 145.398L200.203 140.787C203.175 136.009 206.267 131.305 209.476 126.682C217.466 115.116 226.147 104.043 235.472 93.5235C246.243 81.4764 259.371 68.7781 274.022 58.971C288.492 49.2682 306.074 41.3106 325.337 41.3106C392.344 41.3106 434.49 92.4946 434.49 152.639C434.49 212.783 392.344 263.98 325.337 263.98C303.808 263.98 285.249 255.385 269.646 243.95V347.88H228.178V216C228.178 188.312 261.285 179.065 277.917 196.139L281.016 199.252C296.502 214.359 311.036 222.512 325.337 222.512C366.844 222.512 393.035 192.557 393.035 152.639C393.035 112.721 366.857 82.7788 325.337 82.7657C317.457 82.7657 307.95 86.152 297.088 93.4323C286.382 100.595 275.872 110.572 266.403 121.173C255.651 133.292 245.871 146.239 237.152 159.893L232.333 167.669C222.412 183.219 211.277 197.96 199.031 211.755C188.26 223.802 175.132 236.5 160.48 246.307C145.998 256.01 128.415 263.98 109.166 263.98ZM501.979 350.576H455.94V152.613C455.94 132.244 460.681 113.958 470.162 97.7823C479.746 81.7743 493.298 68.5097 509.507 59.2706C526.256 49.7892 545.088 45.0485 566.018 45.0485C586.934 45.0485 605.636 49.9324 622.099 59.7004C638.287 69.1859 651.709 82.7467 661.027 99.0326C670.795 115.221 675.666 133.077 675.666 152.613C675.666 173.542 671.068 192.232 661.861 208.694C652.831 224.7 639.682 237.997 623.779 247.206C607.59 256.687 589.031 261.428 568.102 261.428C552.592 261.529 537.316 257.641 523.742 250.136C510.067 242.322 499.049 232.267 490.675 219.999C482.587 207.717 478.536 194.472 478.536 180.237L501.979 189.445V350.576ZM566.018 217.902C578.286 217.902 589.174 214.971 598.656 209.111C608.244 203.437 616.181 195.356 621.682 185.668C627.241 175.693 630.122 164.449 630.043 153.03C630.158 141.734 627.273 130.611 621.682 120.796C616.18 111.109 608.242 103.028 598.656 97.3525C589.174 91.4918 578.286 88.5744 566.018 88.5744C553.736 88.5744 542.705 91.5048 532.937 97.3656C523.539 103.138 515.763 111.205 510.341 120.809C504.753 130.62 501.868 141.739 501.979 153.03C501.979 164.751 504.767 175.626 510.341 185.668C515.765 195.274 523.546 203.342 532.95 209.111C542.718 214.971 553.736 217.902 566.018 217.902ZM775.937 261.441C758.354 261.441 743.559 258.094 731.564 251.399C719.822 244.694 710.348 234.635 704.358 222.512C698.223 210.231 695.15 196.152 695.15 180.237V-2.64509H740.772V178.999C740.772 191.828 744.406 201.882 751.66 209.137C758.914 216.391 768.396 220.012 780.117 220.012C786.914 219.956 793.671 218.97 800.2 217.081C806.625 215.123 812.7 212.16 818.199 208.303V250.149C812.898 253.496 806.347 256.14 798.533 258.094C791.203 260.3 783.592 261.419 775.937 261.441ZM818.199 89.8377H703.459V50.4925H818.199V89.8247V89.8377ZM843.791 58.1505C850.61 62.6893 858.619 65.1109 866.811 65.1109C875.002 65.1109 883.011 62.6893 889.831 58.1505V255.997H843.791V58.1505ZM866.804 48.1221C861.504 48.1221 856.476 46.8718 851.736 44.3712C847.322 41.6265 843.6 37.9005 840.861 33.4832C838.373 28.8506 837.076 23.6727 837.084 18.4146C837.084 12.8403 838.347 7.81311 840.861 3.34591C843.648 -1.10827 847.281 -4.59868 851.736 -7.1123C856.476 -9.89941 861.504 -11.293 866.804 -11.293C872.392 -11.293 877.276 -9.89941 881.456 -7.12532C885.923 -4.59868 889.401 -1.10827 891.914 3.34591C894.714 7.81311 896.108 12.8403 896.108 18.4146C896.108 23.7153 894.714 28.7425 891.914 33.4832C889.414 37.9504 885.923 41.5711 881.456 44.3712C877.01 46.9464 871.941 48.2355 866.804 48.1221ZM1017.13 261.011C1002.75 261.095 988.516 258.25 975.28 252.65C962.366 247.202 950.582 239.393 940.532 229.623C930.768 219.577 922.964 207.797 917.519 194.889C911.913 181.65 909.063 167.407 909.145 153.03C909.145 137.961 911.932 124.012 917.519 111.171C922.901 98.3521 930.716 86.6979 940.532 76.8529C950.49 66.8653 962.291 58.9039 975.28 53.4098C988.516 47.8086 1002.75 44.9636 1017.13 45.0485C1035.85 45.1868 1054.25 49.9278 1070.71 58.8538C1087.17 67.5017 1100.14 81.3201 1109.62 100.296L1071.54 121.225C1065.68 110.611 1057.99 102.523 1048.53 96.9488C1039.31 91.3615 1028.86 88.5744 1017.14 88.5744C1005.68 88.5744 995.22 91.5048 985.738 97.3656C976.484 102.995 968.843 110.923 963.559 120.379C957.971 130.147 955.184 141.035 955.184 153.03C955.184 164.751 957.971 175.496 963.559 185.251C969.133 195.019 976.531 202.833 985.738 208.694C995.22 214.555 1005.69 217.485 1017.13 217.485C1028.85 217.485 1039.31 214.698 1048.51 209.111C1058.01 203.536 1065.68 195.436 1071.54 184.834L1109.62 205.764C1100.14 224.453 1087.17 238.271 1070.71 247.206C1054.25 256.132 1035.85 260.873 1017.13 261.011ZM1197.55 261.011C1177.75 261.011 1160.58 257.247 1146.08 249.719C1131.84 241.905 1120.55 230.314 1112.17 214.971L1146.91 195.722C1152.21 205.49 1158.76 212.458 1166.57 216.652C1174.66 220.832 1184.29 222.929 1195.46 222.929C1202.27 223.037 1209.05 222.047 1215.54 219.999C1221.41 217.772 1226.02 214.841 1229.35 211.208C1232.71 207.3 1234.38 202.56 1234.38 196.972C1234.38 190.005 1231.45 184.847 1225.6 181.487C1220.01 178.14 1212.76 175.496 1203.82 173.542C1195.18 171.589 1185.84 169.505 1175.78 167.265C1166.17 165.083 1156.78 162 1147.74 158.057C1139.22 153.972 1131.76 147.951 1125.98 140.475C1120.41 132.66 1117.61 122.202 1117.61 109.087C1117.61 97.092 1120.95 86.3473 1127.66 76.8529C1134.35 67.3715 1143.55 59.8306 1155.27 54.2564C1166.99 48.6691 1180.54 45.882 1195.88 45.882C1209.27 45.882 1220.99 47.8356 1231.04 51.7428C1241.36 55.3764 1250.15 60.3906 1257.4 66.8114C1264.35 72.8454 1270.16 80.075 1274.56 88.1576L1239.82 107.824C1235.91 99.1759 1230.05 93.0416 1222.24 89.4079C1214.71 85.7873 1206.21 83.977 1196.71 83.977C1190.85 83.977 1185.41 85.084 1180.39 87.3241C1175.71 89.0417 1171.53 91.9183 1168.26 95.6855C1165.18 99.0456 1163.64 103.226 1163.64 108.254C1163.64 114.661 1166.44 119.689 1172.02 123.309C1177.88 126.669 1185.13 129.456 1193.78 131.684C1202.72 133.637 1212.07 135.721 1221.82 137.961C1231.51 140.075 1240.92 143.31 1249.86 147.599C1258.48 151.534 1265.97 157.581 1271.63 165.181C1277.23 172.696 1280 183.024 1280 196.139C1280 209.254 1276.24 220.702 1268.71 230.457C1261.17 240.225 1251.13 247.766 1238.57 253.066C1226.02 258.367 1212.34 261.011 1197.55 261.011Z" fill="url(#paint0_linear_2287_12848)"/>
<defs>
<linearGradient id="paint0_linear_2287_12848" x1="640" y1="-11.293" x2="640" y2="235.148" gradientUnits="userSpaceOnUse">
<stop stop-color="#E5E5E5"/>
<stop offset="1" stop-color="white"/>
</linearGradient>
</defs>
</svg>
